<?xml version="1.0" encoding="utf-8"?>
<!-- Generator: Adobe Illustrator 27.2.0, SVG Export Plug-In . SVG Version: 6.00 Build 0)  -->
<svg version="1.1" id="Layer_1" xmlns="http://www.w3.org/2000/svg" xmlns:xlink="http://www.w3.org/1999/xlink" x="0px" y="0px"
	 width="255.8px" height="120.1px" viewBox="0 0 255.8 120.1" style="enable-background:new 0 0 255.8 120.1;" xml:space="preserve"
	>
<style type="text/css">
	.st0{fill:#EF4136;}
</style>
<g>
	<path class="st0" d="M65.4,57.5C65.2,59,65,60.8,64.7,63c-0.3,2.2-0.5,3.8-0.6,5c-1.4,0-3.2,0.3-5.4,1c-2.1,0.7-4.4,1-6.8,1
		c-3.3,0-6.2-0.5-8.7-1.5s-4.6-2.3-6.3-3.9s-2.9-3.4-3.7-5.5C32.4,57.2,32,55,32,52.8c0-4.6,1.8-8.7,5.5-12.3s8.6-5.3,14.8-5.3
		c2.7,0,5,0.2,6.7,0.7c1.8,0.5,3.4,0.7,4.8,0.7c0.1,1.5,0.2,3.3,0.3,5.2s0.3,3.7,0.4,5.3c0,0.1-0.1,0.2-0.4,0.3
		c-0.3,0.1-0.5,0.1-0.8,0.1c-0.2,0-0.3,0-0.6-0.1s-0.3-0.2-0.4-0.3c-0.4-2.3-1.6-4.5-3.6-6.6c-2-2-4.2-3-6.7-3
		c-3.8,0-6.4,1.4-7.9,4.3c-1.5,2.9-2.3,6.6-2.3,11c0,4.3,0.7,7.9,2.2,10.7s4.1,4.2,7.8,4.2c2.9,0,5.3-1,7.2-3.1
		c1.9-2,3.2-4.4,4.2-7.2c0-0.1,0.2-0.2,0.4-0.3S64,57,64.2,57s0.4,0,0.7,0.1C65.3,57.3,65.4,57.4,65.4,57.5z"/>
	<path class="st0" d="M94.6,58.7c0,3-1.1,5.7-3.2,7.9c-2.2,2.3-5.3,3.4-9.5,3.4c-4.1,0-7.3-1.1-9.5-3.4c-2.2-2.2-3.3-4.9-3.3-8
		c0-3,1.1-5.7,3.3-8.1c2.2-2.4,5.3-3.5,9.5-3.5c4.1,0,7.2,1.2,9.4,3.5C93.5,52.9,94.6,55.6,94.6,58.7z M85.9,58.7
		c0-3.1-0.3-5.4-0.8-6.9c-0.5-1.6-1.6-2.3-3.2-2.3s-2.7,0.8-3.2,2.4s-0.8,3.9-0.8,6.9c0,3.1,0.3,5.4,0.8,6.9s1.6,2.2,3.2,2.2
		s2.7-0.7,3.2-2.2C85.6,64,85.9,61.7,85.9,58.7z"/>
	<path class="st0" d="M111.6,68.2c0,0.2,0,0.4-0.1,0.7s-0.2,0.4-0.3,0.4c-1,0-2.2-0.1-3.7-0.2s-2.8-0.2-3.9-0.2s-2.3,0.1-3.6,0.2
		s-2.4,0.2-3.4,0.2c-0.1,0-0.2-0.1-0.3-0.4s-0.1-0.5-0.1-0.7s0-0.4,0.1-0.6c0.1-0.3,0.2-0.4,0.3-0.4c1.2-0.1,2-0.5,2.5-1
		s0.7-1.5,0.7-3.1V43.3c0-1.3-0.2-2.1-0.7-2.5s-1.3-0.7-2.5-0.8c-0.1,0-0.2-0.2-0.3-0.4c-0.1-0.2-0.1-0.4-0.1-0.6
		c0-0.2,0-0.4,0.1-0.6c0.1-0.2,0.2-0.4,0.3-0.4c1.5-0.4,3.2-0.9,5.1-1.6c1.8-0.7,3.4-1.3,4.6-1.9c0.1-0.1,0.3-0.1,0.5-0.2
		c0.2-0.1,0.4-0.1,0.6-0.1c0.4,0,0.7,0.1,0.8,0.2c0.2,0.1,0.2,0.3,0.2,0.4c-0.1,1.1-0.1,2.5-0.2,4.1s-0.1,3-0.1,4v20.2
		c0,1.5,0.3,2.5,0.8,3.1c0.5,0.5,1.3,0.9,2.5,1c0.1,0,0.2,0.1,0.3,0.4S111.6,68.1,111.6,68.2z"/>
	<path class="st0" d="M127.2,68.2c0,0.2,0,0.4-0.1,0.7s-0.2,0.4-0.3,0.4c-1,0-2.2-0.1-3.7-0.2s-2.8-0.2-3.9-0.2s-2.3,0.1-3.6,0.2
		s-2.4,0.2-3.4,0.2c-0.1,0-0.2-0.1-0.3-0.4s-0.1-0.5-0.1-0.7s0-0.4,0.1-0.6c0.1-0.3,0.2-0.4,0.3-0.4c1.2-0.1,2-0.5,2.5-1
		s0.7-1.5,0.7-3.1V43.3c0-1.3-0.2-2.1-0.7-2.5s-1.3-0.7-2.5-0.8c-0.1,0-0.2-0.2-0.3-0.4c-0.1-0.2-0.1-0.4-0.1-0.6
		c0-0.2,0-0.4,0.1-0.6c0.1-0.2,0.2-0.4,0.3-0.4c1.5-0.4,3.2-0.9,5.1-1.6c1.8-0.7,3.4-1.3,4.6-1.9c0.1-0.1,0.3-0.1,0.5-0.2
		c0.2-0.1,0.4-0.1,0.6-0.1c0.4,0,0.7,0.1,0.8,0.2c0.2,0.1,0.2,0.3,0.2,0.4c-0.1,1.1-0.1,2.5-0.2,4.1s-0.1,3-0.1,4v20.2
		c0,1.5,0.3,2.5,0.8,3.1c0.5,0.5,1.3,0.9,2.5,1c0.1,0,0.2,0.1,0.3,0.4S127.2,68.1,127.2,68.2z"/>
	<path class="st0" d="M153.1,67c0,0.1,0,0.2,0,0.2c0,0.1,0,0.1-0.1,0.2c-0.6,0.7-1.6,1.3-2.8,1.7c-1.3,0.4-2.6,0.7-3.9,0.7
		c-1.3,0-2.4-0.3-3.2-0.9s-1.4-1.4-1.6-2.4c-0.7,1.1-1.7,1.9-2.8,2.5c-1.1,0.5-2.5,0.8-4.2,0.8c-1.8,0-3.4-0.4-4.6-1.2
		c-1.3-0.8-1.9-2.1-1.9-3.8c0-1.9,1-3.4,3.1-4.6c2.1-1.2,5.6-2.3,10.5-3.4l0.1-4.7c0-1-0.1-1.6-0.4-2c-0.3-0.3-0.8-0.5-1.4-0.5
		s-1.3,0.1-1.8,0.4c-0.6,0.3-0.9,0.8-0.9,1.6c-0.2,2-0.6,3.4-1.2,4.1c-0.7,0.8-1.7,1.2-3,1.2c-1.2,0-2.1-0.3-2.7-1
		c-0.6-0.7-0.9-1.5-0.9-2.5c0-1.6,1.3-3.1,3.9-4.4c2.6-1.3,5.5-2,8.8-2c2.9,0,5,0.7,6,2.2c1.1,1.5,1.6,3.5,1.5,6l-0.2,8.4
		c-0.1,1.1,0.1,1.8,0.5,2.2c0.4,0.3,0.8,0.5,1.1,0.5s0.6,0,0.8-0.1c0.3-0.1,0.5-0.2,0.7-0.4c0.1-0.1,0.3,0,0.6,0.4
		S153.1,66.7,153.1,67z M141.3,58.5c-1.9,0.4-3.2,1.1-4.1,1.8c-0.8,0.8-1.2,1.9-1.2,3.3c0,0.8,0.2,1.4,0.6,1.9s1,0.7,1.8,0.7
		c0.6,0,1.2-0.2,1.8-0.6c0.5-0.4,0.9-1.2,1-2.3L141.3,58.5z"/>
	<path class="st0" d="M179.5,51c0,0.4-0.1,0.7-0.2,1.1c-0.1,0.4-0.3,0.6-0.5,0.6l-3.6-0.1c0.1,0.3,0.2,0.6,0.3,0.9
		c0.1,0.3,0.1,0.7,0.1,1.2c0,2.4-0.9,4.3-2.7,5.8s-4.5,2.2-7.9,2.2c-0.2,0-0.4,0-0.6,0c-0.2,0-0.3,0-0.4,0h-0.1h-0.1
		c-0.9,0.1-1.7,0.3-2.3,0.7s-0.9,0.8-0.9,1.2c0,0.4,0.1,0.8,0.4,1s1,0.3,2.2,0.3l7.1,0.1c2.6,0,4.5,0.6,5.7,1.7s1.8,2.5,1.8,4.1
		c0,3.2-1.6,5.8-4.7,7.7c-3.1,1.9-6.7,2.9-10.6,2.9c-2.9,0-5.2-0.6-6.9-1.8c-1.7-1.2-2.6-2.7-2.6-4.3c0-1.3,0.4-2.4,1.2-3.1
		s2.1-1.3,3.9-1.7c-1.4-0.5-2.4-1.4-3.1-2.6c-0.7-1.2-1-2.1-1-2.8c0-0.8,0.6-1.6,1.8-2.5s2.6-1.4,4.1-1.7c-1.7-0.8-3-1.6-3.8-2.6
		s-1.3-2.3-1.3-3.9c0-2.2,0.9-4.1,2.7-5.8s4.4-2.5,7.8-2.5c1.4,0,2.9,0.2,4.2,0.5c1.4,0.4,2.6,1,3.5,1.9l5.8-0.1
		c0.2,0,0.3,0.2,0.5,0.6C179.5,50.3,179.5,50.7,179.5,51z M173.4,74.6c0-0.6-0.2-1-0.7-1.2S171.3,73,170,73l-5.8-0.1
		c-0.5,0-1.1,0-1.9-0.1c-0.8-0.1-1.3-0.2-1.7-0.3c-0.6,0.1-1.1,0.4-1.4,0.7c-0.4,0.4-0.5,1-0.5,1.8c0,1.2,0.5,2.2,1.6,2.9
		c1.1,0.7,2.6,1.1,4.6,1.1c2.7,0,4.8-0.4,6.2-1.2C172.7,77,173.4,75.9,173.4,74.6z M168,54.6c0-1.7-0.2-3-0.5-3.9s-1-1.3-2.2-1.3
		s-1.9,0.6-2.2,1.8s-0.4,2.6-0.4,4.2c0,1.7,0.2,3,0.5,3.8s1,1.2,2.2,1.2c1.1,0,1.8-0.5,2.2-1.6C167.9,57.8,168,56.4,168,54.6z"/>
	<path class="st0" d="M204.1,56.4c0,0.2-0.1,0.4-0.2,0.5c-0.2,0.1-0.4,0.2-0.7,0.2H190c0,0.2,0,0.5,0,0.9s0,0.7,0,1
		c0,2.7,0.4,4.6,1.3,5.6c0.9,1.1,2.2,1.6,3.8,1.6c1.2,0,2.4-0.3,3.9-0.9s2.5-1.3,3.1-2.2c0-0.1,0.1,0,0.3,0.1s0.3,0.2,0.4,0.3
		c0.2,0.2,0.3,0.3,0.4,0.5c0.1,0.2,0.2,0.3,0.2,0.5c0,0.1,0,0.1,0,0.2s-0.1,0.1-0.1,0.2c-0.8,1.2-2,2.3-3.6,3.4S196,70,193.4,70
		c-3.4,0-6.3-1.1-8.6-3.3c-2.3-2.2-3.5-4.8-3.5-7.8c0-3.4,1.1-6.2,3.3-8.4c2.2-2.2,5.2-3.3,8.8-3.3c3.3,0,6,0.9,7.9,2.7
		C203.2,51.6,204.1,53.8,204.1,56.4z M196.1,52.8c0-1-0.2-1.8-0.6-2.4c-0.4-0.7-1.1-1-1.9-1c-1.1,0-1.8,0.5-2.4,1.5
		c-0.5,1-0.8,2.4-1,4l3.9-0.1c0.7,0,1.2-0.2,1.5-0.4C196,54.2,196.1,53.6,196.1,52.8z"/>
	<path class="st0" d="M229,51c0,1.1-0.3,2-1,2.8c-0.7,0.7-1.5,1.1-2.6,1.1c-0.7,0-1.2-0.1-1.7-0.4c-0.4-0.3-0.8-0.6-1.1-0.9
		c-0.3-0.3-0.6-0.6-0.9-0.9s-0.7-0.4-1.1-0.4c-0.7,0-1.2,0.2-1.6,0.6c-0.4,0.4-0.8,1-1.3,1.8v8.5c0,1.5,0.3,2.5,0.8,3.1
		c0.5,0.5,1.5,0.9,2.9,1c0.1,0,0.2,0.1,0.3,0.4s0.1,0.5,0.1,0.7s0,0.4-0.1,0.6c-0.1,0.3-0.2,0.4-0.3,0.4c-1,0-2.2-0.1-3.8-0.2
		s-2.8-0.2-4-0.2c-1.1,0-2.3,0.1-3.7,0.2s-2.6,0.2-3.6,0.2c-0.1,0-0.2-0.1-0.3-0.4s-0.1-0.5-0.1-0.6c0-0.2,0-0.4,0.1-0.7
		s0.2-0.4,0.3-0.4c1.4-0.2,2.3-0.5,2.7-1s0.6-1.5,0.6-3.1v-7.5c0-1.3-0.2-2.1-0.5-2.5s-1-0.7-2.2-0.8c-0.1,0-0.2-0.1-0.3-0.4
		c-0.1-0.2-0.1-0.4-0.1-0.6c0-0.2,0-0.4,0.1-0.6c0.1-0.3,0.2-0.4,0.3-0.4c1.1-0.3,2.5-0.7,4.4-1.4s3.3-1.3,4.3-1.8
		c0.1-0.1,0.3-0.1,0.5-0.2s0.4-0.1,0.6-0.1c0.4,0,0.7,0.1,0.8,0.2c0.2,0.1,0.3,0.3,0.3,0.4l-0.2,4.6c0.7-1.4,1.7-2.5,3-3.5
		c1.2-0.9,2.4-1.4,3.5-1.4c1.6,0,2.8,0.4,3.7,1.1C228.5,48.9,229,49.8,229,51z"/>
</g>
</svg>
