<?xml version="1.0" encoding="UTF-8"?><svg id="Layer_1" xmlns="http://www.w3.org/2000/svg" width="197" height="48.2" viewBox="0 0 197 48.2"><defs><style>.cls-1{fill:#ef4136;}</style></defs><path class="cls-1" d="m33.4,23.3c-.2,1.5-.4,3.3-.7,5.5-.3,2.2-.5,3.8-.6,5-1.4,0-3.2.3-5.4,1-2.1.7-4.4,1-6.8,1-3.3,0-6.2-.5-8.7-1.5s-4.6-2.3-6.3-3.9-2.9-3.4-3.7-5.5c-.8-1.9-1.2-4.1-1.2-6.3,0-4.6,1.8-8.7,5.5-12.3S14.1,1,20.3,1c2.7,0,5,.2,6.7.7,1.8.5,3.4.7,4.8.7.1,1.5.2,3.3.3,5.2s.3,3.7.4,5.3c0,.1-.1.2-.4.3-.3.1-.5.1-.8.1-.2,0-.3,0-.6-.1s-.3-.2-.4-.3c-.4-2.3-1.6-4.5-3.6-6.6-2-2-4.2-3-6.7-3-3.8,0-6.4,1.4-7.9,4.3-1.5,2.9-2.3,6.6-2.3,11s.7,7.9,2.2,10.7,4.1,4.2,7.8,4.2c2.9,0,5.3-1,7.2-3.1,1.9-2,3.2-4.4,4.2-7.2,0-.1.2-.2.4-.3s.4-.1.6-.1.4,0,.7.1c.4.2.5.3.5.4Z"/><path class="cls-1" d="m62.6,24.5c0,3-1.1,5.7-3.2,7.9-2.2,2.3-5.3,3.4-9.5,3.4s-7.3-1.1-9.5-3.4c-2.2-2.2-3.3-4.9-3.3-8s1.1-5.7,3.3-8.1c2.2-2.4,5.3-3.5,9.5-3.5s7.2,1.2,9.4,3.5c2.2,2.4,3.3,5.1,3.3,8.2Zm-8.7,0c0-3.1-.3-5.4-.8-6.9-.5-1.6-1.6-2.3-3.2-2.3s-2.7.8-3.2,2.4-.8,3.9-.8,6.9.3,5.4.8,6.9,1.6,2.2,3.2,2.2,2.7-.7,3.2-2.2c.5-1.7.8-4,.8-7Z"/><path class="cls-1" d="m79.6,34c0,.2,0,.4-.1.7s-.2.4-.3.4c-1,0-2.2-.1-3.7-.2s-2.8-.2-3.9-.2-2.3.1-3.6.2-2.4.2-3.4.2c-.1,0-.2-.1-.3-.4s-.1-.5-.1-.7,0-.4.1-.6c.1-.3.2-.4.3-.4,1.2-.1,2-.5,2.5-1s.7-1.5.7-3.1V9.1c0-1.3-.2-2.1-.7-2.5s-1.3-.7-2.5-.8c-.1,0-.2-.2-.3-.4-.1-.2-.1-.4-.1-.6s0-.4.1-.6c.1-.2.2-.4.3-.4,1.5-.4,3.2-.9,5.1-1.6,1.8-.7,3.4-1.3,4.6-1.9.1-.1.3-.1.5-.2.2-.1.4-.1.6-.1.4,0,.7.1.8.2.2.1.2.3.2.4-.1,1.1-.1,2.5-.2,4.1s-.1,3-.1,4v20.2c0,1.5.3,2.5.8,3.1.5.5,1.3.9,2.5,1,.1,0,.2.1.3.4s-.1.5-.1.6Z"/><path class="cls-1" d="m95.2,34c0,.2,0,.4-.1.7s-.2.4-.3.4c-1,0-2.2-.1-3.7-.2s-2.8-.2-3.9-.2-2.3.1-3.6.2-2.4.2-3.4.2c-.1,0-.2-.1-.3-.4s-.1-.5-.1-.7,0-.4.1-.6c.1-.3.2-.4.3-.4,1.2-.1,2-.5,2.5-1s.7-1.5.7-3.1V9.1c0-1.3-.2-2.1-.7-2.5s-1.3-.7-2.5-.8c-.1,0-.2-.2-.3-.4-.1-.2-.1-.4-.1-.6s0-.4.1-.6c.1-.2.2-.4.3-.4,1.5-.4,3.2-.9,5.1-1.6,1.8-.7,3.4-1.3,4.6-1.9.1-.1.3-.1.5-.2.2-.1.4-.1.6-.1.4,0,.7.1.8.2.2.1.2.3.2.4-.1,1.1-.1,2.5-.2,4.1s-.1,3-.1,4v20.2c0,1.5.3,2.5.8,3.1.5.5,1.3.9,2.5,1,.1,0,.2.1.3.4s-.1.5-.1.6Z"/><path class="cls-1" d="m121.1,32.8v.2q0,.1-.1.2c-.6.7-1.6,1.3-2.8,1.7-1.3.4-2.6.7-3.9.7s-2.4-.3-3.2-.9-1.4-1.4-1.6-2.4c-.7,1.1-1.7,1.9-2.8,2.5-1.1.5-2.5.8-4.2.8-1.8,0-3.4-.4-4.6-1.2-1.3-.8-1.9-2.1-1.9-3.8,0-1.9,1-3.4,3.1-4.6,2.1-1.2,5.6-2.3,10.5-3.4l.1-4.7c0-1-.1-1.6-.4-2-.3-.3-.8-.5-1.4-.5s-1.3.1-1.8.4c-.6.3-.9.8-.9,1.6-.2,2-.6,3.4-1.2,4.1-.7.8-1.7,1.2-3,1.2-1.2,0-2.1-.3-2.7-1-.6-.7-.9-1.5-.9-2.5,0-1.6,1.3-3.1,3.9-4.4,2.6-1.3,5.5-2,8.8-2,2.9,0,5,.7,6,2.2,1.1,1.5,1.6,3.5,1.5,6l-.2,8.4c-.1,1.1.1,1.8.5,2.2.4.3.8.5,1.1.5s.6,0,.8-.1c.3-.1.5-.2.7-.4.1-.1.3,0,.6.4s0,.5,0,.8Zm-11.8-8.5c-1.9.4-3.2,1.1-4.1,1.8-.8.8-1.2,1.9-1.2,3.3,0,.8.2,1.4.6,1.9s1,.7,1.8.7c.6,0,1.2-.2,1.8-.6.5-.4.9-1.2,1-2.3l.1-4.8Z"/><path class="cls-1" d="m147.5,16.8c0,.4-.1.7-.2,1.1-.1.4-.3.6-.5.6l-3.6-.1c.1.3.2.6.3.9.1.3.1.7.1,1.2,0,2.4-.9,4.3-2.7,5.8s-4.5,2.2-7.9,2.2h-1.2c-.9.1-1.7.3-2.3.7s-.9.8-.9,1.2.1.8.4,1,1,.3,2.2.3l7.1.1c2.6,0,4.5.6,5.7,1.7s1.8,2.5,1.8,4.1c0,3.2-1.6,5.8-4.7,7.7-3.1,1.9-6.7,2.9-10.6,2.9-2.9,0-5.2-.6-6.9-1.8-1.7-1.2-2.6-2.7-2.6-4.3,0-1.3.4-2.4,1.2-3.1s2.1-1.3,3.9-1.7c-1.4-.5-2.4-1.4-3.1-2.6-.7-1.2-1-2.1-1-2.8,0-.8.6-1.6,1.8-2.5s2.6-1.4,4.1-1.7c-1.7-.8-3-1.6-3.8-2.6s-1.3-2.3-1.3-3.9c0-2.2.9-4.1,2.7-5.8s4.4-2.5,7.8-2.5c1.4,0,2.9.2,4.2.5,1.4.4,2.6,1,3.5,1.9l5.8-.1c.2,0,.3.2.5.6.2.3.2.7.2,1Zm-6.1,23.6c0-.6-.2-1-.7-1.2s-1.4-.4-2.7-.4l-5.8-.1c-.5,0-1.1,0-1.9-.1-.8-.1-1.3-.2-1.7-.3-.6.1-1.1.4-1.4.7-.4.4-.5,1-.5,1.8,0,1.2.5,2.2,1.6,2.9,1.1.7,2.6,1.1,4.6,1.1,2.7,0,4.8-.4,6.2-1.2,1.6-.8,2.3-1.9,2.3-3.2Zm-5.4-20c0-1.7-.2-3-.5-3.9s-1-1.3-2.2-1.3-1.9.6-2.2,1.8-.4,2.6-.4,4.2c0,1.7.2,3,.5,3.8s1,1.2,2.2,1.2c1.1,0,1.8-.5,2.2-1.6.3-1,.4-2.4.4-4.2Z"/><path class="cls-1" d="m172.1,22.2c0,.2-.1.4-.2.5-.2.1-.4.2-.7.2h-13.2v1.9c0,2.7.4,4.6,1.3,5.6.9,1.1,2.2,1.6,3.8,1.6,1.2,0,2.4-.3,3.9-.9s2.5-1.3,3.1-2.2c0-.1.1,0,.3.1s.3.2.4.3c.2.2.3.3.4.5.1.2.2.3.2.5v.2c0,.1-.1.1-.1.2-.8,1.2-2,2.3-3.6,3.4s-3.7,1.7-6.3,1.7c-3.4,0-6.3-1.1-8.6-3.3-2.3-2.2-3.5-4.8-3.5-7.8,0-3.4,1.1-6.2,3.3-8.4,2.2-2.2,5.2-3.3,8.8-3.3,3.3,0,6,.9,7.9,2.7,1.9,1.7,2.8,3.9,2.8,6.5Zm-8-3.6c0-1-.2-1.8-.6-2.4-.4-.7-1.1-1-1.9-1-1.1,0-1.8.5-2.4,1.5-.5,1-.8,2.4-1,4l3.9-.1c.7,0,1.2-.2,1.5-.4.4-.2.5-.8.5-1.6Z"/><path class="cls-1" d="m197,16.8c0,1.1-.3,2-1,2.8-.7.7-1.5,1.1-2.6,1.1-.7,0-1.2-.1-1.7-.4-.4-.3-.8-.6-1.1-.9-.3-.3-.6-.6-.9-.9s-.7-.4-1.1-.4c-.7,0-1.2.2-1.6.6-.4.4-.8,1-1.3,1.8v8.5c0,1.5.3,2.5.8,3.1.5.5,1.5.9,2.9,1,.1,0,.2.1.3.4s.1.5.1.7,0,.4-.1.6c-.1.3-.2.4-.3.4-1,0-2.2-.1-3.8-.2s-2.8-.2-4-.2c-1.1,0-2.3.1-3.7.2s-2.6.2-3.6.2c-.1,0-.2-.1-.3-.4s-.1-.5-.1-.6c0-.2,0-.4.1-.7s.2-.4.3-.4c1.4-.2,2.3-.5,2.7-1s.6-1.5.6-3.1v-7.5c0-1.3-.2-2.1-.5-2.5s-1-.7-2.2-.8c-.1,0-.2-.1-.3-.4-.1-.2-.1-.4-.1-.6s0-.4.1-.6c.1-.3.2-.4.3-.4,1.1-.3,2.5-.7,4.4-1.4s3.3-1.3,4.3-1.8c.1-.1.3-.1.5-.2s.4-.1.6-.1c.4,0,.7.1.8.2.2.1.3.3.3.4l-.2,4.6c.7-1.4,1.7-2.5,3-3.5,1.2-.9,2.4-1.4,3.5-1.4,1.6,0,2.8.4,3.7,1.1.7.6,1.2,1.5,1.2,2.7Z"/></svg>