<?xml version="1.0" encoding="UTF-8"?><svg id="Layer_1" xmlns="http://www.w3.org/2000/svg" width="42.17" height="42.17" viewBox="0 0 42.17 42.17"><defs><style>.cls-1{fill:#010101;}.cls-2{fill:#fff;stroke:#231f20;stroke-miterlimit:10;}</style></defs><circle class="cls-2" cx="21.09" cy="21.09" r="20.59"/><path class="cls-1" d="m21.09,36.01l-1.49-1.35c-2.57-2.36-4.7-4.39-6.38-6.1-1.68-1.71-3.01-3.24-4.01-4.59s-1.69-2.57-2.1-3.66c-.4-1.09-.6-2.2-.6-3.32,0-2.19.73-4.01,2.2-5.48,1.47-1.47,3.29-2.2,5.45-2.2,1.38,0,2.67.33,3.84.98,1.18.66,2.2,1.6,3.08,2.84,1.02-1.31,2.1-2.28,3.24-2.9,1.14-.62,2.37-.93,3.68-.93,2.16,0,3.98.73,5.45,2.2,1.47,1.47,2.2,3.3,2.2,5.48,0,1.12-.2,2.22-.6,3.32-.4,1.09-1.1,2.31-2.1,3.66-1,1.35-2.33,2.88-4.01,4.59-1.68,1.71-3.8,3.75-6.38,6.1l-1.49,1.35Zm0-2.88c2.45-2.26,4.48-4.2,6.07-5.81,1.59-1.62,2.85-3.03,3.79-4.24s1.59-2.3,1.97-3.24c.38-.95.56-1.89.56-2.84,0-1.6-.51-2.92-1.53-3.95-1.02-1.03-2.33-1.55-3.94-1.55-1.24,0-2.39.38-3.46,1.15s-1.93,1.84-2.59,3.22h-1.79c-.63-1.36-1.48-2.43-2.55-3.21-1.07-.78-2.22-1.17-3.46-1.17-1.6,0-2.91.52-3.94,1.55-1.02,1.03-1.53,2.35-1.53,3.95,0,.95.19,1.9.56,2.86.38.96,1.03,2.05,1.97,3.28.94,1.23,2.2,2.64,3.81,4.24,1.6,1.6,3.62,3.52,6.05,5.76Z"/></svg>