<?xml version="1.0" encoding="utf-8"?>
<!-- Generator: Adobe Illustrator 26.5.0, SVG Export Plug-In . SVG Version: 6.00 Build 0)  -->
<svg version="1.1" id="Layer_1" xmlns="http://www.w3.org/2000/svg" xmlns:xlink="http://www.w3.org/1999/xlink" x="0px" y="0px"
	 viewBox="0 0 388.7 565" style="enable-background:new 0 0 388.7 565;" xml:space="preserve">
<style type="text/css">
	.st0{opacity:0.26;}
	.st1{fill:#C1C1C1;}
	.st2{fill:#C9B293;}
	.st3{fill:none;}
	.st4{clip-path:url(#SVGID_00000101105557438449739790000015910805642453402766_);}
	.st5{fill:#CD373E;}
	.st6{clip-path:url(#SVGID_00000111178478748255629170000014264907661613045928_);}
	.st7{fill:none;stroke:#000000;stroke-miterlimit:10;}
	.st8{clip-path:url(#SVGID_00000165935623472236011680000004022372023960425407_);}
	.st9{clip-path:url(#SVGID_00000134944922191676199060000004546370225737721533_);}
	.st10{clip-path:url(#SVGID_00000116931136659528168600000007726411734589689784_);}
	.st11{clip-path:url(#SVGID_00000103223528706330769290000015422184794926583436_);}
	.st12{clip-path:url(#SVGID_00000077318302838965607390000006099010426874018742_);}
	.st13{clip-path:url(#SVGID_00000096778397867584611380000008486981928841504690_);}
	.st14{clip-path:url(#SVGID_00000135692602149046449130000002811040352894133679_);}
	.st15{clip-path:url(#SVGID_00000053526662675868740610000014740205002302816648_);}
	.st16{clip-path:url(#SVGID_00000042013645155481329160000018265444803028897975_);}
	.st17{clip-path:url(#SVGID_00000045579487294363145830000002098652903543735968_);}
	.st18{clip-path:url(#SVGID_00000150062764866147677390000006557263356904626099_);}
	.st19{clip-path:url(#SVGID_00000000905251749076858100000015024296573798532999_);}
	.st20{clip-path:url(#SVGID_00000130623627611057626630000012077132979212067262_);}
	.st21{clip-path:url(#SVGID_00000160871823833854077410000015358242057215948983_);}
	.st22{clip-path:url(#SVGID_00000060712279352815820240000000814449508841931938_);}
	.st23{fill:#FFF9B8;}
	.st24{clip-path:url(#SVGID_00000155136752763721525820000011662946664827516060_);}
	.st25{clip-path:url(#SVGID_00000088121622799042461690000005315945155042086550_);}
	.st26{clip-path:url(#SVGID_00000067221030297776945650000013854713546029291190_);}
	.st27{clip-path:url(#SVGID_00000012448994858680832770000018331676686037268897_);}
	.st28{clip-path:url(#SVGID_00000149349760936251083500000000935651256913295248_);}
	.st29{clip-path:url(#SVGID_00000111171402254072859920000015508971482302711712_);}
	.st30{clip-path:url(#SVGID_00000076595928148088411660000004792049758063825334_);}
	.st31{clip-path:url(#SVGID_00000129902514593580321450000005094935504721421445_);}
	.st32{clip-path:url(#SVGID_00000174564756490740155640000013131605008601220743_);}
	.st33{clip-path:url(#SVGID_00000172428681690140637500000012051720696397060285_);}
	.st34{clip-path:url(#SVGID_00000128459714206412848460000001461288987766303365_);}
	.st35{clip-path:url(#SVGID_00000001623591471439726190000016358864602021099914_);}
	.st36{clip-path:url(#SVGID_00000080924404123811356740000016308151059774015125_);}
	.st37{fill:#FBD9E8;fill-opacity:0;}
	.st38{clip-path:url(#SVGID_00000178901543049849644540000011675439205912950405_);}
	.st39{clip-path:url(#SVGID_00000166672763814542252520000003655847125673060791_);}
	.st40{clip-path:url(#SVGID_00000130622343195653876460000012947174385821770663_);}
	.st41{clip-path:url(#SVGID_00000085213614756271301130000007050081384137055399_);}
	.st42{clip-path:url(#SVGID_00000036943004720790154500000017383889769551396750_);}
	.st43{clip-path:url(#SVGID_00000149371741075030646680000015981404502633149616_);}
	.st44{clip-path:url(#SVGID_00000042695950808493307180000006768591620523549609_);}
	.st45{clip-path:url(#SVGID_00000026866913737925584440000002808378688867243681_);}
	.st46{clip-path:url(#SVGID_00000021832277705386085160000014422026579837695656_);}
	.st47{fill:#F1BDAB;}
	.st48{font-family:'Gruppo';}
	.st49{font-size:36px;}
</style>
<g>
	<g class="st0">
		<rect x="42.5" y="36" class="st1" width="302.6" height="479.9"/>
		<rect x="51" y="42.5" class="st1" width="285.6" height="472.5"/>
	</g>
	<rect x="42" y="67.3" class="st2" width="303.8" height="447.6"/>
	<rect x="42" y="7" class="st3" width="303.8" height="507.9"/>
	<rect x="42" y="7" class="st3" width="303.8" height="507.9"/>
	<rect x="42" y="7" class="st3" width="303.8" height="507.9"/>
	<g>
		<g>
			<defs>
				<rect id="SVGID_1_" x="42" y="7" width="303.8" height="507.9"/>
			</defs>
			<clipPath id="SVGID_00000093863399541898418250000006462035386195592894_">
				<use xlink:href="#SVGID_1_"  style="overflow:visible;"/>
			</clipPath>
			<g style="clip-path:url(#SVGID_00000093863399541898418250000006462035386195592894_);">
				<path class="st5" d="M224.5,203.3c0,0-7,29.4-24.5,18.1c-17.4-11.3-11.6,0.4-27.5-35.4L224.5,203.3z"/>
			</g>
		</g>
	</g>
	<g>
		<g>
			<defs>
				<rect id="SVGID_00000091712749099361217850000000874045907971194800_" x="42" y="7" width="303.8" height="507.9"/>
			</defs>
			<clipPath id="SVGID_00000158730924255841285730000002220254070931750067_">
				<use xlink:href="#SVGID_00000091712749099361217850000000874045907971194800_"  style="overflow:visible;"/>
			</clipPath>
			<g style="clip-path:url(#SVGID_00000158730924255841285730000002220254070931750067_);">
				<path class="st7" d="M224.5,203.3c0,0-7,29.4-24.5,18.1c-17.4-11.3-11.6,0.4-27.5-35.4L224.5,203.3z"/>
			</g>
		</g>
	</g>
	<g>
		<g>
			<defs>
				<rect id="SVGID_00000158016044425829794980000000365617445357317267_" x="42" y="7" width="303.8" height="507.9"/>
			</defs>
			<clipPath id="SVGID_00000023986749461605781770000014673524294478958985_">
				<use xlink:href="#SVGID_00000158016044425829794980000000365617445357317267_"  style="overflow:visible;"/>
			</clipPath>
			<g style="clip-path:url(#SVGID_00000023986749461605781770000014673524294478958985_);">
				<path class="st5" d="M160.1,175c0,0-12.6-14.6-3.3-19.5c9.2-5-1.3-1.2,10.9,0c12.1,1.2,30.5-12.9,30.5-12.9s-6.7,17.1-5.4,16.2
					S167.6,178.7,160.1,175"/>
			</g>
		</g>
	</g>
	<g>
		<g>
			<defs>
				<rect id="SVGID_00000048478125062547044690000015216581973766030469_" x="42" y="7" width="303.8" height="507.9"/>
			</defs>
			<clipPath id="SVGID_00000029727196843667471350000010541054642551382684_">
				<use xlink:href="#SVGID_00000048478125062547044690000015216581973766030469_"  style="overflow:visible;"/>
			</clipPath>
			<g style="clip-path:url(#SVGID_00000029727196843667471350000010541054642551382684_);">
				<path class="st7" d="M160.1,175c0,0-12.6-14.6-3.3-19.5c9.2-5-1.3-1.2,10.9,0c12.1,1.2,30.5-12.9,30.5-12.9s-6.7,17.1-5.4,16.2
					S167.6,178.7,160.1,175z"/>
			</g>
		</g>
	</g>
	<g>
		<g>
			<defs>
				<rect id="SVGID_00000152225184451908629890000008938076967671901336_" x="42" y="7" width="303.8" height="507.9"/>
			</defs>
			<clipPath id="SVGID_00000106830399915351934830000013506577746734268073_">
				<use xlink:href="#SVGID_00000152225184451908629890000008938076967671901336_"  style="overflow:visible;"/>
			</clipPath>
			<g style="clip-path:url(#SVGID_00000106830399915351934830000013506577746734268073_);">
				<path class="st5" d="M180.4,147.1l-1.7-9.2c0,0,11.2-4.6,9.1-9.6C185.8,123.4,203.6,139.2,180.4,147.1"/>
			</g>
		</g>
	</g>
	<g>
		<g>
			<defs>
				<rect id="SVGID_00000054982355459197138380000004461677073748621501_" x="42" y="7" width="303.8" height="507.9"/>
			</defs>
			<clipPath id="SVGID_00000088134092059881263070000006047988114449252247_">
				<use xlink:href="#SVGID_00000054982355459197138380000004461677073748621501_"  style="overflow:visible;"/>
			</clipPath>
			<g style="clip-path:url(#SVGID_00000088134092059881263070000006047988114449252247_);">
				<path class="st7" d="M180.4,147.1l-1.7-9.2c0,0,11.2-4.6,9.1-9.6C185.8,123.4,203.6,139.2,180.4,147.1L180.4,147.1z"/>
			</g>
		</g>
	</g>
	<g>
		<g>
			<defs>
				<rect id="SVGID_00000165233823903797475130000017910805943764546990_" x="42" y="7" width="303.8" height="507.9"/>
			</defs>
			<clipPath id="SVGID_00000047782536850897455070000001136242565099217040_">
				<use xlink:href="#SVGID_00000165233823903797475130000017910805943764546990_"  style="overflow:visible;"/>
			</clipPath>
			<g style="clip-path:url(#SVGID_00000047782536850897455070000001136242565099217040_);">
				<path class="st5" d="M178.6,137.8c21.5-16.8-9.1-7.4-9.1-7.4L178.6,137.8z"/>
			</g>
		</g>
	</g>
	<g>
		<g>
			<defs>
				<rect id="SVGID_00000098188369991573144940000003991193138391881140_" x="42" y="7" width="303.8" height="507.9"/>
			</defs>
			<clipPath id="SVGID_00000079454068322169036350000002374462480311216050_">
				<use xlink:href="#SVGID_00000098188369991573144940000003991193138391881140_"  style="overflow:visible;"/>
			</clipPath>
			<g style="clip-path:url(#SVGID_00000079454068322169036350000002374462480311216050_);">
				<path class="st7" d="M178.6,137.8c21.5-16.8-9.1-7.4-9.1-7.4L178.6,137.8z"/>
			</g>
		</g>
	</g>
	<g>
		<g>
			<defs>
				<rect id="SVGID_00000119096681293647277260000007834460745823855004_" x="42" y="7" width="303.8" height="507.9"/>
			</defs>
			<clipPath id="SVGID_00000026145878081886189830000000232581046682820761_">
				<use xlink:href="#SVGID_00000119096681293647277260000007834460745823855004_"  style="overflow:visible;"/>
			</clipPath>
			<g style="clip-path:url(#SVGID_00000026145878081886189830000000232581046682820761_);">
				<path class="st5" d="M165.3,145.4c-32.3,3.3-5-17.6-5-17.6L165.3,145.4z"/>
			</g>
		</g>
	</g>
	<g>
		<g>
			<defs>
				<rect id="SVGID_00000052090695240610148080000013780706635419697596_" x="42" y="7" width="303.8" height="507.9"/>
			</defs>
			<clipPath id="SVGID_00000096035663605022226360000017816266867514044570_">
				<use xlink:href="#SVGID_00000052090695240610148080000013780706635419697596_"  style="overflow:visible;"/>
			</clipPath>
			<g style="clip-path:url(#SVGID_00000096035663605022226360000017816266867514044570_);">
				<path class="st7" d="M165.3,145.4c-32.3,3.3-5-17.6-5-17.6L165.3,145.4z"/>
			</g>
		</g>
	</g>
	<g>
		<g>
			<defs>
				<rect id="SVGID_00000153676915414643669840000002220855353086464683_" x="42" y="7" width="303.8" height="507.9"/>
			</defs>
			<clipPath id="SVGID_00000183231155564764476870000006483154800334770875_">
				<use xlink:href="#SVGID_00000153676915414643669840000002220855353086464683_"  style="overflow:visible;"/>
			</clipPath>
			<g style="clip-path:url(#SVGID_00000183231155564764476870000006483154800334770875_);">
				<path class="st5" d="M145.6,151c0,0,17.6,15-8.4,5.4c-25.9-9.6,3.8-23.5,3.8-23.5L145.6,151z"/>
			</g>
		</g>
	</g>
	<g>
		<g>
			<defs>
				<rect id="SVGID_00000109017627259701802620000000054235684764959647_" x="42" y="7" width="303.8" height="507.9"/>
			</defs>
			<clipPath id="SVGID_00000174583067733689535600000003276552603200502953_">
				<use xlink:href="#SVGID_00000109017627259701802620000000054235684764959647_"  style="overflow:visible;"/>
			</clipPath>
			<g style="clip-path:url(#SVGID_00000174583067733689535600000003276552603200502953_);">
				<path class="st7" d="M145.6,151c0,0,17.6,15-8.4,5.4c-25.9-9.6,3.8-23.5,3.8-23.5L145.6,151z"/>
			</g>
		</g>
	</g>
	<g>
		<g>
			<defs>
				<rect id="SVGID_00000039848137034737089150000001388982822609646260_" x="42" y="7" width="303.8" height="507.9"/>
			</defs>
			<clipPath id="SVGID_00000110465313779772465240000002957876689745710482_">
				<use xlink:href="#SVGID_00000039848137034737089150000001388982822609646260_"  style="overflow:visible;"/>
			</clipPath>
			<g style="clip-path:url(#SVGID_00000110465313779772465240000002957876689745710482_);">
				<path class="st5" d="M113.2,159c0,0,8,0.6,13.5,18.2c5.6,17.6,30.4,7.1,30.4,7.1s-21.1-11.7-16.2-16.7
					C146,162.5,124,154.2,113.2,159"/>
			</g>
		</g>
	</g>
	<g>
		<g>
			<defs>
				<rect id="SVGID_00000066489492520063518030000017730587573581807001_" x="42" y="7" width="303.8" height="507.9"/>
			</defs>
			<clipPath id="SVGID_00000037675992190219732700000004062490262607534512_">
				<use xlink:href="#SVGID_00000066489492520063518030000017730587573581807001_"  style="overflow:visible;"/>
			</clipPath>
			<g style="clip-path:url(#SVGID_00000037675992190219732700000004062490262607534512_);">
				<path class="st7" d="M113.2,159c0,0,8,0.6,13.5,18.2c5.6,17.6,30.4,7.1,30.4,7.1s-21.1-11.7-16.2-16.7
					C146,162.5,124,154.2,113.2,159z"/>
			</g>
		</g>
	</g>
	<g>
		<g>
			<defs>
				<rect id="SVGID_00000182489654797832713940000012330608261083464877_" x="42" y="7" width="303.8" height="507.9"/>
			</defs>
			<clipPath id="SVGID_00000182507808583416453340000009066821413558026931_">
				<use xlink:href="#SVGID_00000182489654797832713940000012330608261083464877_"  style="overflow:visible;"/>
			</clipPath>
			<g style="clip-path:url(#SVGID_00000182507808583416453340000009066821413558026931_);">
				<path class="st5" d="M172.1,200.1c0,0-2.1-9.2-10.9-5.4c-8.8,3.8-18.9,10.4-23.9,11.3c-5,0.8,8.7,8.3,14.2,6.7
					C157,210.9,172.1,200.1,172.1,200.1"/>
			</g>
		</g>
	</g>
	<g>
		<g>
			<defs>
				<rect id="SVGID_00000094586290459871868540000008208207249934670746_" x="42" y="7" width="303.8" height="507.9"/>
			</defs>
			<clipPath id="SVGID_00000083772973143038853040000013164632558058524816_">
				<use xlink:href="#SVGID_00000094586290459871868540000008208207249934670746_"  style="overflow:visible;"/>
			</clipPath>
			<g style="clip-path:url(#SVGID_00000083772973143038853040000013164632558058524816_);">
				<path class="st7" d="M172.1,200.1c0,0-2.1-9.2-10.9-5.4c-8.8,3.8-18.9,10.4-23.9,11.3c-5,0.8,8.7,8.3,14.2,6.7
					C157,210.9,172.1,200.1,172.1,200.1z"/>
			</g>
		</g>
	</g>
	<g>
		<g>
			<defs>
				<rect id="SVGID_00000055669990615544442020000010949800262207198599_" x="42" y="7" width="303.8" height="507.9"/>
			</defs>
			<clipPath id="SVGID_00000178916983842180899030000003627806952359931835_">
				<use xlink:href="#SVGID_00000055669990615544442020000010949800262207198599_"  style="overflow:visible;"/>
			</clipPath>
			<g style="clip-path:url(#SVGID_00000178916983842180899030000003627806952359931835_);">
				<path class="st23" d="M176.8,187.4c0,0,16.4,26.6,46.1,15.2"/>
			</g>
		</g>
	</g>
	<g>
		<g>
			<defs>
				<rect id="SVGID_00000121248154204109755830000012072906677765112237_" x="42" y="7" width="303.8" height="507.9"/>
			</defs>
			<clipPath id="SVGID_00000156568356701659844450000009304878223142117526_">
				<use xlink:href="#SVGID_00000121248154204109755830000012072906677765112237_"  style="overflow:visible;"/>
			</clipPath>
			<g style="clip-path:url(#SVGID_00000156568356701659844450000009304878223142117526_);">
				<path class="st7" d="M176.8,187.4c0,0,16.4,26.6,46.1,15.2"/>
			</g>
		</g>
	</g>
	<g>
		<g>
			<defs>
				<rect id="SVGID_00000170959003087170171100000017588377612739351953_" x="42" y="7" width="303.8" height="507.9"/>
			</defs>
			<clipPath id="SVGID_00000031885542345995933400000016075530085052422331_">
				<use xlink:href="#SVGID_00000170959003087170171100000017588377612739351953_"  style="overflow:visible;"/>
			</clipPath>
			<g style="clip-path:url(#SVGID_00000031885542345995933400000016075530085052422331_);">
				<path class="st5" d="M185.8,172.3c0,0,2.8-4.1,6.9-4.1s8.8,0.9,16.7-10.8c8-11.8,15.1-11,15.1-11s6.7,6.5,3.1,13.4
					c-3.6,6.8-16.2,5.8-16.2,5.8l-7,6.8l-20.5,3.2L185.8,172.3L185.8,172.3z"/>
			</g>
		</g>
	</g>
	<g>
		<g>
			<defs>
				<rect id="SVGID_00000029011252314697599720000006853311129212964245_" x="42" y="7" width="303.8" height="507.9"/>
			</defs>
			<clipPath id="SVGID_00000005247941505245730060000017675481509444289464_">
				<use xlink:href="#SVGID_00000029011252314697599720000006853311129212964245_"  style="overflow:visible;"/>
			</clipPath>
			<g style="clip-path:url(#SVGID_00000005247941505245730060000017675481509444289464_);">
				<path class="st7" d="M185.8,172.3c0,0,2.8-4.1,6.9-4.1s8.8,0.9,16.7-10.8c8-11.8,15.1-11,15.1-11s6.7,6.5,3.1,13.4
					c-3.6,6.8-16.2,5.8-16.2,5.8l-7,6.8l-20.5,3.2L185.8,172.3L185.8,172.3z"/>
			</g>
		</g>
	</g>
	<g>
		<g>
			<defs>
				<rect id="SVGID_00000028312980703913859630000009616284728246024860_" x="42" y="7" width="303.8" height="507.9"/>
			</defs>
			<clipPath id="SVGID_00000183933959997338325890000001906732953994247556_">
				<use xlink:href="#SVGID_00000028312980703913859630000009616284728246024860_"  style="overflow:visible;"/>
			</clipPath>
			<g style="clip-path:url(#SVGID_00000183933959997338325890000001906732953994247556_);">
				<path class="st5" d="M199,127.7c0,0,28-4,25.5,2.7s-0.6,12.1-14.8,16.7C195.4,151.8,229,136.7,199,127.7"/>
			</g>
		</g>
	</g>
	<g>
		<g>
			<defs>
				<rect id="SVGID_00000125601910723340152250000011278236781581652108_" x="42" y="7" width="303.8" height="507.9"/>
			</defs>
			<clipPath id="SVGID_00000163761941031209597820000007064742414260137653_">
				<use xlink:href="#SVGID_00000125601910723340152250000011278236781581652108_"  style="overflow:visible;"/>
			</clipPath>
			<g style="clip-path:url(#SVGID_00000163761941031209597820000007064742414260137653_);">
				<path class="st7" d="M199,127.7c0,0,28-4,25.5,2.7s-0.6,12.1-14.8,16.7C195.4,151.8,229,136.7,199,127.7z"/>
			</g>
		</g>
	</g>
	<g>
		<g>
			<defs>
				<rect id="SVGID_00000031899426047518452060000006848504874811962013_" x="42" y="7" width="303.8" height="507.9"/>
			</defs>
			<clipPath id="SVGID_00000140694767678615086090000008708400718170990211_">
				<use xlink:href="#SVGID_00000031899426047518452060000006848504874811962013_"  style="overflow:visible;"/>
			</clipPath>
			<g style="clip-path:url(#SVGID_00000140694767678615086090000008708400718170990211_);">
				<path class="st5" d="M172.4,109.3c8.8-5,15.4-2.9,22.1,2.1s16.6,7.1,16.6,7.1s-10.3,5-18.6,5s-6.3-10.4-13.8-5.8
					s-20.9,2.5-20.9,2.5L172.4,109.3z"/>
			</g>
		</g>
	</g>
	<g>
		<g>
			<defs>
				<rect id="SVGID_00000180350125955805927480000006781391037981810097_" x="42" y="7" width="303.8" height="507.9"/>
			</defs>
			<clipPath id="SVGID_00000162344946579162395570000017700228101950798735_">
				<use xlink:href="#SVGID_00000180350125955805927480000006781391037981810097_"  style="overflow:visible;"/>
			</clipPath>
			<g style="clip-path:url(#SVGID_00000162344946579162395570000017700228101950798735_);">
				<path class="st7" d="M172.4,109.3c8.8-5,15.4-2.9,22.1,2.1s16.6,7.1,16.6,7.1s-10.3,5-18.6,5s-6.3-10.4-13.8-5.8
					s-20.9,2.5-20.9,2.5L172.4,109.3z"/>
			</g>
		</g>
	</g>
	<g>
		<g>
			<defs>
				<rect id="SVGID_00000085229141799742730920000000973498577806284429_" x="42" y="7" width="303.8" height="507.9"/>
			</defs>
			<clipPath id="SVGID_00000028302629863964266220000004664234334733644202_">
				<use xlink:href="#SVGID_00000085229141799742730920000000973498577806284429_"  style="overflow:visible;"/>
			</clipPath>
			<g style="clip-path:url(#SVGID_00000028302629863964266220000004664234334733644202_);">
				<path class="st5" d="M192.9,106.4c0,0,9.1-3.7,11.6,0s6.2-0.4,15.8,8.5s4.1,6.8,4.3,8.5c0.3,1.7-9.2-8.7-13-9.3
					S192.9,106.4,192.9,106.4"/>
			</g>
		</g>
	</g>
	<g>
		<g>
			<defs>
				<rect id="SVGID_00000162312741427200329960000006394736894647889812_" x="42" y="7" width="303.8" height="507.9"/>
			</defs>
			<clipPath id="SVGID_00000068648402746635963940000010470136547960708752_">
				<use xlink:href="#SVGID_00000162312741427200329960000006394736894647889812_"  style="overflow:visible;"/>
			</clipPath>
			<g style="clip-path:url(#SVGID_00000068648402746635963940000010470136547960708752_);">
				<path class="st7" d="M192.9,106.4c0,0,9.1-3.7,11.6,0s6.2-0.4,15.8,8.5s4.1,6.8,4.3,8.5c0.3,1.7-9.2-8.7-13-9.3
					S192.9,106.4,192.9,106.4L192.9,106.4z"/>
			</g>
		</g>
	</g>
	<g>
		<g>
			<defs>
				<rect id="SVGID_00000066485549261856878200000007994254244971426743_" x="42" y="7" width="303.8" height="507.9"/>
			</defs>
			<clipPath id="SVGID_00000063635131235857778230000016837456412899020197_">
				<use xlink:href="#SVGID_00000066485549261856878200000007994254244971426743_"  style="overflow:visible;"/>
			</clipPath>
			<g style="clip-path:url(#SVGID_00000063635131235857778230000016837456412899020197_);">
				<path class="st5" d="M218.7,109.8c0,0,24.3-6.3,16.7,12.1c-7.5,18.4-6.7,12.5-6.7,12.5S230.4,106.8,218.7,109.8"/>
			</g>
		</g>
	</g>
	<g>
		<g>
			<defs>
				<rect id="SVGID_00000062178848303427533750000015941743684714418111_" x="42" y="7" width="303.8" height="507.9"/>
			</defs>
			<clipPath id="SVGID_00000130626001175497296820000013744756374873718160_">
				<use xlink:href="#SVGID_00000062178848303427533750000015941743684714418111_"  style="overflow:visible;"/>
			</clipPath>
			<g style="clip-path:url(#SVGID_00000130626001175497296820000013744756374873718160_);">
				<path class="st7" d="M218.7,109.8c0,0,24.3-6.3,16.7,12.1c-7.5,18.4-6.7,12.5-6.7,12.5S230.4,106.8,218.7,109.8z"/>
			</g>
		</g>
	</g>
	<g>
		<g>
			<defs>
				<rect id="SVGID_00000152953512919553739550000011887054191861067425_" x="42" y="7" width="303.8" height="507.9"/>
			</defs>
			<clipPath id="SVGID_00000008862575193188885400000003471406519662645663_">
				<use xlink:href="#SVGID_00000152953512919553739550000011887054191861067425_"  style="overflow:visible;"/>
			</clipPath>
			<g style="clip-path:url(#SVGID_00000008862575193188885400000003471406519662645663_);">
				<path class="st5" d="M233.2,163c0,0,26.7-22.5,27.6-27.6c0.8-5.1-5.8-15.9-10.9-18c-5-2.1-12.8,15.4-12.8,15.4L233.2,163
					L233.2,163z"/>
			</g>
		</g>
	</g>
	<g>
		<g>
			<defs>
				<rect id="SVGID_00000031923607835096828210000008353892521460525960_" x="42" y="7" width="303.8" height="507.9"/>
			</defs>
			<clipPath id="SVGID_00000034086150630461733950000007700878695644548003_">
				<use xlink:href="#SVGID_00000031923607835096828210000008353892521460525960_"  style="overflow:visible;"/>
			</clipPath>
			<g style="clip-path:url(#SVGID_00000034086150630461733950000007700878695644548003_);">
				<path class="st7" d="M233.2,163c0,0,26.7-22.5,27.6-27.6c0.8-5.1-5.8-15.9-10.9-18c-5-2.1-12.8,15.4-12.8,15.4L233.2,163
					L233.2,163z"/>
			</g>
		</g>
	</g>
	<rect x="42" y="17.5" class="st3" width="303.8" height="507.9"/>
	<g>
		<path class="st37" d="M193.9,471.6c37.1,0,67.2-30.1,67.2-67.2s-30.1-67.2-67.2-67.2s-67.2,30.1-67.2,67.2
			S156.8,471.6,193.9,471.6"/>
		<g>
			<g>
				<defs>
					<circle id="SVGID_00000074399573379571943060000003253641308042040246_" cx="193.9" cy="391.3" r="81.9"/>
				</defs>
				<clipPath id="SVGID_00000133510074667440063870000015595390007906142648_">
					<use xlink:href="#SVGID_00000074399573379571943060000003253641308042040246_"  style="overflow:visible;"/>
				</clipPath>
				<g style="clip-path:url(#SVGID_00000133510074667440063870000015595390007906142648_);">
					
						<image style="overflow:visible;enable-background:new    ;" width="4020" height="3019" xlink:href="E1D8E09CC274C4F3.jpeg"  transform="matrix(6.015036e-02 0 0 6.015036e-02 73.2978 304.093)">
					</image>
				</g>
			</g>
		</g>
	</g>
	<g>
		<g>
			<defs>
				<rect id="SVGID_00000052089068805504292750000014646890364460441502_" x="42" y="7" width="303.8" height="507.9"/>
			</defs>
			<clipPath id="SVGID_00000015342531826123946790000010284778421043302810_">
				<use xlink:href="#SVGID_00000052089068805504292750000014646890364460441502_"  style="overflow:visible;"/>
			</clipPath>
			<g style="clip-path:url(#SVGID_00000015342531826123946790000010284778421043302810_);">
				<path class="st5" d="M249.8,165.8c-2.4,19.6-6.3,18.2-14.7,30.7s-31.8-14.2-31.8-14.2L249.8,165.8z"/>
			</g>
		</g>
	</g>
	<g>
		<g>
			<defs>
				<rect id="SVGID_00000133506267142334351550000012013778649359776421_" x="42" y="7" width="303.8" height="507.9"/>
			</defs>
			<clipPath id="SVGID_00000106869325383969907490000013794049818837643416_">
				<use xlink:href="#SVGID_00000133506267142334351550000012013778649359776421_"  style="overflow:visible;"/>
			</clipPath>
			<g style="clip-path:url(#SVGID_00000106869325383969907490000013794049818837643416_);">
				<path class="st7" d="M249.8,165.8c-2.4,19.6-6.3,18.2-14.7,30.7s-31.8-14.2-31.8-14.2L249.8,165.8z"/>
			</g>
		</g>
	</g>
	<g>
		<g>
			<defs>
				<rect id="SVGID_00000142885790077850732910000015343915470988676777_" x="42" y="7" width="303.8" height="507.9"/>
			</defs>
			<clipPath id="SVGID_00000078047226583477432040000018430004136333830037_">
				<use xlink:href="#SVGID_00000142885790077850732910000015343915470988676777_"  style="overflow:visible;"/>
			</clipPath>
			<g style="clip-path:url(#SVGID_00000078047226583477432040000018430004136333830037_);">
				<path class="st23" d="M246.5,166.8c-19.5,28.3-38.2,13.6-38.2,13.6"/>
			</g>
		</g>
	</g>
	<g>
		<g>
			<defs>
				<rect id="SVGID_00000170245446829609317980000015505446364875344041_" x="42" y="7" width="303.8" height="507.9"/>
			</defs>
			<clipPath id="SVGID_00000080207696787641557420000010494156607581382023_">
				<use xlink:href="#SVGID_00000170245446829609317980000015505446364875344041_"  style="overflow:visible;"/>
			</clipPath>
			<g style="clip-path:url(#SVGID_00000080207696787641557420000010494156607581382023_);">
				<path class="st7" d="M246.5,166.8c-19.5,28.3-38.2,13.6-38.2,13.6"/>
			</g>
		</g>
	</g>
	<rect x="42" y="7" class="st3" width="303.8" height="507.9"/>
	<g>
		<g>
			<defs>
				<rect id="SVGID_00000133507559430247293140000001452896683705494711_" x="42" y="7" width="303.8" height="507.9"/>
			</defs>
			<clipPath id="SVGID_00000038404667368843307200000006005871610693661325_">
				<use xlink:href="#SVGID_00000133507559430247293140000001452896683705494711_"  style="overflow:visible;"/>
			</clipPath>
			<g style="clip-path:url(#SVGID_00000038404667368843307200000006005871610693661325_);">
				<path d="M195.5,195.8c0,0,2,3.6,2.9,1.5C199.3,195.1,195.5,195.8,195.5,195.8"/>
			</g>
		</g>
	</g>
	<g>
		<g>
			<defs>
				<rect id="SVGID_00000031194090992464416890000000343029483659804837_" x="42" y="7" width="303.8" height="507.9"/>
			</defs>
			<clipPath id="SVGID_00000155120120181860578660000018399051348005258935_">
				<use xlink:href="#SVGID_00000031194090992464416890000000343029483659804837_"  style="overflow:visible;"/>
			</clipPath>
			<g style="clip-path:url(#SVGID_00000155120120181860578660000018399051348005258935_);">
				<path class="st7" d="M195.5,195.8c0,0,2,3.6,2.9,1.5C199.3,195.1,195.5,195.8,195.5,195.8z"/>
			</g>
		</g>
	</g>
	<g>
		<g>
			<defs>
				<rect id="SVGID_00000101809912841932086460000005264416555801072829_" x="42" y="7" width="303.8" height="507.9"/>
			</defs>
			<clipPath id="SVGID_00000178184117285288942040000015077544673549856138_">
				<use xlink:href="#SVGID_00000101809912841932086460000005264416555801072829_"  style="overflow:visible;"/>
			</clipPath>
			<g style="clip-path:url(#SVGID_00000178184117285288942040000015077544673549856138_);">
				<path class="st7" d="M228.6,174.9c0,0-4.2,0.1-2.7,1.9S228.6,174.9,228.6,174.9z"/>
			</g>
		</g>
	</g>
	<g>
		<g>
			<defs>
				<rect id="SVGID_00000007412028427847578890000017099581253709907647_" x="42" y="7" width="303.8" height="507.9"/>
			</defs>
			<clipPath id="SVGID_00000092443738862315655580000004561043644270421125_">
				<use xlink:href="#SVGID_00000007412028427847578890000017099581253709907647_"  style="overflow:visible;"/>
			</clipPath>
			<g style="clip-path:url(#SVGID_00000092443738862315655580000004561043644270421125_);">
				<path d="M228.6,174.9c0,0-4.2,0.1-2.7,1.9S228.6,174.9,228.6,174.9"/>
			</g>
		</g>
	</g>
	<rect x="135" y="250.5" class="st3" width="133" height="21"/>
	<path class="st47" d="M300.2,281H87.4c-10.4,0-18.9-8.5-18.9-18.9v-2.7c0-10.4,8.5-18.9,18.9-18.9h212.8c10.4,0,18.9,8.5,18.9,18.9
		v2.7C319.1,272.5,310.7,281,300.2,281z"/>
	<rect x="120.5" y="249.9" class="st3" width="147.7" height="28.2"/>
	<text transform="matrix(1 0 0 1 120.4938 269.4585)" class="st48 st49">Craisins</text>
</g>
</svg>
