<?xml version="1.0" encoding="utf-8"?>
<!-- Generator: Adobe Illustrator 26.5.0, SVG Export Plug-In . SVG Version: 6.00 Build 0)  -->
<svg version="1.1" id="Layer_1" xmlns="http://www.w3.org/2000/svg" xmlns:xlink="http://www.w3.org/1999/xlink" x="0px" y="0px"
	 viewBox="0 0 780.1 191.4" style="enable-background:new 0 0 780.1 191.4;" xml:space="preserve">
<style type="text/css">
	.st0{fill:#CD373E;stroke:#000000;stroke-width:0.5;stroke-miterlimit:10;}
	.st1{fill:#AAC0A6;stroke:#000000;stroke-width:0.5;stroke-miterlimit:10;}
	.st2{fill:none;stroke:#000000;stroke-width:0.5;}
	.st3{fill:#FFDF8E;stroke:#000000;stroke-width:0.5;stroke-miterlimit:10;}
	.st4{fill:#FFE7CB;stroke:#000000;stroke-width:0.5;stroke-miterlimit:10;}
	.st5{fill:#F0F7E8;stroke:#000000;stroke-width:0.5;stroke-miterlimit:10;}
	.st6{fill:#FFF8A3;stroke:#000000;stroke-width:0.5;stroke-miterlimit:10;}
	.st7{fill:#F7A3A5;stroke:#000000;stroke-width:0.5;stroke-miterlimit:10;}
	.st8{fill:#F0F7E8;stroke:#000000;stroke-width:0.5;stroke-miterlimit:10.0002;}
	.st9{fill:none;stroke:#000000;stroke-width:0.5;stroke-miterlimit:10;}
	.st10{fill:#ABBFA5;stroke:#000000;stroke-width:0.5;stroke-miterlimit:10.0002;}
	.st11{fill:#ABBFA5;stroke:#000000;stroke-width:0.5;stroke-miterlimit:9.9999;}
	.st12{fill:#638452;stroke:#000000;stroke-width:0.5;stroke-miterlimit:9.9996;}
	.st13{fill:#638452;stroke:#000000;stroke-width:0.5;stroke-miterlimit:10;}
	.st14{fill:#ABBFA5;stroke:#000000;stroke-width:0.5;stroke-miterlimit:9.9997;}
	.st15{fill:#CD373E;stroke:#000000;stroke-miterlimit:10;}
	.st16{fill:#FDF7B9;stroke:#000000;stroke-miterlimit:10;}
</style>
<g>
	<path class="st0" d="M567.6,88.4c5.8,5.4,16.7,3.1,24.2-5.1s8.9-19.2,3-24.5c-5.8-5.4-16.7-3.1-24.2,5.1
		C563.1,72,561.7,83,567.6,88.4"/>
	<path class="st1" d="M587.2,61.7c-2.8,0.4-6.3,1.5-9,1c0.6-3.1,6-3.2,7.1-5.9c0.5-1.3-0.6-3.1-0.8-4.7c-0.2-1.9-0.5-3.9-0.8-5.8
		c0.4,2.8,2.3,6,4.8,7.6c1.9,1.2,2,1.2,4,0.4c1.7-0.7,5.5-1.4,7.4-1c0,1-2,2.3-2.6,3.1c-1.4,1.7-1.2,2,0.4,3.9
		c1,1.1,2.5,2.2,3.6,3.3c0.8,0.8,1.5,1.4,2.5,1.9c1.1,0.6,3.8,1.2,4.1,2.6c-1.2,0.7-3.8-0.5-5.1-0.9c-1.8-0.6-3.4-1.8-5.1-2.5
		c-2.1-0.8-1.3,0.4-2,2.1c-0.4,1.1-1.7,2.7-2.7,3.1c-0.8-1.7,1.1-5.3-0.8-5.8c-1.1-0.3-2.3,1-3.4,0c-1-1,0.3-1.9-0.2-3.3"/>
	<path class="st2" d="M579.8,77.7c0.5-0.3,0.9-0.6,0.8-0.7s-0.5,0-1.1,0.2c-0.5,0.3-0.9,0.6-0.8,0.7C578.8,78.1,579.3,78,579.8,77.7
		z"/>
	<path class="st2" d="M570.5,76.6c0.5-0.3,0.9-0.6,0.8-0.7c-0.1-0.1-0.5,0-1.1,0.2c-0.5,0.3-0.9,0.6-0.8,0.7
		C569.5,77,570,76.9,570.5,76.6z"/>
	<path class="st2" d="M582.4,82.2c0.5-0.3,0.9-0.6,0.8-0.7c-0.1-0.1-0.5,0-1.1,0.2c-0.5,0.3-0.9,0.6-0.8,0.7
		C581.4,82.6,581.9,82.5,582.4,82.2z"/>
	<path class="st2" d="M571.2,82c0.5-0.3,0.9-0.6,0.8-0.7c-0.1-0.1-0.5,0-1.1,0.2c-0.5,0.3-0.9,0.6-0.8,0.7
		C570.2,82.4,570.7,82.3,571.2,82z"/>
	<path class="st2" d="M575.9,83.9c0.5-0.3,0.9-0.6,0.8-0.7c-0.1-0.1-0.5,0-1.1,0.2c-0.5,0.3-0.9,0.6-0.8,0.7
		C574.9,84.3,575.4,84.2,575.9,83.9z"/>
</g>
<g>
	<path class="st3" d="M670.1,140.7c11.7,0,21.2-9.5,21.2-21.2s-9.5-21.2-21.2-21.2s-21.2,9.5-21.2,21.2S658.4,140.7,670.1,140.7"/>
	<polygon class="st4" points="668.6,102.9 666.3,103.9 664,102.9 663.1,105 660.7,105.7 661.8,107.6 660.7,109.5 663.1,110.2 
		664,112.2 666.3,111.3 668.6,112.2 669.4,110.2 671.8,109.5 670.7,107.6 671.8,105.7 669.4,105 	"/>
</g>
<g>
	<path class="st5" d="M242.3,72c-1,0-2-0.1-3,0c-0.4,0-1.1,0.1-1.4,0.3c-0.3,0.3-0.1,0.4-0.3,0.6c-0.7,0.8-1.6,0.9-2.7,0.6
		c-0.5-0.1-1-0.5-1.5-0.7c-0.6-0.2-1-0.3-1.6-0.4c-1.2-0.3-2.4-1.1-3.7-1.1c-0.7,0-0.9,0.2-1.6,0.4c-1.5,0.5-2.4-0.1-3.6-1
		c-1.2-1-2.4-1.6-3.8-2.3c-1.4-0.7-3.4-2.8-5.1-2.3c1.6,0.3,3.7-1.4,5.2-1.7c1.5-0.3,3-0.4,4.5-0.4c0.7,0,1.5,0.6,2.1,0.5
		c0.1-0.4,0.4-0.8,0.5-1.1c0.2-0.9,0.3-1.8,0.5-2.6c0.4-1.7,0.4-3.2,1.7-4.4c-0.1,2.4,0,4.3,1,6.5c0.4,1,0.9,2.5,1.6,3.2
		c0.9,1,0.9,0.4,1.5-0.5c1.7-2.3,4.7-2.7,7.4-3c1-0.1,4.9-0.9,5.2,0.8c-2.2,0.7-4.2,1.8-6.3,2.9c-0.9,0.5-1.5,0.8-0.5,1.4
		c0.4,0,0.8,0.1,1.1,0.5c0.7,0.5,1.5,1.1,2.2,1.6c0.3,0.2,0.6,0.4,0.9,0.7c0.2,0.1,1,0.4,1.1,0.5C244.7,72.1,242.7,72,242.3,72"/>
	<ellipse class="st6" cx="229.7" cy="90.6" rx="12.7" ry="19.3"/>
	<line class="st2" x1="236.4" y1="79.4" x2="219.9" y2="90.6"/>
	<line class="st2" x1="221.4" y1="77.6" x2="239.1" y2="91.8"/>
	<line class="st2" x1="221.4" y1="84" x2="239.1" y2="98.2"/>
	<line class="st2" x1="221.4" y1="89.8" x2="239.1" y2="104"/>
	<line class="st2" x1="239.2" y1="91.3" x2="219.8" y2="103.1"/>
	<line class="st2" x1="239.2" y1="84.9" x2="219.8" y2="96.7"/>
</g>
<g>
	<path class="st7" d="M92,135.9c4.3-1.1,6.9-5.5,5.8-9.8c-1.1-4.3-5.4-7-9.7-5.9c-4.3,1.1-6.9,5.5-5.8,9.8S87.7,137,92,135.9"/>
	<path class="st7" d="M112.1,131.5c4.3-1.1,6.9-5.5,5.8-9.8s-5.4-7-9.7-5.9c-4.3,1.1-6.9,5.5-5.8,9.8
		C103.5,129.9,107.8,132.6,112.1,131.5"/>
	<ellipse transform="matrix(0.9698 -0.244 0.244 0.9698 -21.9962 23.4767)" class="st8" cx="83.8" cy="100.5" rx="10.7" ry="5.6"/>
	<line class="st9" x1="91" y1="120.1" x2="94.6" y2="97.1"/>
	<line class="st9" x1="106.7" y1="116.2" x2="94.6" y2="97.1"/>
	<ellipse transform="matrix(0.9698 -0.244 0.244 0.9698 -19.8706 28.2651)" class="st8" cx="104.2" cy="94.3" rx="10.7" ry="5.6"/>
</g>
<path class="st9" d="M350.2,53.9c0,0,51.9-40.9,108.2,0"/>
<ellipse transform="matrix(0.9178 -0.3971 0.3971 0.9178 21.7562 178.465)" class="st10" cx="441.8" cy="36.7" rx="8.2" ry="4.3"/>
<ellipse transform="matrix(0.9178 -0.3971 0.3971 0.9178 20.4451 183.5766)" class="st10" cx="453.5" cy="42.4" rx="8.2" ry="4.3"/>
<ellipse transform="matrix(0.9981 -6.152985e-02 6.152985e-02 0.9981 -2.2923 28.7724)" class="st11" cx="466" cy="51.6" rx="8.2" ry="4.3"/>
<ellipse transform="matrix(0.9916 -0.129 0.129 0.9916 -2.7174 56.66)" class="st12" cx="436" cy="49.3" rx="4.3" ry="8.2"/>
<ellipse transform="matrix(0.9916 -0.129 0.129 0.9916 -3.3815 58.2067)" class="st12" cx="447.6" cy="55.2" rx="4.3" ry="8.2"/>
<ellipse transform="matrix(0.8888 -0.4583 0.4583 0.8888 22.9279 217.6883)" class="st13" cx="460" cy="61.6" rx="4.3" ry="8.2"/>
<ellipse transform="matrix(0.129 -0.9916 0.9916 0.129 276.06 413.6969)" class="st12" cx="373.5" cy="49.7" rx="8.2" ry="4.3"/>
<ellipse transform="matrix(0.129 -0.9916 0.9916 0.129 260.2071 406.1059)" class="st12" cx="361.3" cy="54.9" rx="8.2" ry="4.3"/>
<ellipse transform="matrix(0.4583 -0.8888 0.8888 0.4583 134.1928 342.7378)" class="st13" cx="348.3" cy="61.3" rx="8.2" ry="4.3"/>
<ellipse transform="matrix(0.4528 -0.8916 0.8916 0.4528 169.076 347.9874)" class="st11" cx="368" cy="36.2" rx="4.3" ry="8.2"/>
<ellipse transform="matrix(0.4528 -0.8916 0.8916 0.4528 156.82 339.7602)" class="st11" cx="355.2" cy="42.1" rx="4.3" ry="8.2"/>
<ellipse transform="matrix(0.1228 -0.9924 0.9924 0.1228 251.097 385.0891)" class="st14" cx="343.4" cy="50.5" rx="4.3" ry="8.2"/>
<path class="st15" d="M421.5,134.8c0,0-4.3,18-14.9,11.1s-7.1,0.2-16.8-21.6L421.5,134.8z"/>
<path class="st15" d="M382.4,117.8c0,0-7.7-9-2-12c5.7-3-0.8-0.8,6.7,0s18.7-7.9,18.7-7.9s-4.1,10.5-3.3,10
	C403.1,107.3,387,120.1,382.4,117.8z"/>
<path class="st15" d="M394.7,100.9l-1-5.6c0,0,6.9-2.8,5.6-5.9C398,86.3,409,96,394.7,100.9z"/>
<path class="st15" d="M393.6,95.2c13.3-10.5-5.6-4.6-5.6-4.6L393.6,95.2z"/>
<path class="st15" d="M385.7,99.9c-20,2-3.1-10.9-3.1-10.9L385.7,99.9z"/>
<path class="st15" d="M373.7,103.2c0,0,10.7,9.2-5.1,3.3c-15.8-5.9,2.3-14.4,2.3-14.4L373.7,103.2z"/>
<path class="st15" d="M353.7,107.9c0,0,4.9,0.4,8.3,11.1c3.4,10.7,18.8,4.3,18.8,4.3s-13-7.2-10-10.2S360.4,105,353.7,107.9z"/>
<path class="st15" d="M389.8,132.9c0,0-1.3-5.6-6.7-3.3c-5.4,2.3-11.5,6.4-14.6,6.9s5.3,5.1,8.7,4.1
	C380.6,139.5,389.8,132.9,389.8,132.9z"/>
<path class="st16" d="M392.5,125.2c0,0,10,16.3,28,9.3"/>
<path class="st15" d="M397.9,116.2c0,0,1.7-2.5,4.2-2.5s5.3,0.6,10.2-6.6c4.9-7.2,9.2-6.7,9.2-6.7s4.1,4,1.9,8.2
	c-2.2,4.2-9.9,3.5-9.9,3.5l-4.3,4.1l-12.5,2L397.9,116.2z"/>
<path class="st15" d="M405.7,89c0,0,17.4-2.4,15.9,1.6c-1.5,4.1-0.3,7.4-9.2,10.2S424.3,94.5,405.7,89z"/>
<path class="st15" d="M389.8,77.9c5.4-3.1,9.5-1.8,13.6,1.3c4.1,3.1,10.2,4.3,10.2,4.3s-6.3,3.1-11.4,3.1s-3.9-6.4-8.5-3.6
	s-12.8,1.5-12.8,1.5L389.8,77.9z"/>
<path class="st15" d="M402.1,76.1c0,0,5.6-2.3,7.1,0s3.8-0.3,9.7,5.2s2.5,4.2,2.7,5.2c0.2,1-5.6-5.3-8-5.7
	C411.3,80.4,402.1,76.1,402.1,76.1z"/>
<path class="st15" d="M417.9,78.1c0,0,14.8-3.8,10.2,7.4c-4.6,11.3-4.1,7.7-4.1,7.7S425.1,76.3,417.9,78.1z"/>
<path class="st15" d="M426.6,110.6c0,0,16.4-13.8,16.9-16.9c0.5-3.1-3.6-9.8-6.7-11c-3.1-1.3-7.8,9.4-7.8,9.4L426.6,110.6z"/>
<path class="st15" d="M436.9,112c-1.5,12-3.8,11.1-9,18.8c-5.1,7.7-19.4-8.7-19.4-8.7L436.9,112z"/>
<path class="st16" d="M434.9,112.7C423,130,411.6,121,411.6,121"/>
<path class="st15" d="M403.8,130.2c0,0,1.4,2.4,2,1C406.3,129.8,403.8,130.2,403.8,130.2z"/>
<path class="st15" d="M424,117.6c0,0-2.8,0.1-1.8,1.3S424,117.6,424,117.6z"/>
</svg>
