<?xml version="1.0" encoding="utf-8"?>
<!-- Generator: Adobe Illustrator 26.5.0, SVG Export Plug-In . SVG Version: 6.00 Build 0)  -->
<svg version="1.1" id="Layer_1" xmlns="http://www.w3.org/2000/svg" xmlns:xlink="http://www.w3.org/1999/xlink" x="0px" y="0px"
	 viewBox="0 0 293.3 211.6" style="enable-background:new 0 0 293.3 211.6;" xml:space="preserve">
<style type="text/css">
	.st0{fill:#CD373E;stroke:#000000;stroke-width:0.5;stroke-miterlimit:10;}
	.st1{fill:#AAC0A6;stroke:#000000;stroke-width:0.5;stroke-miterlimit:10;}
	.st2{fill:none;stroke:#000000;stroke-width:0.5;}
	.st3{fill:#FFDF8E;stroke:#000000;stroke-width:0.5;stroke-miterlimit:10;}
	.st4{fill:#FFE7CB;stroke:#000000;stroke-width:0.5;stroke-miterlimit:10;}
	.st5{fill:#F0F7E8;stroke:#000000;stroke-width:0.5;stroke-miterlimit:10;}
	.st6{fill:#FFF8A3;stroke:#000000;stroke-width:0.5;stroke-miterlimit:10;}
	.st7{fill:#F7A3A5;stroke:#000000;stroke-width:0.5;stroke-miterlimit:10;}
	.st8{fill:#F0F7E8;stroke:#000000;stroke-width:0.5;stroke-miterlimit:10.0002;}
	.st9{fill:none;stroke:#000000;stroke-width:0.5;stroke-miterlimit:10;}
	.st10{fill:#ABBFA5;stroke:#000000;stroke-width:0.5;stroke-miterlimit:10.0002;}
	.st11{fill:#ABBFA5;stroke:#000000;stroke-width:0.5;stroke-miterlimit:10;}
	.st12{fill:#638452;stroke:#000000;stroke-width:0.5;stroke-miterlimit:9.9996;}
	.st13{fill:#638452;stroke:#000000;stroke-width:0.5;stroke-miterlimit:10;}
	.st14{fill:#ABBFA5;stroke:#000000;stroke-width:0.5;stroke-miterlimit:9.9994;}
	.st15{fill:#ABBFA5;stroke:#000000;stroke-width:0.5;stroke-miterlimit:9.9996;}
	.st16{fill:#CD373E;stroke:#000000;stroke-miterlimit:10;}
	.st17{fill:#FDF7B9;stroke:#000000;stroke-miterlimit:10;}
</style>
<g>
	<path class="st0" d="M187.5,51.5c5.8,5.4,16.7,3.1,24.2-5.1s8.9-19.2,3-24.5c-5.8-5.4-16.7-3.1-24.2,5.1
		C183,35.1,181.6,46.1,187.5,51.5"/>
	<path class="st1" d="M207.1,24.8c-2.8,0.4-6.3,1.5-9,1c0.6-3.1,6-3.2,7.1-5.9c0.5-1.3-0.6-3.1-0.8-4.7c-0.2-1.9-0.5-3.9-0.8-5.8
		c0.4,2.8,2.3,6,4.8,7.6c1.9,1.2,2,1.2,4,0.4c1.7-0.7,5.5-1.4,7.4-1c0,1-2,2.3-2.6,3.1c-1.4,1.7-1.2,2,0.4,3.9
		c1,1.1,2.5,2.2,3.6,3.3c0.8,0.8,1.5,1.4,2.5,1.9c1.1,0.6,3.8,1.2,4.1,2.6c-1.2,0.7-3.8-0.5-5.1-0.9c-1.8-0.6-3.4-1.8-5.1-2.5
		c-2.1-0.8-1.3,0.4-2,2.1c-0.4,1.1-1.7,2.7-2.7,3.1c-0.8-1.7,1.1-5.3-0.8-5.8c-1.1-0.3-2.3,1-3.4,0c-1-1,0.3-1.9-0.2-3.3"/>
	<path class="st2" d="M199.7,40.8c0.5-0.3,0.9-0.6,0.8-0.7c-0.1-0.1-0.5,0-1.1,0.2c-0.5,0.3-0.9,0.6-0.8,0.7
		C198.7,41.2,199.2,41.1,199.7,40.8z"/>
	<path class="st2" d="M190.4,39.7c0.5-0.3,0.9-0.6,0.8-0.7c-0.1-0.1-0.5,0-1.1,0.2c-0.5,0.3-0.9,0.6-0.8,0.7
		C189.4,40.1,189.9,40,190.4,39.7z"/>
	<path class="st2" d="M202.3,45.3c0.5-0.3,0.9-0.6,0.8-0.7c-0.1-0.1-0.5,0-1.1,0.2c-0.5,0.3-0.9,0.6-0.8,0.7
		C201.3,45.7,201.8,45.6,202.3,45.3z"/>
	<path class="st2" d="M191.1,45.1c0.5-0.3,0.9-0.6,0.8-0.7c-0.1-0.1-0.5,0-1.1,0.2c-0.5,0.3-0.9,0.6-0.8,0.7
		C190.1,45.5,190.6,45.4,191.1,45.1z"/>
	<path class="st2" d="M195.8,47c0.5-0.3,0.9-0.6,0.8-0.7c-0.1-0.1-0.5,0-1.1,0.2c-0.5,0.3-0.9,0.6-0.8,0.7
		C194.8,47.4,195.3,47.3,195.8,47z"/>
</g>
<g>
	<path class="st3" d="M271.9,94.2c11.7,0,21.2-9.5,21.2-21.2s-9.5-21.2-21.2-21.2s-21.2,9.5-21.2,21.2S260.2,94.2,271.9,94.2"/>
	<polygon class="st4" points="270.4,56.4 268.1,57.4 265.8,56.4 264.9,58.5 262.5,59.2 263.6,61.1 262.5,63 264.9,63.7 265.8,65.7 
		268.1,64.8 270.4,65.7 271.2,63.7 273.6,63 272.5,61.1 273.6,59.2 271.2,58.5 	"/>
</g>
<g>
	<path class="st5" d="M117.1,16.2c-1,0-2-0.1-3,0c-0.4,0-1.1,0.1-1.4,0.3c-0.3,0.3-0.1,0.4-0.3,0.6c-0.7,0.8-1.6,0.9-2.7,0.6
		c-0.5-0.1-1-0.5-1.5-0.7c-0.6-0.2-1-0.3-1.6-0.4c-1.2-0.3-2.4-1.1-3.7-1.1c-0.7,0-0.9,0.2-1.6,0.4c-1.5,0.5-2.4-0.1-3.6-1
		c-1.2-1-2.4-1.6-3.8-2.3s-3.4-2.8-5.1-2.3c1.6,0.3,3.7-1.4,5.2-1.7s3-0.4,4.5-0.4c0.7,0,1.5,0.6,2.1,0.5c0.1-0.4,0.4-0.8,0.5-1.1
		c0.2-0.9,0.3-1.8,0.5-2.6c0.4-1.7,0.4-3.2,1.7-4.4c-0.1,2.4,0,4.3,1,6.5c0.4,1,0.9,2.5,1.6,3.2c0.9,1,0.9,0.4,1.5-0.5
		c1.7-2.3,4.7-2.7,7.4-3c1-0.1,4.9-0.9,5.2,0.8c-2.2,0.7-4.2,1.8-6.3,2.9c-0.9,0.5-1.5,0.8-0.5,1.4c0.4,0,0.8,0.1,1.1,0.5
		c0.7,0.5,1.5,1.1,2.2,1.6c0.3,0.2,0.6,0.4,0.9,0.7c0.2,0.1,1,0.4,1.1,0.5C119.5,16.3,117.5,16.2,117.1,16.2"/>
	<ellipse class="st6" cx="104.5" cy="34.8" rx="12.7" ry="19.3"/>
	<line class="st2" x1="111.2" y1="23.6" x2="94.7" y2="34.8"/>
	<line class="st2" x1="96.2" y1="21.8" x2="113.9" y2="36"/>
	<line class="st2" x1="96.2" y1="28.2" x2="113.9" y2="42.4"/>
	<line class="st2" x1="96.2" y1="34" x2="113.9" y2="48.2"/>
	<line class="st2" x1="114" y1="35.5" x2="94.6" y2="47.3"/>
	<line class="st2" x1="114" y1="29.1" x2="94.6" y2="40.9"/>
</g>
<g>
	<path class="st7" d="M18.9,81.4c4.3-1.1,6.9-5.5,5.8-9.8s-5.4-7-9.7-5.9s-6.9,5.5-5.8,9.8S14.6,82.5,18.9,81.4"/>
	<path class="st7" d="M39,77c4.3-1.1,6.9-5.5,5.8-9.8c-1.1-4.3-5.4-7-9.7-5.9s-6.9,5.5-5.8,9.8S34.7,78.1,39,77"/>
	<ellipse transform="matrix(0.9698 -0.244 0.244 0.9698 -10.9012 4.0021)" class="st8" cx="10.7" cy="46" rx="10.7" ry="5.6"/>
	<line class="st9" x1="17.9" y1="65.6" x2="21.5" y2="42.6"/>
	<line class="st9" x1="33.6" y1="61.7" x2="21.5" y2="42.6"/>
	<ellipse transform="matrix(0.9698 -0.244 0.244 0.9698 -8.7713 8.7919)" class="st8" cx="31.1" cy="39.8" rx="10.7" ry="5.6"/>
</g>
<path class="st9" d="M96,117.6c0,0,51.9-40.9,108.2,0"/>
<ellipse transform="matrix(0.9178 -0.3971 0.3971 0.9178 -24.412 82.74)" class="st10" cx="187.6" cy="100.3" rx="8.2" ry="4.3"/>
<ellipse transform="matrix(0.9178 -0.3971 0.3971 0.9178 -25.7134 87.8515)" class="st10" cx="199.3" cy="106" rx="8.2" ry="4.3"/>
<ellipse transform="matrix(0.9981 -6.157132e-02 6.157132e-02 0.9981 -6.6912 13.2592)" class="st11" cx="211.8" cy="115.2" rx="8.2" ry="4.3"/>
<ellipse transform="matrix(0.9916 -0.129 0.129 0.9916 -13.0568 24.3973)" class="st12" cx="181.8" cy="113" rx="4.3" ry="8.2"/>
<ellipse transform="matrix(0.9916 -0.129 0.129 0.9916 -13.721 25.9431)" class="st12" cx="193.4" cy="118.9" rx="4.3" ry="8.2"/>
<ellipse transform="matrix(0.8888 -0.4583 0.4583 0.8888 -34.5064 108.2367)" class="st13" cx="205.8" cy="125.2" rx="4.3" ry="8.2"/>
<ellipse transform="matrix(0.129 -0.9916 0.9916 0.129 -8.5129 216.9868)" class="st12" cx="119.3" cy="113.3" rx="8.2" ry="4.3"/>
<ellipse transform="matrix(0.129 -0.9916 0.9916 0.129 -24.2679 209.444)" class="st12" cx="107.1" cy="118.5" rx="8.2" ry="4.3"/>
<ellipse transform="matrix(0.4583 -0.8888 0.8888 0.4583 -60.1317 151.2291)" class="st13" cx="94" cy="124.9" rx="8.2" ry="4.3"/>
<ellipse transform="matrix(0.4527 -0.8917 0.8917 0.4527 -26.7982 156.157)" class="st14" cx="113.8" cy="99.9" rx="4.3" ry="8.2"/>
<ellipse transform="matrix(0.4527 -0.8917 0.8917 0.4527 -39.0191 147.9647)" class="st14" cx="101" cy="105.8" rx="4.3" ry="8.2"/>
<ellipse transform="matrix(0.1227 -0.9924 0.9924 0.1227 -35.0579 188.538)" class="st15" cx="89.1" cy="114.1" rx="4.3" ry="8.2"/>
<path class="st16" d="M171.9,190c0,0-4.3,18-14.9,11.1c-10.6-6.9-7.1,0.2-16.8-21.6L171.9,190z"/>
<path class="st16" d="M132.8,173c0,0-7.7-9-2-12s-0.8-0.8,6.7,0s18.7-7.9,18.7-7.9s-4.1,10.5-3.3,10
	C153.5,162.5,137.4,175.4,132.8,173L132.8,173z"/>
<path class="st16" d="M145.1,156.2l-1-5.6c0,0,6.9-2.8,5.6-5.9C148.4,141.5,159.4,151.3,145.1,156.2z"/>
<path class="st16" d="M144,150.5c13.3-10.5-5.6-4.6-5.6-4.6L144,150.5z"/>
<path class="st16" d="M136.1,155.2c-20,2-3.1-10.9-3.1-10.9L136.1,155.2z"/>
<path class="st16" d="M124.1,158.5c0,0,10.7,9.2-5.1,3.3s2.3-14.4,2.3-14.4L124.1,158.5L124.1,158.5z"/>
<path class="st16" d="M104.1,163.2c0,0,4.9,0.4,8.3,11.1c3.4,10.7,18.8,4.3,18.8,4.3s-13-7.2-10-10.2S110.8,160.3,104.1,163.2
	L104.1,163.2z"/>
<path class="st16" d="M140.2,188.2c0,0-1.3-5.6-6.7-3.3s-11.5,6.4-14.6,6.9s5.3,5.1,8.7,4.1C131,194.7,140.2,188.2,140.2,188.2z"/>
<path class="st17" d="M142.9,180.5c0,0,10,16.3,28,9.3"/>
<path class="st16" d="M148.3,171.5c0,0,1.7-2.5,4.2-2.5s5.3,0.6,10.2-6.6c4.9-7.2,9.2-6.7,9.2-6.7s4.1,4,1.9,8.2
	c-2.2,4.2-9.9,3.5-9.9,3.5l-4.3,4.1l-12.5,2L148.3,171.5L148.3,171.5z"/>
<path class="st16" d="M156.1,144.2c0,0,17.4-2.4,15.9,1.6c-1.5,4.1-0.3,7.4-9.2,10.2S174.7,149.7,156.1,144.2z"/>
<path class="st16" d="M140.2,133.2c5.4-3.1,9.5-1.8,13.6,1.3s10.2,4.3,10.2,4.3s-6.3,3.1-11.4,3.1s-3.9-6.4-8.5-3.6
	s-12.8,1.5-12.8,1.5L140.2,133.2z"/>
<path class="st16" d="M152.5,131.4c0,0,5.6-2.3,7.1,0s3.8-0.3,9.7,5.2s2.5,4.2,2.7,5.2s-5.6-5.3-8-5.7
	C161.7,135.7,152.5,131.4,152.5,131.4z"/>
<path class="st16" d="M168.3,133.4c0,0,14.8-3.8,10.2,7.4c-4.6,11.3-4.1,7.7-4.1,7.7S175.5,131.5,168.3,133.4L168.3,133.4z"/>
<path class="st16" d="M177,165.8c0,0,16.4-13.8,16.9-16.9c0.5-3.1-3.6-9.8-6.7-11c-3.1-1.3-7.8,9.4-7.8,9.4L177,165.8z"/>
<path class="st16" d="M187.3,167.2c-1.5,12-3.8,11.1-9,18.8c-5.1,7.7-19.4-8.7-19.4-8.7L187.3,167.2z"/>
<path class="st17" d="M185.3,168c-11.9,17.3-23.3,8.3-23.3,8.3"/>
<path class="st16" d="M154.2,185.5c0,0,1.4,2.4,2,1C156.7,185.1,154.2,185.5,154.2,185.5z"/>
<path class="st16" d="M174.4,172.8c0,0-2.8,0.1-1.8,1.3S174.4,172.8,174.4,172.8z"/>
</svg>
