<?xml version="1.0" encoding="UTF-8"?><svg id="Layer_1" xmlns="http://www.w3.org/2000/svg" viewBox="0 0 547.71 144.51"><defs><style>.cls-1{stroke-miterlimit:10;stroke-width:.5px;}.cls-1,.cls-2,.cls-3,.cls-4,.cls-5,.cls-6,.cls-7,.cls-8,.cls-9,.cls-10,.cls-11,.cls-12,.cls-13,.cls-14,.cls-15,.cls-16,.cls-17,.cls-18{stroke:#000;}.cls-1,.cls-2,.cls-3,.cls-11{fill:#abbfa5;}.cls-2{stroke-miterlimit:10;stroke-width:.5px;}.cls-3{stroke-miterlimit:10;stroke-width:.5px;}.cls-4{stroke-miterlimit:10;stroke-width:.5px;}.cls-4,.cls-12{fill:#638452;}.cls-5,.cls-7,.cls-8,.cls-9,.cls-10,.cls-13,.cls-14,.cls-15,.cls-18{stroke-width:.5px;}.cls-5,.cls-18{fill:none;}.cls-6{stroke-miterlimit:10;stroke-width:.5px;}.cls-6,.cls-10{fill:#f0f7e8;}.cls-7{fill:#ffe7cb;}.cls-7,.cls-8,.cls-9,.cls-10,.cls-13,.cls-14,.cls-15,.cls-16,.cls-17,.cls-18{stroke-miterlimit:10;}.cls-8{fill:#fff8a3;}.cls-9{fill:#ffdf8e;}.cls-11{stroke-miterlimit:10;stroke-width:.5px;}.cls-12{stroke-miterlimit:10;stroke-width:.5px;}.cls-13,.cls-17{fill:#cd373e;}.cls-14{fill:#aac0a6;}.cls-15{fill:#f7a3a5;}.cls-16{fill:#fdf7b9;}</style></defs><g><path class="cls-13" d="M441.86,50.07c5.8,5.4,16.7,3.1,24.2-5.1,7.5-8.2,8.9-19.2,3-24.5-5.8-5.4-16.7-3.1-24.2,5.1-7.5,8.1-8.9,19.1-3,24.5"/><path class="cls-14" d="M461.46,23.37c-2.8,.4-6.3,1.5-9,1,.6-3.1,6-3.2,7.1-5.9,.5-1.3-.6-3.1-.8-4.7-.2-1.9-.5-3.9-.8-5.8,.4,2.8,2.3,6,4.8,7.6,1.9,1.2,2,1.2,4,.4,1.7-.7,5.5-1.4,7.4-1,0,1-2,2.3-2.6,3.1-1.4,1.7-1.2,2,.4,3.9,1,1.1,2.5,2.2,3.6,3.3,.8,.8,1.5,1.4,2.5,1.9,1.1,.6,3.8,1.2,4.1,2.6-1.2,.7-3.8-.5-5.1-.9-1.8-.6-3.4-1.8-5.1-2.5-2.1-.8-1.3,.4-2,2.1-.4,1.1-1.7,2.7-2.7,3.1-.8-1.7,1.1-5.3-.8-5.8-1.1-.3-2.3,1-3.4,0-1-1,.3-1.9-.2-3.3"/><path class="cls-5" d="M454.06,39.37c.5-.3,.9-.6,.8-.7-.1-.1-.5,0-1.1,.2-.5,.3-.9,.6-.8,.7,.1,.2,.6,.1,1.1-.2Z"/><path class="cls-5" d="M444.76,38.27c.5-.3,.9-.6,.8-.7-.1-.1-.5,0-1.1,.2-.5,.3-.9,.6-.8,.7,.1,.2,.6,.1,1.1-.2Z"/><path class="cls-5" d="M456.66,43.87c.5-.3,.9-.6,.8-.7s-.5,0-1.1,.2c-.5,.3-.9,.6-.8,.7,.1,.2,.6,.1,1.1-.2Z"/><path class="cls-5" d="M445.46,43.67c.5-.3,.9-.6,.8-.7s-.5,0-1.1,.2c-.5,.3-.9,.6-.8,.7,.1,.2,.6,.1,1.1-.2Z"/><path class="cls-5" d="M450.16,45.57c.5-.3,.9-.6,.8-.7s-.5,0-1.1,.2c-.5,.3-.9,.6-.8,.7,.1,.2,.6,.1,1.1-.2Z"/></g><g><path class="cls-9" d="M526.26,92.87c11.7,0,21.2-9.5,21.2-21.2s-9.5-21.2-21.2-21.2-21.2,9.5-21.2,21.2,9.5,21.2,21.2,21.2"/><polygon class="cls-7" points="524.76 55.07 522.46 56.07 520.16 55.07 519.26 57.17 516.86 57.87 517.96 59.77 516.86 61.67 519.26 62.37 520.16 64.37 522.46 63.47 524.76 64.37 525.56 62.37 527.96 61.67 526.86 59.77 527.96 57.87 525.56 57.17 524.76 55.07"/></g><g><path class="cls-10" d="M117.12,16.19c-1,0-2-.1-3,0-.4,0-1.1,.1-1.4,.3-.3,.3-.1,.4-.3,.6-.7,.8-1.6,.9-2.7,.6-.5-.1-1-.5-1.5-.7-.6-.2-1-.3-1.6-.4-1.2-.3-2.4-1.1-3.7-1.1-.7,0-.9,.2-1.6,.4-1.5,.5-2.4-.1-3.6-1-1.2-1-2.4-1.6-3.8-2.3s-3.4-2.8-5.1-2.3c1.6,.3,3.7-1.4,5.2-1.7,1.5-.3,3-.4,4.5-.4,.7,0,1.5,.6,2.1,.5,.1-.4,.4-.8,.5-1.1,.2-.9,.3-1.8,.5-2.6,.4-1.7,.4-3.2,1.7-4.4-.1,2.4,0,4.3,1,6.5,.4,1,.9,2.5,1.6,3.2,.9,1,.9,.4,1.5-.5,1.7-2.3,4.7-2.7,7.4-3,1-.1,4.9-.9,5.2,.8-2.2,.7-4.2,1.8-6.3,2.9-.9,.5-1.5,.8-.5,1.4,.4,0,.8,.1,1.1,.5,.7,.5,1.5,1.1,2.2,1.6,.3,.2,.6,.4,.9,.7,.2,.1,1,.4,1.1,.5,1,1.1-1,1-1.4,1"/><ellipse class="cls-8" cx="104.52" cy="34.79" rx="12.7" ry="19.3"/><line class="cls-5" x1="111.22" y1="23.59" x2="94.72" y2="34.79"/><line class="cls-5" x1="96.22" y1="21.79" x2="113.92" y2="35.99"/><line class="cls-5" x1="96.22" y1="28.19" x2="113.92" y2="42.39"/><line class="cls-5" x1="96.22" y1="33.99" x2="113.92" y2="48.19"/><line class="cls-5" x1="114.02" y1="35.49" x2="94.62" y2="47.29"/><line class="cls-5" x1="114.02" y1="29.09" x2="94.62" y2="40.89"/></g><g><path class="cls-15" d="M18.92,81.39c4.3-1.1,6.9-5.5,5.8-9.8s-5.4-7-9.7-5.9c-4.3,1.1-6.9,5.5-5.8,9.8,1.1,4.3,5.4,7,9.7,5.9"/><path class="cls-15" d="M39.02,76.99c4.3-1.1,6.9-5.5,5.8-9.8s-5.4-7-9.7-5.9c-4.3,1.1-6.9,5.5-5.8,9.8s5.4,7,9.7,5.9"/><ellipse class="cls-6" cx="10.72" cy="46" rx="10.7" ry="5.6" transform="translate(-10.9 4.01) rotate(-14.12)"/><line class="cls-18" x1="17.92" y1="65.59" x2="21.52" y2="42.59"/><line class="cls-18" x1="33.62" y1="61.69" x2="21.52" y2="42.59"/><ellipse class="cls-6" cx="31.11" cy="39.8" rx="10.7" ry="5.6" transform="translate(-8.77 8.79) rotate(-14.12)"/></g><path class="cls-18" d="M217.07,33.04s61.55-48.5,128.31,0"/><ellipse class="cls-11" cx="325.72" cy="12.65" rx="9.72" ry="5.1" transform="translate(21.76 130.38) rotate(-23.4)"/><ellipse class="cls-11" cx="339.59" cy="19.41" rx="9.72" ry="5.1" transform="translate(20.22 136.44) rotate(-23.4)"/><ellipse class="cls-1" cx="354.39" cy="30.31" rx="9.72" ry="5.1" transform="translate(-1.19 21.86) rotate(-3.53)"/><ellipse class="cls-4" cx="318.8" cy="27.58" rx="5.1" ry="9.72" transform="translate(-.89 41.36) rotate(-7.41)"/><ellipse class="cls-4" cx="332.55" cy="34.58" rx="5.1" ry="9.72" transform="translate(-1.68 43.19) rotate(-7.41)"/><ellipse class="cls-12" cx="347.3" cy="42.19" rx="5.1" ry="9.72" transform="translate(19.29 163.86) rotate(-27.28)"/><ellipse class="cls-4" cx="244.75" cy="28.08" rx="9.72" ry="5.1" transform="translate(185.33 267.17) rotate(-82.59)"/><ellipse class="cls-4" cx="230.2" cy="34.22" rx="9.72" ry="5.1" transform="translate(166.57 258.08) rotate(-82.59)"/><ellipse class="cls-12" cx="214.84" cy="41.75" rx="9.72" ry="5.1" transform="translate(79.27 213.57) rotate(-62.72)"/><ellipse class="cls-3" cx="238.18" cy="12.11" rx="5.1" ry="9.72" transform="translate(119.53 218.99) rotate(-63.08)"/><ellipse class="cls-3" cx="223.01" cy="19.06" rx="5.1" ry="9.72" transform="translate(105.04 209.27) rotate(-63.08)"/><ellipse class="cls-2" cx="209.01" cy="28.98" rx="5.1" ry="9.72" transform="translate(154.58 232.85) rotate(-82.95)"/><path class="cls-17" d="M301.62,128.97s-5.1,21.35-17.67,13.16-8.42,.24-19.92-25.62l37.59,12.45Z"/><path class="cls-17" d="M255.25,108.81s-9.13-10.67-2.37-14.23-.95-.95,7.95,0c8.89,.95,22.18-9.37,22.18-9.37,0,0-4.86,12.45-3.91,11.86,.71-.71-18.38,14.47-23.84,11.74Z"/><path class="cls-17" d="M269.84,88.77l-1.19-6.64s8.18-3.32,6.64-7c-1.54-3.68,11.5,7.83-5.46,13.64Z"/><path class="cls-17" d="M268.53,82.01c15.77-12.45-6.64-5.46-6.64-5.46l6.64,5.46Z"/><path class="cls-17" d="M259.17,87.59c-23.72,2.37-3.68-12.93-3.68-12.93l3.68,12.93Z"/><path class="cls-17" d="M244.94,91.5s12.69,10.91-6.05,3.91c-18.74-7,2.73-17.08,2.73-17.08l3.32,13.16Z"/><path class="cls-17" d="M221.22,97.07s5.81,.47,9.84,13.16c4.03,12.69,22.29,5.1,22.29,5.1,0,0-15.42-8.54-11.86-12.1s-12.33-9.61-20.28-6.17Z"/><path class="cls-17" d="M264.03,126.72s-1.54-6.64-7.95-3.91-13.64,7.59-17.31,8.18,6.29,6.05,10.32,4.86c4.03-1.3,14.94-9.13,14.94-9.13Z"/><path class="cls-16" d="M267.23,117.59s11.86,19.33,33.2,11.03"/><path class="cls-17" d="M273.63,106.92s2.02-2.96,4.98-2.96,6.29,.71,12.1-7.83c5.81-8.54,10.91-7.95,10.91-7.95,0,0,4.86,4.74,2.25,9.72s-11.74,4.15-11.74,4.15l-5.1,4.86-14.82,2.37,1.42-2.37Z"/><path class="cls-17" d="M282.88,74.66s20.63-2.85,18.86,1.9c-1.78,4.86-.36,8.78-10.91,12.1s14.11-7.47-7.95-13.99Z"/><path class="cls-17" d="M264.03,61.5c6.4-3.68,11.27-2.13,16.13,1.54s12.1,5.1,12.1,5.1c0,0-7.47,3.68-13.52,3.68s-4.62-7.59-10.08-4.27c-5.46,3.32-15.18,1.78-15.18,1.78l10.55-7.83Z"/><path class="cls-17" d="M278.61,59.36s6.64-2.73,8.42,0,4.51-.36,11.5,6.17,2.96,4.98,3.2,6.17-6.64-6.29-9.49-6.76c-2.73-.47-13.64-5.57-13.64-5.57Z"/><path class="cls-17" d="M297.35,61.73s17.55-4.51,12.1,8.78c-5.46,13.4-4.86,9.13-4.86,9.13,0,0,1.3-20.04-7.23-17.91Z"/><path class="cls-17" d="M307.67,100.28s19.45-16.37,20.04-20.04c.59-3.68-4.27-11.62-7.95-13.04-3.68-1.54-9.25,11.15-9.25,11.15l-2.85,21.94Z"/><path class="cls-17" d="M319.88,101.94c-1.78,14.23-4.51,13.16-10.67,22.29-6.05,9.13-23.01-10.32-23.01-10.32l33.68-11.98Z"/><path class="cls-16" d="M317.51,102.77c-14.11,20.52-27.63,9.84-27.63,9.84"/><path class="cls-17" d="M280.63,123.52s1.66,2.85,2.37,1.19c.59-1.66-2.37-1.19-2.37-1.19Z"/><path class="cls-17" d="M304.59,108.58s-3.32,.12-2.13,1.54,2.13-1.54,2.13-1.54Z"/></svg>