<?xml version="1.0" encoding="UTF-8"?><svg id="Layer_1" xmlns="http://www.w3.org/2000/svg" viewBox="0 0 293.32 211.63"><defs><style>.cls-1{stroke-miterlimit:10;stroke-width:.5px;}.cls-1,.cls-2,.cls-3,.cls-4,.cls-5,.cls-6,.cls-7,.cls-8,.cls-9,.cls-10,.cls-11,.cls-12,.cls-13,.cls-14,.cls-15,.cls-16,.cls-17,.cls-18{stroke:#000;}.cls-1,.cls-2,.cls-3,.cls-11{fill:#abbfa5;}.cls-2{stroke-miterlimit:10;stroke-width:.5px;}.cls-3{stroke-miterlimit:10;stroke-width:.5px;}.cls-4{stroke-miterlimit:10;stroke-width:.5px;}.cls-4,.cls-12{fill:#638452;}.cls-5,.cls-7,.cls-8,.cls-9,.cls-10,.cls-13,.cls-14,.cls-15,.cls-18{stroke-width:.5px;}.cls-5,.cls-18{fill:none;}.cls-6{stroke-miterlimit:10;stroke-width:.5px;}.cls-6,.cls-10{fill:#f0f7e8;}.cls-7{fill:#ffe7cb;}.cls-7,.cls-8,.cls-9,.cls-10,.cls-13,.cls-14,.cls-15,.cls-16,.cls-17,.cls-18{stroke-miterlimit:10;}.cls-8{fill:#fff8a3;}.cls-9{fill:#ffdf8e;}.cls-11{stroke-miterlimit:10;stroke-width:.5px;}.cls-12{stroke-miterlimit:10;stroke-width:.5px;}.cls-13,.cls-17{fill:#cd373e;}.cls-14{fill:#aac0a6;}.cls-15{fill:#f7a3a5;}.cls-16{fill:#fdf7b9;}</style></defs><g><path class="cls-13" d="M187.5,51.51c5.8,5.4,16.7,3.1,24.2-5.1,7.5-8.2,8.9-19.2,3-24.5-5.8-5.4-16.7-3.1-24.2,5.1-7.5,8.1-8.9,19.1-3,24.5"/><path class="cls-14" d="M207.1,24.81c-2.8,.4-6.3,1.5-9,1,.6-3.1,6-3.2,7.1-5.9,.5-1.3-.6-3.1-.8-4.7-.2-1.9-.5-3.9-.8-5.8,.4,2.8,2.3,6,4.8,7.6,1.9,1.2,2,1.2,4,.4,1.7-.7,5.5-1.4,7.4-1,0,1-2,2.3-2.6,3.1-1.4,1.7-1.2,2,.4,3.9,1,1.1,2.5,2.2,3.6,3.3,.8,.8,1.5,1.4,2.5,1.9,1.1,.6,3.8,1.2,4.1,2.6-1.2,.7-3.8-.5-5.1-.9-1.8-.6-3.4-1.8-5.1-2.5-2.1-.8-1.3,.4-2,2.1-.4,1.1-1.7,2.7-2.7,3.1-.8-1.7,1.1-5.3-.8-5.8-1.1-.3-2.3,1-3.4,0-1-1,.3-1.9-.2-3.3"/><path class="cls-5" d="M199.7,40.81c.5-.3,.9-.6,.8-.7-.1-.1-.5,0-1.1,.2-.5,.3-.9,.6-.8,.7,.1,.2,.6,.1,1.1-.2Z"/><path class="cls-5" d="M190.4,39.71c.5-.3,.9-.6,.8-.7-.1-.1-.5,0-1.1,.2-.5,.3-.9,.6-.8,.7,.1,.2,.6,.1,1.1-.2Z"/><path class="cls-5" d="M202.3,45.31c.5-.3,.9-.6,.8-.7-.1-.1-.5,0-1.1,.2-.5,.3-.9,.6-.8,.7,.1,.2,.6,.1,1.1-.2Z"/><path class="cls-5" d="M191.1,45.11c.5-.3,.9-.6,.8-.7-.1-.1-.5,0-1.1,.2-.5,.3-.9,.6-.8,.7,.1,.2,.6,.1,1.1-.2Z"/><path class="cls-5" d="M195.8,47.01c.5-.3,.9-.6,.8-.7-.1-.1-.5,0-1.1,.2-.5,.3-.9,.6-.8,.7,.1,.2,.6,.1,1.1-.2Z"/></g><g><path class="cls-9" d="M271.87,94.24c11.7,0,21.2-9.5,21.2-21.2s-9.5-21.2-21.2-21.2-21.2,9.5-21.2,21.2,9.5,21.2,21.2,21.2"/><polygon class="cls-7" points="270.37 56.44 268.07 57.44 265.77 56.44 264.87 58.54 262.47 59.24 263.57 61.14 262.47 63.04 264.87 63.74 265.77 65.74 268.07 64.84 270.37 65.74 271.17 63.74 273.57 63.04 272.47 61.14 273.57 59.24 271.17 58.54 270.37 56.44"/></g><g><path class="cls-10" d="M117.09,16.19c-1,0-2-.1-3,0-.4,0-1.1,.1-1.4,.3-.3,.3-.1,.4-.3,.6-.7,.8-1.6,.9-2.7,.6-.5-.1-1-.5-1.5-.7-.6-.2-1-.3-1.6-.4-1.2-.3-2.4-1.1-3.7-1.1-.7,0-.9,.2-1.6,.4-1.5,.5-2.4-.1-3.6-1-1.2-1-2.4-1.6-3.8-2.3-1.4-.7-3.4-2.8-5.1-2.3,1.6,.3,3.7-1.4,5.2-1.7s3-.4,4.5-.4c.7,0,1.5,.6,2.1,.5,.1-.4,.4-.8,.5-1.1,.2-.9,.3-1.8,.5-2.6,.4-1.7,.4-3.2,1.7-4.4-.1,2.4,0,4.3,1,6.5,.4,1,.9,2.5,1.6,3.2,.9,1,.9,.4,1.5-.5,1.7-2.3,4.7-2.7,7.4-3,1-.1,4.9-.9,5.2,.8-2.2,.7-4.2,1.8-6.3,2.9-.9,.5-1.5,.8-.5,1.4,.4,0,.8,.1,1.1,.5,.7,.5,1.5,1.1,2.2,1.6,.3,.2,.6,.4,.9,.7,.2,.1,1,.4,1.1,.5,1,1.1-1,1-1.4,1"/><ellipse class="cls-8" cx="104.49" cy="34.79" rx="12.7" ry="19.3"/><line class="cls-5" x1="111.19" y1="23.59" x2="94.69" y2="34.79"/><line class="cls-5" x1="96.19" y1="21.79" x2="113.89" y2="35.99"/><line class="cls-5" x1="96.19" y1="28.19" x2="113.89" y2="42.39"/><line class="cls-5" x1="96.19" y1="33.99" x2="113.89" y2="48.19"/><line class="cls-5" x1="113.99" y1="35.49" x2="94.59" y2="47.29"/><line class="cls-5" x1="113.99" y1="29.09" x2="94.59" y2="40.89"/></g><g><path class="cls-15" d="M18.91,81.39c4.3-1.1,6.9-5.5,5.8-9.8s-5.4-7-9.7-5.9c-4.3,1.1-6.9,5.5-5.8,9.8,1.1,4.3,5.4,7,9.7,5.9"/><path class="cls-15" d="M39.01,76.99c4.3-1.1,6.9-5.5,5.8-9.8-1.1-4.3-5.4-7-9.7-5.9s-6.9,5.5-5.8,9.8c1.1,4.3,5.4,7,9.7,5.9"/><ellipse class="cls-6" cx="10.72" cy="45.99" rx="10.7" ry="5.6" transform="translate(-10.9 4.01) rotate(-14.12)"/><line class="cls-18" x1="17.91" y1="65.59" x2="21.51" y2="42.59"/><line class="cls-18" x1="33.61" y1="61.69" x2="21.51" y2="42.59"/><ellipse class="cls-6" cx="31.11" cy="39.8" rx="10.7" ry="5.6" transform="translate(-8.77 8.79) rotate(-14.12)"/></g><path class="cls-18" d="M96,117.55s51.9-40.9,108.2,0"/><ellipse class="cls-11" cx="187.61" cy="100.34" rx="8.2" ry="4.3" transform="translate(-24.42 82.75) rotate(-23.4)"/><ellipse class="cls-11" cx="199.3" cy="106.06" rx="8.2" ry="4.3" transform="translate(-25.73 87.86) rotate(-23.4)"/><ellipse class="cls-1" cx="211.81" cy="115.25" rx="8.2" ry="4.3" transform="translate(-6.69 13.25) rotate(-3.53)"/><ellipse class="cls-4" cx="181.79" cy="112.95" rx="4.3" ry="8.2" transform="translate(-13.05 24.4) rotate(-7.41)"/><ellipse class="cls-4" cx="193.4" cy="118.85" rx="4.3" ry="8.2" transform="translate(-13.72 25.94) rotate(-7.41)"/><ellipse class="cls-12" cx="205.82" cy="125.24" rx="4.3" ry="8.2" transform="translate(-34.51 108.26) rotate(-27.28)"/><ellipse class="cls-4" cx="119.31" cy="113.34" rx="8.2" ry="4.3" transform="translate(-8.48 217.03) rotate(-82.59)"/><ellipse class="cls-4" cx="107.06" cy="118.57" rx="8.2" ry="4.3" transform="translate(-24.33 209.44) rotate(-82.59)"/><ellipse class="cls-12" cx="94.05" cy="124.92" rx="8.2" ry="4.3" transform="translate(-60.09 151.26) rotate(-62.72)"/><ellipse class="cls-3" cx="113.82" cy="99.89" rx="4.3" ry="8.2" transform="translate(-26.78 156.15) rotate(-63.08)"/><ellipse class="cls-3" cx="100.99" cy="105.76" rx="4.3" ry="8.2" transform="translate(-39.03 147.92) rotate(-63.08)"/><ellipse class="cls-2" cx="89.16" cy="114.15" rx="4.3" ry="8.2" transform="translate(-35.07 188.62) rotate(-82.95)"/><path class="cls-17" d="M167.3,198.45s-4.3,18-14.9,11.1c-10.6-6.9-7.1,.2-16.8-21.6l31.7,10.5Z"/><path class="cls-17" d="M128.2,181.45s-7.7-9-2-12-.8-.8,6.7,0,18.7-7.9,18.7-7.9c0,0-4.1,10.5-3.3,10,.6-.6-15.5,12.2-20.1,9.9Z"/><path class="cls-17" d="M140.5,164.55l-1-5.6s6.9-2.8,5.6-5.9c-1.3-3.1,9.7,6.6-4.6,11.5Z"/><path class="cls-17" d="M139.4,158.85c13.3-10.5-5.6-4.6-5.6-4.6l5.6,4.6Z"/><path class="cls-17" d="M131.5,163.55c-20,2-3.1-10.9-3.1-10.9l3.1,10.9Z"/><path class="cls-17" d="M119.5,166.85s10.7,9.2-5.1,3.3,2.3-14.4,2.3-14.4l2.8,11.1Z"/><path class="cls-17" d="M99.5,171.55s4.9,.4,8.3,11.1c3.4,10.7,18.8,4.3,18.8,4.3,0,0-13-7.2-10-10.2s-10.4-8.1-17.1-5.2Z"/><path class="cls-17" d="M135.6,196.55s-1.3-5.6-6.7-3.3-11.5,6.4-14.6,6.9,5.3,5.1,8.7,4.1c3.4-1.1,12.6-7.7,12.6-7.7Z"/><path class="cls-16" d="M138.3,188.85s10,16.3,28,9.3"/><path class="cls-17" d="M143.7,179.85s1.7-2.5,4.2-2.5,5.3,.6,10.2-6.6c4.9-7.2,9.2-6.7,9.2-6.7,0,0,4.1,4,1.9,8.2-2.2,4.2-9.9,3.5-9.9,3.5l-4.3,4.1-12.5,2,1.2-2Z"/><path class="cls-17" d="M151.5,152.65s17.4-2.4,15.9,1.6c-1.5,4.1-.3,7.4-9.2,10.2s11.9-6.3-6.7-11.8Z"/><path class="cls-17" d="M135.6,141.55c5.4-3.1,9.5-1.8,13.6,1.3,4.1,3.1,10.2,4.3,10.2,4.3,0,0-6.3,3.1-11.4,3.1s-3.9-6.4-8.5-3.6-12.8,1.5-12.8,1.5l8.9-6.6Z"/><path class="cls-17" d="M147.9,139.75s5.6-2.3,7.1,0,3.8-.3,9.7,5.2,2.5,4.2,2.7,5.2-5.6-5.3-8-5.7c-2.3-.4-11.5-4.7-11.5-4.7Z"/><path class="cls-17" d="M163.7,141.75s14.8-3.8,10.2,7.4c-4.6,11.3-4.1,7.7-4.1,7.7,0,0,1.1-16.9-6.1-15.1Z"/><path class="cls-17" d="M172.4,174.25s16.4-13.8,16.9-16.9c.5-3.1-3.6-9.8-6.7-11-3.1-1.3-7.8,9.4-7.8,9.4l-2.4,18.5Z"/><path class="cls-17" d="M182.7,175.65c-1.5,12-3.8,11.1-9,18.8-5.1,7.7-19.4-8.7-19.4-8.7l28.4-10.1Z"/><path class="cls-16" d="M180.7,176.35c-11.9,17.3-23.3,8.3-23.3,8.3"/><path class="cls-17" d="M149.6,193.85s1.4,2.4,2,1c.5-1.4-2-1-2-1Z"/><path class="cls-17" d="M169.8,181.25s-2.8,.1-1.8,1.3,1.8-1.3,1.8-1.3Z"/></svg>