<?xml version="1.0" encoding="utf-8"?>
<!-- Generator: Adobe Illustrator 26.5.0, SVG Export Plug-In . SVG Version: 6.00 Build 0)  -->
<svg version="1.1" id="Layer_1" xmlns="http://www.w3.org/2000/svg" xmlns:xlink="http://www.w3.org/1999/xlink" x="0px" y="0px"
	 viewBox="0 0 547.7 144.5" style="enable-background:new 0 0 547.7 144.5;" xml:space="preserve">
<style type="text/css">
	.st0{fill:#CD373E;stroke:#000000;stroke-width:0.5;stroke-miterlimit:10;}
	.st1{fill:#AAC0A6;stroke:#000000;stroke-width:0.5;stroke-miterlimit:10;}
	.st2{fill:none;stroke:#000000;stroke-width:0.5;}
	.st3{fill:#FFDF8E;stroke:#000000;stroke-width:0.5;stroke-miterlimit:10;}
	.st4{fill:#FFE7CB;stroke:#000000;stroke-width:0.5;stroke-miterlimit:10;}
	.st5{fill:#F0F7E8;stroke:#000000;stroke-width:0.5;stroke-miterlimit:10;}
	.st6{fill:#FFF8A3;stroke:#000000;stroke-width:0.5;stroke-miterlimit:10;}
	.st7{fill:#F7A3A5;stroke:#000000;stroke-width:0.5;stroke-miterlimit:10;}
	.st8{fill:#F0F7E8;stroke:#000000;stroke-width:0.5;stroke-miterlimit:10.0002;}
	.st9{fill:none;stroke:#000000;stroke-width:0.5;stroke-miterlimit:10;}
	.st10{fill:#ABBFA5;stroke:#000000;stroke-width:0.5;stroke-miterlimit:10.0002;}
	.st11{fill:#ABBFA5;stroke:#000000;stroke-width:0.5;stroke-miterlimit:10;}
	.st12{fill:#638452;stroke:#000000;stroke-width:0.5;stroke-miterlimit:9.9996;}
	.st13{fill:#638452;stroke:#000000;stroke-width:0.5;stroke-miterlimit:10;}
	.st14{fill:#ABBFA5;stroke:#000000;stroke-width:0.5;stroke-miterlimit:9.9994;}
	.st15{fill:#ABBFA5;stroke:#000000;stroke-width:0.5;stroke-miterlimit:9.9996;}
	.st16{fill:#CD373E;stroke:#000000;stroke-miterlimit:10;}
	.st17{fill:#FDF7B9;stroke:#000000;stroke-miterlimit:10;}
</style>
<g>
	<path class="st0" d="M441.9,50.1c5.8,5.4,16.7,3.1,24.2-5.1s8.9-19.2,3-24.5c-5.8-5.4-16.7-3.1-24.2,5.1
		C437.4,33.7,436,44.7,441.9,50.1"/>
	<path class="st1" d="M461.5,23.4c-2.8,0.4-6.3,1.5-9,1c0.6-3.1,6-3.2,7.1-5.9c0.5-1.3-0.6-3.1-0.8-4.7c-0.2-1.9-0.5-3.9-0.8-5.8
		c0.4,2.8,2.3,6,4.8,7.6c1.9,1.2,2,1.2,4,0.4c1.7-0.7,5.5-1.4,7.4-1c0,1-2,2.3-2.6,3.1c-1.4,1.7-1.2,2,0.4,3.9
		c1,1.1,2.5,2.2,3.6,3.3c0.8,0.8,1.5,1.4,2.5,1.9c1.1,0.6,3.8,1.2,4.1,2.6c-1.2,0.7-3.8-0.5-5.1-0.9c-1.8-0.6-3.4-1.8-5.1-2.5
		c-2.1-0.8-1.3,0.4-2,2.1c-0.4,1.1-1.7,2.7-2.7,3.1c-0.8-1.7,1.1-5.3-0.8-5.8c-1.1-0.3-2.3,1-3.4,0c-1-1,0.3-1.9-0.2-3.3"/>
	<path class="st2" d="M454.1,39.4c0.5-0.3,0.9-0.6,0.8-0.7c-0.1-0.1-0.5,0-1.1,0.2c-0.5,0.3-0.9,0.6-0.8,0.7
		C453.1,39.8,453.6,39.7,454.1,39.4z"/>
	<path class="st2" d="M444.8,38.3c0.5-0.3,0.9-0.6,0.8-0.7c-0.1-0.1-0.5,0-1.1,0.2c-0.5,0.3-0.9,0.6-0.8,0.7
		C443.8,38.7,444.3,38.6,444.8,38.3z"/>
	<path class="st2" d="M456.7,43.9c0.5-0.3,0.9-0.6,0.8-0.7s-0.5,0-1.1,0.2c-0.5,0.3-0.9,0.6-0.8,0.7
		C455.7,44.3,456.2,44.2,456.7,43.9z"/>
	<path class="st2" d="M445.5,43.7c0.5-0.3,0.9-0.6,0.8-0.7s-0.5,0-1.1,0.2c-0.5,0.3-0.9,0.6-0.8,0.7C444.5,44.1,445,44,445.5,43.7z"
		/>
	<path class="st2" d="M450.2,45.6c0.5-0.3,0.9-0.6,0.8-0.7s-0.5,0-1.1,0.2c-0.5,0.3-0.9,0.6-0.8,0.7C449.2,46,449.7,45.9,450.2,45.6
		z"/>
</g>
<g>
	<path class="st3" d="M526.3,92.9c11.7,0,21.2-9.5,21.2-21.2s-9.5-21.2-21.2-21.2s-21.2,9.5-21.2,21.2S514.6,92.9,526.3,92.9"/>
	<polygon class="st4" points="524.8,55.1 522.5,56.1 520.2,55.1 519.3,57.2 516.9,57.9 518,59.8 516.9,61.7 519.3,62.4 520.2,64.4 
		522.5,63.5 524.8,64.4 525.6,62.4 528,61.7 526.9,59.8 528,57.9 525.6,57.2 	"/>
</g>
<g>
	<path class="st5" d="M117.1,16.2c-1,0-2-0.1-3,0c-0.4,0-1.1,0.1-1.4,0.3c-0.3,0.3-0.1,0.4-0.3,0.6c-0.7,0.8-1.6,0.9-2.7,0.6
		c-0.5-0.1-1-0.5-1.5-0.7c-0.6-0.2-1-0.3-1.6-0.4c-1.2-0.3-2.4-1.1-3.7-1.1c-0.7,0-0.9,0.2-1.6,0.4c-1.5,0.5-2.4-0.1-3.6-1
		c-1.2-1-2.4-1.6-3.8-2.3s-3.4-2.8-5.1-2.3c1.6,0.3,3.7-1.4,5.2-1.7s3-0.4,4.5-0.4c0.7,0,1.5,0.6,2.1,0.5c0.1-0.4,0.4-0.8,0.5-1.1
		c0.2-0.9,0.3-1.8,0.5-2.6c0.4-1.7,0.4-3.2,1.7-4.4c-0.1,2.4,0,4.3,1,6.5c0.4,1,0.9,2.5,1.6,3.2c0.9,1,0.9,0.4,1.5-0.5
		c1.7-2.3,4.7-2.7,7.4-3c1-0.1,4.9-0.9,5.2,0.8c-2.2,0.7-4.2,1.8-6.3,2.9c-0.9,0.5-1.5,0.8-0.5,1.4c0.4,0,0.8,0.1,1.1,0.5
		c0.7,0.5,1.5,1.1,2.2,1.6c0.3,0.2,0.6,0.4,0.9,0.7c0.2,0.1,1,0.4,1.1,0.5C119.5,16.3,117.5,16.2,117.1,16.2"/>
	<ellipse class="st6" cx="104.5" cy="34.8" rx="12.7" ry="19.3"/>
	<line class="st2" x1="111.2" y1="23.6" x2="94.7" y2="34.8"/>
	<line class="st2" x1="96.2" y1="21.8" x2="113.9" y2="36"/>
	<line class="st2" x1="96.2" y1="28.2" x2="113.9" y2="42.4"/>
	<line class="st2" x1="96.2" y1="34" x2="113.9" y2="48.2"/>
	<line class="st2" x1="114" y1="35.5" x2="94.6" y2="47.3"/>
	<line class="st2" x1="114" y1="29.1" x2="94.6" y2="40.9"/>
</g>
<g>
	<path class="st7" d="M18.9,81.4c4.3-1.1,6.9-5.5,5.8-9.8s-5.4-7-9.7-5.9s-6.9,5.5-5.8,9.8S14.6,82.5,18.9,81.4"/>
	<path class="st7" d="M39,77c4.3-1.1,6.9-5.5,5.8-9.8s-5.4-7-9.7-5.9s-6.9,5.5-5.8,9.8S34.7,78.1,39,77"/>
	<ellipse transform="matrix(0.9698 -0.244 0.244 0.9698 -10.9014 4.0015)" class="st8" cx="10.7" cy="46" rx="10.7" ry="5.6"/>
	<line class="st9" x1="17.9" y1="65.6" x2="21.5" y2="42.6"/>
	<line class="st9" x1="33.6" y1="61.7" x2="21.5" y2="42.6"/>
	<ellipse transform="matrix(0.9698 -0.244 0.244 0.9698 -8.7713 8.7919)" class="st8" cx="31.1" cy="39.8" rx="10.7" ry="5.6"/>
</g>
<path class="st9" d="M217.1,33c0,0,61.5-48.5,128.3,0"/>
<ellipse transform="matrix(0.9178 -0.3971 0.3971 0.9178 21.7665 130.3718)" class="st10" cx="325.7" cy="12.6" rx="9.7" ry="5.1"/>
<ellipse transform="matrix(0.9178 -0.3971 0.3971 0.9178 20.2155 136.4557)" class="st10" cx="339.6" cy="19.4" rx="9.7" ry="5.1"/>
<ellipse transform="matrix(0.9981 -6.157132e-02 6.157132e-02 0.9981 -1.1932 21.8783)" class="st11" cx="354.4" cy="30.3" rx="9.7" ry="5.1"/>
<ellipse transform="matrix(0.9916 -0.129 0.129 0.9916 -0.8953 41.3558)" class="st12" cx="318.8" cy="27.6" rx="5.1" ry="9.7"/>
<ellipse transform="matrix(0.9916 -0.129 0.129 0.9916 -1.6821 43.1944)" class="st12" cx="332.6" cy="34.6" rx="5.1" ry="9.7"/>
<ellipse transform="matrix(0.8888 -0.4583 0.4583 0.8888 19.2767 163.8691)" class="st13" cx="347.3" cy="42.2" rx="5.1" ry="9.7"/>
<ellipse transform="matrix(0.129 -0.9916 0.9916 0.129 185.2759 267.221)" class="st12" cx="244.8" cy="28.1" rx="9.7" ry="5.1"/>
<ellipse transform="matrix(0.129 -0.9916 0.9916 0.129 166.5557 258.0646)" class="st12" cx="230.2" cy="34.2" rx="9.7" ry="5.1"/>
<ellipse transform="matrix(0.4583 -0.8888 0.8888 0.4583 79.2223 213.6106)" class="st13" cx="214.9" cy="41.8" rx="9.7" ry="5.1"/>
<ellipse transform="matrix(0.4527 -0.8917 0.8917 0.4527 119.5741 218.9704)" class="st14" cx="238.2" cy="12.1" rx="5.1" ry="9.7"/>
<ellipse transform="matrix(0.4527 -0.8917 0.8917 0.4527 105.042 209.3093)" class="st14" cx="223" cy="19.1" rx="5.1" ry="9.7"/>
<ellipse transform="matrix(0.1227 -0.9924 0.9924 0.1227 154.6002 232.8541)" class="st15" cx="209" cy="29" rx="5.1" ry="9.7"/>
<path class="st16" d="M304.1,121.2c0,0-4.3,18-14.9,11.1c-10.6-6.9-7.1,0.2-16.8-21.6L304.1,121.2z"/>
<path class="st16" d="M265,104.2c0,0-7.7-9-2-12c5.7-3-0.8-0.8,6.7,0s18.7-7.9,18.7-7.9s-4.1,10.5-3.3,10
	C285.7,93.7,269.6,106.6,265,104.2L265,104.2z"/>
<path class="st16" d="M277.3,87.4l-1-5.6c0,0,6.9-2.8,5.6-5.9C280.6,72.7,291.6,82.5,277.3,87.4z"/>
<path class="st16" d="M276.2,81.7c13.3-10.5-5.6-4.6-5.6-4.6L276.2,81.7z"/>
<path class="st16" d="M268.3,86.4c-20,2-3.1-10.9-3.1-10.9L268.3,86.4z"/>
<path class="st16" d="M256.3,89.7c0,0,10.7,9.2-5.1,3.3s2.3-14.4,2.3-14.4L256.3,89.7L256.3,89.7z"/>
<path class="st16" d="M236.3,94.4c0,0,4.9,0.4,8.3,11.1c3.4,10.7,18.8,4.3,18.8,4.3s-13-7.2-10-10.2S243,91.5,236.3,94.4L236.3,94.4
	z"/>
<path class="st16" d="M272.4,119.4c0,0-1.3-5.6-6.7-3.3s-11.5,6.4-14.6,6.9c-3.1,0.5,5.3,5.1,8.7,4.1
	C263.2,125.9,272.4,119.4,272.4,119.4z"/>
<path class="st17" d="M275.1,111.7c0,0,10,16.3,28,9.3"/>
<path class="st16" d="M280.5,102.7c0,0,1.7-2.5,4.2-2.5s5.3,0.6,10.2-6.6c4.9-7.2,9.2-6.7,9.2-6.7s4.1,4,1.9,8.2
	c-2.2,4.2-9.9,3.5-9.9,3.5l-4.3,4.1l-12.5,2L280.5,102.7L280.5,102.7z"/>
<path class="st16" d="M288.3,75.4c0,0,17.4-2.4,15.9,1.6c-1.5,4.1-0.3,7.4-9.2,10.2S306.9,80.9,288.3,75.4z"/>
<path class="st16" d="M272.4,64.4c5.4-3.1,9.5-1.8,13.6,1.3s10.2,4.3,10.2,4.3s-6.3,3.1-11.4,3.1c-5.1,0-3.9-6.4-8.5-3.6
	S263.5,71,263.5,71L272.4,64.4z"/>
<path class="st16" d="M284.7,62.6c0,0,5.6-2.3,7.1,0s3.8-0.3,9.7,5.2s2.5,4.2,2.7,5.2c0.2,1-5.6-5.3-8-5.7
	C293.9,66.9,284.7,62.6,284.7,62.6z"/>
<path class="st16" d="M300.5,64.6c0,0,14.8-3.8,10.2,7.4c-4.6,11.3-4.1,7.7-4.1,7.7S307.7,62.7,300.5,64.6L300.5,64.6z"/>
<path class="st16" d="M309.2,97c0,0,16.4-13.8,16.9-16.9c0.5-3.1-3.6-9.8-6.7-11c-3.1-1.3-7.8,9.4-7.8,9.4L309.2,97z"/>
<path class="st16" d="M319.5,98.4c-1.5,12-3.8,11.1-9,18.8c-5.1,7.7-19.4-8.7-19.4-8.7L319.5,98.4z"/>
<path class="st17" d="M317.5,99.2c-11.9,17.3-23.3,8.3-23.3,8.3"/>
<path class="st16" d="M286.4,116.7c0,0,1.4,2.4,2,1C288.9,116.3,286.4,116.7,286.4,116.7z"/>
<path class="st16" d="M306.6,104c0,0-2.8,0.1-1.8,1.3S306.6,104,306.6,104z"/>
</svg>
