<?xml version="1.0" encoding="utf-8"?>
<!-- Generator: Adobe Illustrator 26.5.0, SVG Export Plug-In . SVG Version: 6.00 Build 0)  -->
<svg version="1.1" id="Layer_1" xmlns="http://www.w3.org/2000/svg" xmlns:xlink="http://www.w3.org/1999/xlink" x="0px" y="0px"
	 viewBox="0 0 780.1 277.5" style="enable-background:new 0 0 780.1 277.5;" xml:space="preserve">
<style type="text/css">
	.st0{fill:#CD373E;stroke:#000000;stroke-width:0.5;stroke-miterlimit:10;}
	.st1{fill:#AAC0A6;stroke:#000000;stroke-width:0.5;stroke-miterlimit:10;}
	.st2{fill:none;stroke:#000000;stroke-width:0.5;}
	.st3{fill:#FFDF8E;stroke:#000000;stroke-width:0.5;stroke-miterlimit:10;}
	.st4{fill:#FFE7CB;stroke:#000000;stroke-width:0.5;stroke-miterlimit:10;}
	.st5{fill:#F0F7E8;stroke:#000000;stroke-width:0.5;stroke-miterlimit:10;}
	.st6{fill:#FFF8A3;stroke:#000000;stroke-width:0.5;stroke-miterlimit:10;}
	.st7{fill:#F7A3A5;stroke:#000000;stroke-width:0.5;stroke-miterlimit:10;}
	.st8{fill:#F0F7E8;stroke:#000000;stroke-width:0.5;stroke-miterlimit:10.0002;}
	.st9{fill:none;stroke:#000000;stroke-width:0.5;stroke-miterlimit:10;}
	.st10{fill:#ABBFA5;stroke:#000000;stroke-width:0.5;stroke-miterlimit:10.0002;}
	.st11{fill:#ABBFA5;stroke:#000000;stroke-width:0.5;stroke-miterlimit:9.9999;}
	.st12{fill:#638452;stroke:#000000;stroke-width:0.5;stroke-miterlimit:9.9996;}
	.st13{fill:#638452;stroke:#000000;stroke-width:0.5;stroke-miterlimit:10;}
	.st14{fill:#ABBFA5;stroke:#000000;stroke-width:0.5;stroke-miterlimit:9.9997;}
	.st15{fill:#CD373E;stroke:#000000;stroke-miterlimit:10;}
	.st16{fill:#FDF7B9;stroke:#000000;stroke-miterlimit:10;}
</style>
<g>
	<path class="st0" d="M441.7,73.9c5.8,5.4,16.7,3.1,24.2-5.1c7.5-8.2,8.9-19.2,3-24.5c-5.8-5.4-16.7-3.1-24.2,5.1
		C437.2,57.5,435.8,68.5,441.7,73.9"/>
	<path class="st1" d="M461.3,47.2c-2.8,0.4-6.3,1.5-9,1c0.6-3.1,6-3.2,7.1-5.9c0.5-1.3-0.6-3.1-0.8-4.7c-0.2-1.9-0.5-3.9-0.8-5.8
		c0.4,2.8,2.3,6,4.8,7.6c1.9,1.2,2,1.2,4,0.4c1.7-0.7,5.5-1.4,7.4-1c0,1-2,2.3-2.6,3.1c-1.4,1.7-1.2,2,0.4,3.9
		c1,1.1,2.5,2.2,3.6,3.3c0.8,0.8,1.5,1.4,2.5,1.9c1.1,0.6,3.8,1.2,4.1,2.6c-1.2,0.7-3.8-0.5-5.1-0.9c-1.8-0.6-3.4-1.8-5.1-2.5
		c-2.1-0.8-1.3,0.4-2,2.1c-0.4,1.1-1.7,2.7-2.7,3.1c-0.8-1.7,1.1-5.3-0.8-5.8c-1.1-0.3-2.3,1-3.4,0c-1-1,0.3-1.9-0.2-3.3"/>
	<path class="st2" d="M453.9,63.2c0.5-0.3,0.9-0.6,0.8-0.7c-0.1-0.1-0.5,0-1.1,0.2c-0.5,0.3-0.9,0.6-0.8,0.7
		C452.9,63.6,453.4,63.5,453.9,63.2z"/>
	<path class="st2" d="M444.6,62.1c0.5-0.3,0.9-0.6,0.8-0.7c-0.1-0.1-0.5,0-1.1,0.2c-0.5,0.3-0.9,0.6-0.8,0.7
		C443.6,62.5,444.1,62.4,444.6,62.1z"/>
	<path class="st2" d="M456.5,67.7c0.5-0.3,0.9-0.6,0.8-0.7c-0.1-0.1-0.5,0-1.1,0.2c-0.5,0.3-0.9,0.6-0.8,0.7
		C455.5,68.1,456,68,456.5,67.7z"/>
	<path class="st2" d="M445.3,67.5c0.5-0.3,0.9-0.6,0.8-0.7s-0.5,0-1.1,0.2c-0.5,0.3-0.9,0.6-0.8,0.7
		C444.3,67.9,444.8,67.8,445.3,67.5z"/>
	<path class="st2" d="M450,69.4c0.5-0.3,0.9-0.6,0.8-0.7c-0.1-0.1-0.5,0-1.1,0.2c-0.5,0.3-0.9,0.6-0.8,0.7
		C449,69.8,449.5,69.7,450,69.4z"/>
</g>
<g>
	<path class="st3" d="M526.1,116.7c11.7,0,21.2-9.5,21.2-21.2s-9.5-21.2-21.2-21.2s-21.2,9.5-21.2,21.2S514.4,116.7,526.1,116.7"/>
	<polygon class="st4" points="524.6,78.9 522.3,79.9 520,78.9 519.1,81 516.7,81.7 517.8,83.6 516.7,85.5 519.1,86.2 520,88.2 
		522.3,87.3 524.6,88.2 525.4,86.2 527.8,85.5 526.7,83.6 527.8,81.7 525.4,81 	"/>
</g>
<g>
	<path class="st5" d="M371.3,38.6c-1,0-2-0.1-3,0c-0.4,0-1.1,0.1-1.4,0.3c-0.3,0.3-0.1,0.4-0.3,0.6c-0.7,0.8-1.6,0.9-2.7,0.6
		c-0.5-0.1-1-0.5-1.5-0.7c-0.6-0.2-1-0.3-1.6-0.4c-1.2-0.3-2.4-1.1-3.7-1.1c-0.7,0-0.9,0.2-1.6,0.4c-1.5,0.5-2.4-0.1-3.6-1
		c-1.2-1-2.4-1.6-3.8-2.3c-1.4-0.7-3.4-2.8-5.1-2.3c1.6,0.3,3.7-1.4,5.2-1.7c1.5-0.3,3-0.4,4.5-0.4c0.7,0,1.5,0.6,2.1,0.5
		c0.1-0.4,0.4-0.8,0.5-1.1c0.2-0.9,0.3-1.8,0.5-2.6c0.4-1.7,0.4-3.2,1.7-4.4c-0.1,2.4,0,4.3,1,6.5c0.4,1,0.9,2.5,1.6,3.2
		c0.9,1,0.9,0.4,1.5-0.5c1.7-2.3,4.7-2.7,7.4-3c1-0.1,4.9-0.9,5.2,0.8c-2.2,0.7-4.2,1.8-6.3,2.9c-0.9,0.5-1.5,0.8-0.5,1.4
		c0.4,0,0.8,0.1,1.1,0.5c0.7,0.5,1.5,1.1,2.2,1.6c0.3,0.2,0.6,0.4,0.9,0.7c0.2,0.1,1,0.4,1.1,0.5C373.7,38.7,371.7,38.6,371.3,38.6"
		/>
	<ellipse class="st6" cx="358.7" cy="57.2" rx="12.7" ry="19.3"/>
	<line class="st2" x1="365.4" y1="46" x2="348.9" y2="57.2"/>
	<line class="st2" x1="350.4" y1="44.2" x2="368.1" y2="58.4"/>
	<line class="st2" x1="350.4" y1="50.6" x2="368.1" y2="64.8"/>
	<line class="st2" x1="350.4" y1="56.4" x2="368.1" y2="70.6"/>
	<line class="st2" x1="368.2" y1="57.9" x2="348.8" y2="69.7"/>
	<line class="st2" x1="368.2" y1="51.5" x2="348.8" y2="63.3"/>
</g>
<g>
	<path class="st7" d="M273.1,103.8c4.3-1.1,6.9-5.5,5.8-9.8c-1.1-4.3-5.4-7-9.7-5.9c-4.3,1.1-6.9,5.5-5.8,9.8
		C264.5,102.2,268.8,104.9,273.1,103.8"/>
	<path class="st7" d="M293.2,99.4c4.3-1.1,6.9-5.5,5.8-9.8s-5.4-7-9.7-5.9c-4.3,1.1-6.9,5.5-5.8,9.8
		C284.6,97.8,288.9,100.5,293.2,99.4"/>
	<ellipse transform="matrix(0.9698 -0.244 0.244 0.9698 -8.6872 66.7117)" class="st8" cx="264.9" cy="68.4" rx="10.7" ry="5.6"/>
	<line class="st9" x1="272.1" y1="88" x2="275.7" y2="65"/>
	<line class="st9" x1="287.8" y1="84.1" x2="275.7" y2="65"/>
	<ellipse transform="matrix(0.9698 -0.244 0.244 0.9698 -6.5616 71.5001)" class="st8" cx="285.3" cy="62.2" rx="10.7" ry="5.6"/>
</g>
<path class="st9" d="M350.2,140c0,0,51.9-40.9,108.2,0"/>
<ellipse transform="matrix(0.9178 -0.3971 0.3971 0.9178 -12.4234 185.5422)" class="st10" cx="441.8" cy="122.8" rx="8.2" ry="4.3"/>
<ellipse transform="matrix(0.9178 -0.3971 0.3971 0.9178 -13.7345 190.6538)" class="st10" cx="453.5" cy="128.5" rx="8.2" ry="4.3"/>
<ellipse transform="matrix(0.9981 -6.152985e-02 6.152985e-02 0.9981 -7.5884 28.9355)" class="st11" cx="466" cy="137.7" rx="8.2" ry="4.3"/>
<ellipse transform="matrix(0.9916 -0.129 0.129 0.9916 -13.8216 57.3793)" class="st12" cx="436" cy="135.4" rx="4.3" ry="8.2"/>
<ellipse transform="matrix(0.9916 -0.129 0.129 0.9916 -14.4856 58.9259)" class="st12" cx="447.6" cy="141.3" rx="4.3" ry="8.2"/>
<ellipse transform="matrix(0.8888 -0.4583 0.4583 0.8888 -16.5202 227.26)" class="st13" cx="460" cy="147.7" rx="4.3" ry="8.2"/>
<ellipse transform="matrix(0.129 -0.9916 0.9916 0.129 190.7043 488.6677)" class="st12" cx="373.5" cy="135.8" rx="8.2" ry="4.3"/>
<ellipse transform="matrix(0.129 -0.9916 0.9916 0.129 174.8514 481.0767)" class="st12" cx="361.3" cy="141" rx="8.2" ry="4.3"/>
<ellipse transform="matrix(0.4583 -0.8888 0.8888 0.4583 57.6895 389.3647)" class="st13" cx="348.3" cy="147.4" rx="8.2" ry="4.3"/>
<ellipse transform="matrix(0.4528 -0.8916 0.8916 0.4528 92.3307 395.0872)" class="st11" cx="368" cy="122.3" rx="4.3" ry="8.2"/>
<ellipse transform="matrix(0.4528 -0.8916 0.8916 0.4528 80.0748 386.86)" class="st11" cx="355.2" cy="128.2" rx="4.3" ry="8.2"/>
<ellipse transform="matrix(0.1228 -0.9924 0.9924 0.1228 165.6735 460.5937)" class="st14" cx="343.4" cy="136.6" rx="4.3" ry="8.2"/>
<path class="st15" d="M421.5,220.9c0,0-4.3,18-14.9,11.1s-7.1,0.2-16.8-21.6L421.5,220.9z"/>
<path class="st15" d="M382.4,203.9c0,0-7.7-9-2-12c5.7-3-0.8-0.8,6.7,0s18.7-7.9,18.7-7.9s-4.1,10.5-3.3,10
	C403.1,193.4,387,206.2,382.4,203.9z"/>
<path class="st15" d="M394.7,187l-1-5.6c0,0,6.9-2.8,5.6-5.9C398,172.4,409,182.1,394.7,187z"/>
<path class="st15" d="M393.6,181.3c13.3-10.5-5.6-4.6-5.6-4.6L393.6,181.3z"/>
<path class="st15" d="M385.7,186c-20,2-3.1-10.9-3.1-10.9L385.7,186z"/>
<path class="st15" d="M373.7,189.3c0,0,10.7,9.2-5.1,3.3c-15.8-5.9,2.3-14.4,2.3-14.4L373.7,189.3z"/>
<path class="st15" d="M353.7,194c0,0,4.9,0.4,8.3,11.1c3.4,10.7,18.8,4.3,18.8,4.3s-13-7.2-10-10.2S360.4,191.1,353.7,194z"/>
<path class="st15" d="M389.8,219c0,0-1.3-5.6-6.7-3.3s-11.5,6.4-14.6,6.9s5.3,5.1,8.7,4.1C380.6,225.6,389.8,219,389.8,219z"/>
<path class="st16" d="M392.5,211.3c0,0,10,16.3,28,9.3"/>
<path class="st15" d="M397.9,202.3c0,0,1.7-2.5,4.2-2.5s5.3,0.6,10.2-6.6c4.9-7.2,9.2-6.7,9.2-6.7s4.1,4,1.9,8.2
	c-2.2,4.2-9.9,3.5-9.9,3.5l-4.3,4.1l-12.5,2L397.9,202.3z"/>
<path class="st15" d="M405.7,175.1c0,0,17.4-2.4,15.9,1.6c-1.5,4.1-0.3,7.4-9.2,10.2S424.3,180.6,405.7,175.1z"/>
<path class="st15" d="M389.8,164c5.4-3.1,9.5-1.8,13.6,1.3c4.1,3.1,10.2,4.3,10.2,4.3s-6.3,3.1-11.4,3.1s-3.9-6.4-8.5-3.6
	s-12.8,1.5-12.8,1.5L389.8,164z"/>
<path class="st15" d="M402.1,162.2c0,0,5.6-2.3,7.1,0s3.8-0.3,9.7,5.2s2.5,4.2,2.7,5.2c0.2,1-5.6-5.3-8-5.7
	C411.3,166.5,402.1,162.2,402.1,162.2z"/>
<path class="st15" d="M417.9,164.2c0,0,14.8-3.8,10.2,7.4c-4.6,11.3-4.1,7.7-4.1,7.7S425.1,162.4,417.9,164.2z"/>
<path class="st15" d="M426.6,196.7c0,0,16.4-13.8,16.9-16.9c0.5-3.1-3.6-9.8-6.7-11c-3.1-1.3-7.8,9.4-7.8,9.4L426.6,196.7z"/>
<path class="st15" d="M436.9,198.1c-1.5,12-3.8,11.1-9,18.8c-5.1,7.7-19.4-8.7-19.4-8.7L436.9,198.1z"/>
<path class="st16" d="M434.9,198.8c-11.9,17.3-23.3,8.3-23.3,8.3"/>
<path class="st15" d="M403.8,216.3c0,0,1.4,2.4,2,1C406.3,215.9,403.8,216.3,403.8,216.3z"/>
<path class="st15" d="M424,203.7c0,0-2.8,0.1-1.8,1.3S424,203.7,424,203.7z"/>
</svg>
