<?xml version="1.0" encoding="UTF-8"?><svg id="Layer_1" xmlns="http://www.w3.org/2000/svg" viewBox="0 0 618.5 117.33"><defs><style>.cls-1{stroke-miterlimit:10;stroke-width:.5px;}.cls-1,.cls-2,.cls-3,.cls-4,.cls-5,.cls-6,.cls-7,.cls-8,.cls-9,.cls-10,.cls-11,.cls-12,.cls-13,.cls-14,.cls-15,.cls-16,.cls-17,.cls-18{stroke:#000;}.cls-1,.cls-2,.cls-3,.cls-11{fill:#abbfa5;}.cls-2{stroke-miterlimit:10;stroke-width:.5px;}.cls-3{stroke-miterlimit:10;stroke-width:.5px;}.cls-4{stroke-miterlimit:10;stroke-width:.5px;}.cls-4,.cls-12{fill:#638452;}.cls-5,.cls-7,.cls-8,.cls-9,.cls-10,.cls-13,.cls-14,.cls-15,.cls-18{stroke-width:.5px;}.cls-5,.cls-18{fill:none;}.cls-6{stroke-miterlimit:10;stroke-width:.5px;}.cls-6,.cls-10{fill:#f0f7e8;}.cls-7{fill:#ffe7cb;}.cls-7,.cls-8,.cls-9,.cls-10,.cls-13,.cls-14,.cls-15,.cls-16,.cls-17,.cls-18{stroke-miterlimit:10;}.cls-8{fill:#fff8a3;}.cls-9{fill:#ffdf8e;}.cls-11{stroke-miterlimit:10;stroke-width:.5px;}.cls-12{stroke-miterlimit:10;stroke-width:.5px;}.cls-13,.cls-17{fill:#cd373e;}.cls-14{fill:#aac0a6;}.cls-15{fill:#f7a3a5;}.cls-16{fill:#fdf7b9;}</style></defs><g><path class="cls-13" d="M494.52,57.72c5.8,5.4,16.7,3.1,24.2-5.1,7.5-8.2,8.9-19.2,3-24.5-5.8-5.4-16.7-3.1-24.2,5.1-7.5,8.1-8.9,19.1-3,24.5"/><path class="cls-14" d="M514.12,31.02c-2.8,.4-6.3,1.5-9,1,.6-3.1,6-3.2,7.1-5.9,.5-1.3-.6-3.1-.8-4.7-.2-1.9-.5-3.9-.8-5.8,.4,2.8,2.3,6,4.8,7.6,1.9,1.2,2,1.2,4,.4,1.7-.7,5.5-1.4,7.4-1,0,1-2,2.3-2.6,3.1-1.4,1.7-1.2,2,.4,3.9,1,1.1,2.5,2.2,3.6,3.3,.8,.8,1.5,1.4,2.5,1.9,1.1,.6,3.8,1.2,4.1,2.6-1.2,.7-3.8-.5-5.1-.9-1.8-.6-3.4-1.8-5.1-2.5-2.1-.8-1.3,.4-2,2.1-.4,1.1-1.7,2.7-2.7,3.1-.8-1.7,1.1-5.3-.8-5.8-1.1-.3-2.3,1-3.4,0-1-1,.3-1.9-.2-3.3"/><path class="cls-5" d="M506.72,47.02c.5-.3,.9-.6,.8-.7-.1-.1-.5,0-1.1,.2-.5,.3-.9,.6-.8,.7,.1,.2,.6,.1,1.1-.2Z"/><path class="cls-5" d="M497.42,45.92c.5-.3,.9-.6,.8-.7-.1-.1-.5,0-1.1,.2-.5,.3-.9,.6-.8,.7,.1,.2,.6,.1,1.1-.2Z"/><path class="cls-5" d="M509.32,51.52c.5-.3,.9-.6,.8-.7-.1-.1-.5,0-1.1,.2-.5,.3-.9,.6-.8,.7,.1,.2,.6,.1,1.1-.2Z"/><path class="cls-5" d="M498.12,51.32c.5-.3,.9-.6,.8-.7-.1-.1-.5,0-1.1,.2-.5,.3-.9,.6-.8,.7,.1,.2,.6,.1,1.1-.2Z"/><path class="cls-5" d="M502.82,53.22c.5-.3,.9-.6,.8-.7-.1-.1-.5,0-1.1,.2-.5,.3-.9,.6-.8,.7,.1,.2,.6,.1,1.1-.2Z"/></g><g><path class="cls-9" d="M597.05,110.09c11.7,0,21.2-9.5,21.2-21.2s-9.5-21.2-21.2-21.2-21.2,9.5-21.2,21.2,9.5,21.2,21.2,21.2"/><polygon class="cls-7" points="595.55 72.29 593.25 73.29 590.95 72.29 590.05 74.39 587.65 75.09 588.75 76.99 587.65 78.89 590.05 79.59 590.95 81.59 593.25 80.69 595.55 81.59 596.35 79.59 598.75 78.89 597.65 76.99 598.75 75.09 596.35 74.39 595.55 72.29"/></g><g><path class="cls-10" d="M169.26,41.34c-1,0-2-.1-3,0-.4,0-1.1,.1-1.4,.3-.3,.3-.1,.4-.3,.6-.7,.8-1.6,.9-2.7,.6-.5-.1-1-.5-1.5-.7-.6-.2-1-.3-1.6-.4-1.2-.3-2.4-1.1-3.7-1.1-.7,0-.9,.2-1.6,.4-1.5,.5-2.4-.1-3.6-1-1.2-1-2.4-1.6-3.8-2.3-1.4-.7-3.4-2.8-5.1-2.3,1.6,.3,3.7-1.4,5.2-1.7s3-.4,4.5-.4c.7,0,1.5,.6,2.1,.5,.1-.4,.4-.8,.5-1.1,.2-.9,.3-1.8,.5-2.6,.4-1.7,.4-3.2,1.7-4.4-.1,2.4,0,4.3,1,6.5,.4,1,.9,2.5,1.6,3.2,.9,1,.9,.4,1.5-.5,1.7-2.3,4.7-2.7,7.4-3,1-.1,4.9-.9,5.2,.8-2.2,.7-4.2,1.8-6.3,2.9-.9,.5-1.5,.8-.5,1.4,.4,0,.8,.1,1.1,.5,.7,.5,1.5,1.1,2.2,1.6,.3,.2,.6,.4,.9,.7,.2,.1,1,.4,1.1,.5,1,1.1-1,1-1.4,1"/><ellipse class="cls-8" cx="156.66" cy="59.94" rx="12.7" ry="19.3"/><line class="cls-5" x1="163.36" y1="48.74" x2="146.86" y2="59.94"/><line class="cls-5" x1="148.36" y1="46.94" x2="166.06" y2="61.14"/><line class="cls-5" x1="148.36" y1="53.34" x2="166.06" y2="67.54"/><line class="cls-5" x1="148.36" y1="59.14" x2="166.06" y2="73.34"/><line class="cls-5" x1="166.16" y1="60.64" x2="146.76" y2="72.44"/><line class="cls-5" x1="166.16" y1="54.24" x2="146.76" y2="66.04"/></g><g><path class="cls-15" d="M18.91,105.27c4.3-1.1,6.9-5.5,5.8-9.8s-5.4-7-9.7-5.9c-4.3,1.1-6.9,5.5-5.8,9.8,1.1,4.3,5.4,7,9.7,5.9"/><path class="cls-15" d="M39.01,100.87c4.3-1.1,6.9-5.5,5.8-9.8-1.1-4.3-5.4-7-9.7-5.9s-6.9,5.5-5.8,9.8c1.1,4.3,5.4,7,9.7,5.9"/><ellipse class="cls-6" cx="10.72" cy="69.87" rx="10.7" ry="5.6" transform="translate(-16.72 4.73) rotate(-14.12)"/><line class="cls-18" x1="17.91" y1="89.47" x2="21.51" y2="66.47"/><line class="cls-18" x1="33.61" y1="85.57" x2="21.51" y2="66.47"/><ellipse class="cls-6" cx="31.11" cy="63.68" rx="10.7" ry="5.6" transform="translate(-14.6 9.52) rotate(-14.12)"/></g><path class="cls-18" d="M277.18,23.25s51.9-40.9,108.2,0"/><ellipse class="cls-11" cx="368.78" cy="6.04" rx="8.2" ry="4.3" transform="translate(27.92 146.94) rotate(-23.4)"/><ellipse class="cls-11" cx="380.47" cy="11.76" rx="8.2" ry="4.3" transform="translate(26.61 152.05) rotate(-23.4)"/><ellipse class="cls-1" cx="392.98" cy="20.95" rx="8.2" ry="4.3" transform="translate(-.54 24.22) rotate(-3.53)"/><ellipse class="cls-4" cx="362.96" cy="18.65" rx="4.3" ry="8.2" transform="translate(.63 46.98) rotate(-7.41)"/><ellipse class="cls-4" cx="374.57" cy="24.55" rx="4.3" ry="8.2" transform="translate(-.04 48.53) rotate(-7.41)"/><ellipse class="cls-12" cx="387" cy="30.94" rx="4.3" ry="8.2" transform="translate(28.86 180.8) rotate(-27.28)"/><ellipse class="cls-4" cx="300.48" cy="19.04" rx="8.2" ry="4.3" transform="translate(242.84 314.55) rotate(-82.59)"/><ellipse class="cls-4" cx="288.23" cy="24.27" rx="8.2" ry="4.3" transform="translate(226.98 306.96) rotate(-82.59)"/><ellipse class="cls-12" cx="275.22" cy="30.62" rx="8.2" ry="4.3" transform="translate(121.87 261.2) rotate(-62.72)"/><ellipse class="cls-3" cx="295" cy="5.59" rx="4.3" ry="8.2" transform="translate(156.44 266.08) rotate(-63.08)"/><ellipse class="cls-3" cx="282.17" cy="11.46" rx="4.3" ry="8.2" transform="translate(144.18 257.85) rotate(-63.08)"/><ellipse class="cls-2" cx="270.34" cy="19.84" rx="4.3" ry="8.2" transform="translate(217.45 285.7) rotate(-82.95)"/><path class="cls-17" d="M348.48,104.15s-4.3,18-14.9,11.1c-10.6-6.9-7.1,.2-16.8-21.6l31.7,10.5Z"/><path class="cls-17" d="M309.38,87.15s-7.7-9-2-12-.8-.8,6.7,0,18.7-7.9,18.7-7.9c0,0-4.1,10.5-3.3,10,.6-.6-15.5,12.2-20.1,9.9Z"/><path class="cls-17" d="M321.68,70.25l-1-5.6s6.9-2.8,5.6-5.9c-1.3-3.1,9.7,6.6-4.6,11.5Z"/><path class="cls-17" d="M320.58,64.55c13.3-10.5-5.6-4.6-5.6-4.6l5.6,4.6Z"/><path class="cls-17" d="M312.68,69.25c-20,2-3.1-10.9-3.1-10.9l3.1,10.9Z"/><path class="cls-17" d="M300.68,72.55s10.7,9.2-5.1,3.3,2.3-14.4,2.3-14.4l2.8,11.1Z"/><path class="cls-17" d="M280.68,77.25s4.9,.4,8.3,11.1c3.4,10.7,18.8,4.3,18.8,4.3,0,0-13-7.2-10-10.2s-10.4-8.1-17.1-5.2Z"/><path class="cls-17" d="M316.78,102.25s-1.3-5.6-6.7-3.3-11.5,6.4-14.6,6.9,5.3,5.1,8.7,4.1c3.4-1.1,12.6-7.7,12.6-7.7Z"/><path class="cls-16" d="M319.48,94.55s10,16.3,28,9.3"/><path class="cls-17" d="M324.88,85.55s1.7-2.5,4.2-2.5,5.3,.6,10.2-6.6c4.9-7.2,9.2-6.7,9.2-6.7,0,0,4.1,4,1.9,8.2-2.2,4.2-9.9,3.5-9.9,3.5l-4.3,4.1-12.5,2,1.2-2Z"/><path class="cls-17" d="M332.68,58.35s17.4-2.4,15.9,1.6c-1.5,4.1-.3,7.4-9.2,10.2s11.9-6.3-6.7-11.8Z"/><path class="cls-17" d="M316.78,47.25c5.4-3.1,9.5-1.8,13.6,1.3,4.1,3.1,10.2,4.3,10.2,4.3,0,0-6.3,3.1-11.4,3.1s-3.9-6.4-8.5-3.6-12.8,1.5-12.8,1.5l8.9-6.6Z"/><path class="cls-17" d="M329.08,45.45s5.6-2.3,7.1,0,3.8-.3,9.7,5.2,2.5,4.2,2.7,5.2-5.6-5.3-8-5.7c-2.3-.4-11.5-4.7-11.5-4.7Z"/><path class="cls-17" d="M344.88,47.45s14.8-3.8,10.2,7.4c-4.6,11.3-4.1,7.7-4.1,7.7,0,0,1.1-16.9-6.1-15.1Z"/><path class="cls-17" d="M353.58,79.95s16.4-13.8,16.9-16.9c.5-3.1-3.6-9.8-6.7-11-3.1-1.3-7.8,9.4-7.8,9.4l-2.4,18.5Z"/><path class="cls-17" d="M363.88,81.35c-1.5,12-3.8,11.1-9,18.8-5.1,7.7-19.4-8.7-19.4-8.7l28.4-10.1Z"/><path class="cls-16" d="M361.88,82.05c-11.9,17.3-23.3,8.3-23.3,8.3"/><path class="cls-17" d="M330.78,99.55s1.4,2.4,2,1c.5-1.4-2-1-2-1Z"/><path class="cls-17" d="M350.98,86.95s-2.8,.1-1.8,1.3,1.8-1.3,1.8-1.3Z"/></svg>