<?xml version="1.0" encoding="utf-8"?>
<!-- Generator: Adobe Illustrator 26.5.0, SVG Export Plug-In . SVG Version: 6.00 Build 0)  -->
<svg version="1.1" id="Layer_1" xmlns="http://www.w3.org/2000/svg" xmlns:xlink="http://www.w3.org/1999/xlink" x="0px" y="0px"
	 viewBox="0 0 343.9 191.4" style="enable-background:new 0 0 343.9 191.4;" xml:space="preserve">
<style type="text/css">
	.st0{fill:#CD373E;stroke:#000000;stroke-width:0.5;stroke-miterlimit:10;}
	.st1{fill:#AAC0A6;stroke:#000000;stroke-width:0.5;stroke-miterlimit:10;}
	.st2{fill:none;stroke:#000000;stroke-width:0.5;}
	.st3{fill:#FFDF8E;stroke:#000000;stroke-width:0.5;stroke-miterlimit:10;}
	.st4{fill:#FFE7CB;stroke:#000000;stroke-width:0.5;stroke-miterlimit:10;}
	.st5{fill:#F0F7E8;stroke:#000000;stroke-width:0.5;stroke-miterlimit:10;}
	.st6{fill:#FFF8A3;stroke:#000000;stroke-width:0.5;stroke-miterlimit:10;}
	.st7{fill:#F7A3A5;stroke:#000000;stroke-width:0.5;stroke-miterlimit:10;}
	.st8{fill:#F0F7E8;stroke:#000000;stroke-width:0.5;stroke-miterlimit:10.0002;}
	.st9{fill:none;stroke:#000000;stroke-width:0.5;stroke-miterlimit:10;}
	.st10{fill:#ABBFA5;stroke:#000000;stroke-width:0.5;stroke-miterlimit:10.0002;}
	.st11{fill:#ABBFA5;stroke:#000000;stroke-width:0.5;stroke-miterlimit:9.9999;}
	.st12{fill:#638452;stroke:#000000;stroke-width:0.5;stroke-miterlimit:9.9996;}
	.st13{fill:#638452;stroke:#000000;stroke-width:0.5;stroke-miterlimit:10;}
	.st14{fill:#ABBFA5;stroke:#000000;stroke-width:0.5;stroke-miterlimit:9.9997;}
	.st15{fill:#CD373E;stroke:#000000;stroke-miterlimit:10;}
	.st16{fill:#FDF7B9;stroke:#000000;stroke-miterlimit:10;}
</style>
<g>
	<path class="st0" d="M230,52.6c5.8,5.4,16.7,3.1,24.2-5.1c7.5-8.2,8.9-19.2,3-24.5c-5.8-5.4-16.7-3.1-24.2,5.1
		C225.5,36.2,224.1,47.2,230,52.6"/>
	<path class="st1" d="M249.6,25.9c-2.8,0.4-6.3,1.5-9,1c0.6-3.1,6-3.2,7.1-5.9c0.5-1.3-0.6-3.1-0.8-4.7c-0.2-1.9-0.5-3.9-0.8-5.8
		c0.4,2.8,2.3,6,4.8,7.6c1.9,1.2,2,1.2,4,0.4c1.7-0.7,5.5-1.4,7.4-1c0,1-2,2.3-2.6,3.1c-1.4,1.7-1.2,2,0.4,3.9
		c1,1.1,2.5,2.2,3.6,3.3c0.8,0.8,1.5,1.4,2.5,1.9c1.1,0.6,3.8,1.2,4.1,2.6c-1.2,0.7-3.8-0.5-5.1-0.9c-1.8-0.6-3.4-1.8-5.1-2.5
		c-2.1-0.8-1.3,0.4-2,2.1c-0.4,1.1-1.7,2.7-2.7,3.1c-0.8-1.7,1.1-5.3-0.8-5.8c-1.1-0.3-2.3,1-3.4,0c-1-1,0.3-1.9-0.2-3.3"/>
	<path class="st2" d="M242.2,41.9c0.5-0.3,0.9-0.6,0.8-0.7c-0.1-0.1-0.5,0-1.1,0.2c-0.5,0.3-0.9,0.6-0.8,0.7
		C241.2,42.3,241.7,42.2,242.2,41.9z"/>
	<path class="st2" d="M232.9,40.8c0.5-0.3,0.9-0.6,0.8-0.7c-0.1-0.1-0.5,0-1.1,0.2c-0.5,0.3-0.9,0.6-0.8,0.7
		C231.9,41.2,232.4,41.1,232.9,40.8z"/>
	<path class="st2" d="M244.8,46.4c0.5-0.3,0.9-0.6,0.8-0.7c-0.1-0.1-0.5,0-1.1,0.2c-0.5,0.3-0.9,0.6-0.8,0.7
		C243.8,46.8,244.3,46.7,244.8,46.4z"/>
	<path class="st2" d="M233.6,46.2c0.5-0.3,0.9-0.6,0.8-0.7c-0.1-0.1-0.5,0-1.1,0.2c-0.5,0.3-0.9,0.6-0.8,0.7
		C232.6,46.6,233.1,46.5,233.6,46.2z"/>
	<path class="st2" d="M238.3,48.1c0.5-0.3,0.9-0.6,0.8-0.7c-0.1-0.1-0.5,0-1.1,0.2c-0.5,0.3-0.9,0.6-0.8,0.7
		C237.3,48.5,237.8,48.4,238.3,48.1z"/>
</g>
<path class="st3" d="M307,91.6c11.7,0,21.2-9.5,21.2-21.2s-9.5-21.2-21.2-21.2s-21.2,9.5-21.2,21.2S295.3,91.6,307,91.6"/>
<polygon class="st4" points="305.5,53.8 303.2,54.8 300.9,53.8 300,55.9 297.6,56.6 298.7,58.5 297.6,60.4 300,61.1 300.9,63.1 
	303.2,62.2 305.5,63.1 306.3,61.1 308.7,60.4 307.6,58.5 308.7,56.6 306.3,55.9 "/>
<g>
	<path class="st5" d="M107.1,20.7c-1,0-2-0.1-3,0c-0.4,0-1.1,0.1-1.4,0.3c-0.3,0.3-0.1,0.4-0.3,0.6c-0.7,0.8-1.6,0.9-2.7,0.6
		c-0.5-0.1-1-0.5-1.5-0.7c-0.6-0.2-1-0.3-1.6-0.4c-1.2-0.3-2.4-1.1-3.7-1.1c-0.7,0-0.9,0.2-1.6,0.4c-1.5,0.5-2.4-0.1-3.6-1
		c-1.2-1-2.4-1.6-3.8-2.3c-1.4-0.7-3.4-2.8-5.1-2.3c1.6,0.3,3.7-1.4,5.2-1.7s3-0.4,4.5-0.4c0.7,0,1.5,0.6,2.1,0.5
		c0.1-0.4,0.4-0.8,0.5-1.1c0.2-0.9,0.3-1.8,0.5-2.6C92,7.8,92,6.3,93.3,5.1c-0.1,2.4,0,4.3,1,6.5c0.4,1,0.9,2.5,1.6,3.2
		c0.9,1,0.9,0.4,1.5-0.5c1.7-2.3,4.7-2.7,7.4-3c1-0.1,4.9-0.9,5.2,0.8c-2.2,0.7-4.2,1.8-6.3,2.9c-0.9,0.5-1.5,0.8-0.5,1.4
		c0.4,0,0.8,0.1,1.1,0.5c0.7,0.5,1.5,1.1,2.2,1.6c0.3,0.2,0.6,0.4,0.9,0.7c0.2,0.1,1,0.4,1.1,0.5C109.5,20.8,107.5,20.7,107.1,20.7"
		/>
	<ellipse class="st6" cx="94.5" cy="39.3" rx="12.7" ry="19.3"/>
	<line class="st2" x1="101.2" y1="28.1" x2="84.7" y2="39.3"/>
	<line class="st2" x1="86.2" y1="26.3" x2="103.9" y2="40.5"/>
	<line class="st2" x1="86.2" y1="32.7" x2="103.9" y2="46.9"/>
	<line class="st2" x1="86.2" y1="38.5" x2="103.9" y2="52.7"/>
	<line class="st2" x1="104" y1="40" x2="84.6" y2="51.8"/>
	<line class="st2" x1="104" y1="33.6" x2="84.6" y2="45.4"/>
</g>
<g>
	<path class="st7" d="M28.6,93.7c4.3-1.1,6.9-5.5,5.8-9.8s-5.4-7-9.7-5.9s-6.9,5.5-5.8,9.8C20,92.1,24.3,94.8,28.6,93.7"/>
	<path class="st7" d="M48.7,89.3c4.3-1.1,6.9-5.5,5.8-9.8c-1.1-4.3-5.4-7-9.7-5.9s-6.9,5.5-5.8,9.8C40.1,87.7,44.4,90.4,48.7,89.3"
		/>
	<ellipse transform="matrix(0.9698 -0.244 0.244 0.9698 -13.6073 6.7403)" class="st8" cx="20.4" cy="58.3" rx="10.7" ry="5.6"/>
	<line class="st9" x1="27.6" y1="77.9" x2="31.2" y2="54.9"/>
	<line class="st9" x1="43.3" y1="74" x2="31.2" y2="54.9"/>
	<ellipse transform="matrix(0.9698 -0.244 0.244 0.9698 -11.4817 11.5287)" class="st8" cx="40.8" cy="52.1" rx="10.7" ry="5.6"/>
</g>
<path class="st9" d="M121.6,92c0,0,51.9-40.9,108.2,0"/>
<ellipse transform="matrix(0.9178 -0.3971 0.3971 0.9178 -12.1673 90.8116)" class="st10" cx="213.2" cy="74.8" rx="8.2" ry="4.3"/>
<ellipse transform="matrix(0.9178 -0.3971 0.3971 0.9178 -13.4784 95.9232)" class="st10" cx="224.9" cy="80.5" rx="8.2" ry="4.3"/>
<ellipse transform="matrix(0.9981 -6.152985e-02 6.152985e-02 0.9981 -5.0692 14.7772)" class="st11" cx="237.4" cy="89.7" rx="8.2" ry="4.3"/>
<ellipse transform="matrix(0.9916 -0.129 0.129 0.9916 -9.5418 27.4842)" class="st12" cx="207.4" cy="87.4" rx="4.3" ry="8.2"/>
<ellipse transform="matrix(0.9916 -0.129 0.129 0.9916 -10.2059 29.0309)" class="st12" cx="219" cy="93.3" rx="4.3" ry="8.2"/>
<ellipse transform="matrix(0.8888 -0.4583 0.4583 0.8888 -19.9529 117.145)" class="st13" cx="231.4" cy="99.7" rx="4.3" ry="8.2"/>
<ellipse transform="matrix(0.129 -0.9916 0.9916 0.129 39.1551 220.1584)" class="st12" cx="144.9" cy="87.8" rx="8.2" ry="4.3"/>
<ellipse transform="matrix(0.129 -0.9916 0.9916 0.129 23.3023 212.5674)" class="st12" cx="132.7" cy="93" rx="8.2" ry="4.3"/>
<ellipse transform="matrix(0.4583 -0.8888 0.8888 0.4583 -23.5095 160.1694)" class="st13" cx="119.6" cy="99.4" rx="8.2" ry="4.3"/>
<ellipse transform="matrix(0.4528 -0.8916 0.8916 0.4528 10.0105 164.9855)" class="st11" cx="139.4" cy="74.3" rx="4.3" ry="8.2"/>
<ellipse transform="matrix(0.4528 -0.8916 0.8916 0.4528 -2.2454 156.7583)" class="st11" cx="126.6" cy="80.2" rx="4.3" ry="8.2"/>
<ellipse transform="matrix(0.1228 -0.9924 0.9924 0.1228 12.7443 191.6069)" class="st14" cx="114.8" cy="88.6" rx="4.3" ry="8.2"/>
<path class="st15" d="M192.9,172.9c0,0-4.3,18-14.9,11.1c-10.6-6.9-7.1,0.2-16.8-21.6L192.9,172.9z"/>
<path class="st15" d="M153.8,155.9c0,0-7.7-9-2-12s-0.8-0.8,6.7,0s18.7-7.9,18.7-7.9s-4.1,10.5-3.3,10
	C174.5,145.4,158.4,158.2,153.8,155.9z"/>
<path class="st15" d="M166.1,139l-1-5.6c0,0,6.9-2.8,5.6-5.9C169.4,124.4,180.4,134.1,166.1,139z"/>
<path class="st15" d="M165,133.3c13.3-10.5-5.6-4.6-5.6-4.6L165,133.3z"/>
<path class="st15" d="M157.1,138c-20,2-3.1-10.9-3.1-10.9L157.1,138z"/>
<path class="st15" d="M145.1,141.3c0,0,10.7,9.2-5.1,3.3s2.3-14.4,2.3-14.4L145.1,141.3z"/>
<path class="st15" d="M125.1,146c0,0,4.9,0.4,8.3,11.1c3.4,10.7,18.8,4.3,18.8,4.3s-13-7.2-10-10.2S131.8,143.1,125.1,146z"/>
<path class="st15" d="M161.2,171c0,0-1.3-5.6-6.7-3.3s-11.5,6.4-14.6,6.9s5.3,5.1,8.7,4.1C152,177.6,161.2,171,161.2,171z"/>
<path class="st16" d="M163.9,163.3c0,0,10,16.3,28,9.3"/>
<path class="st15" d="M169.3,154.3c0,0,1.7-2.5,4.2-2.5s5.3,0.6,10.2-6.6c4.9-7.2,9.2-6.7,9.2-6.7s4.1,4,1.9,8.2
	c-2.2,4.2-9.9,3.5-9.9,3.5l-4.3,4.1l-12.5,2L169.3,154.3z"/>
<path class="st15" d="M177.1,127.1c0,0,17.4-2.4,15.9,1.6c-1.5,4.1-0.3,7.4-9.2,10.2S195.7,132.6,177.1,127.1z"/>
<path class="st15" d="M161.2,116c5.4-3.1,9.5-1.8,13.6,1.3c4.1,3.1,10.2,4.3,10.2,4.3s-6.3,3.1-11.4,3.1c-5.1,0-3.9-6.4-8.5-3.6
	s-12.8,1.5-12.8,1.5L161.2,116z"/>
<path class="st15" d="M173.5,114.2c0,0,5.6-2.3,7.1,0s3.8-0.3,9.7,5.2s2.5,4.2,2.7,5.2s-5.6-5.3-8-5.7
	C182.7,118.5,173.5,114.2,173.5,114.2z"/>
<path class="st15" d="M189.3,116.2c0,0,14.8-3.8,10.2,7.4c-4.6,11.3-4.1,7.7-4.1,7.7S196.5,114.4,189.3,116.2z"/>
<path class="st15" d="M198,148.7c0,0,16.4-13.8,16.9-16.9c0.5-3.1-3.6-9.8-6.7-11c-3.1-1.3-7.8,9.4-7.8,9.4L198,148.7z"/>
<path class="st15" d="M208.3,150.1c-1.5,12-3.8,11.1-9,18.8c-5.1,7.7-19.4-8.7-19.4-8.7L208.3,150.1z"/>
<path class="st16" d="M206.3,150.8c-11.9,17.3-23.3,8.3-23.3,8.3"/>
<path class="st15" d="M175.2,168.3c0,0,1.4,2.4,2,1C177.7,167.9,175.2,168.3,175.2,168.3z"/>
<path class="st15" d="M195.4,155.7c0,0-2.8,0.1-1.8,1.3S195.4,155.7,195.4,155.7z"/>
</svg>
