<?xml version="1.0" encoding="utf-8"?>
<!-- Generator: Adobe Illustrator 26.5.0, SVG Export Plug-In . SVG Version: 6.00 Build 0)  -->
<svg version="1.1" id="Layer_1" xmlns="http://www.w3.org/2000/svg" xmlns:xlink="http://www.w3.org/1999/xlink" x="0px" y="0px"
	 viewBox="0 0 261 475.8" style="enable-background:new 0 0 261 475.8;" xml:space="preserve">
<style type="text/css">
	.st0{fill:#FFEAD7;}
	.st1{fill:none;}
	.st2{fill:#D8C0A7;}
	.st3{fill:#CD373E;stroke:#000000;stroke-miterlimit:10;}
	.st4{fill:#FDF7B9;stroke:#000000;stroke-miterlimit:10;}
	.st5{clip-path:url(#SVGID_00000120558495909666748990000011473689304261359516_);}
	.st6{font-family:'PTSans-Regular';}
	.st7{font-size:21px;}
</style>
<rect class="st0" width="261" height="412.9"/>
<rect x="74" y="201.5" class="st1" width="133" height="21"/>
<rect y="22.4" class="st2" width="261" height="453.4"/>
<path class="st3" d="M161.6,130.1c0,0-5.8,24.5-20.2,15.1s-9.6,0.3-22.8-29.4L161.6,130.1L161.6,130.1z"/>
<path class="st3" d="M108.4,107c0,0-10.5-12.2-2.7-16.3c7.8-4.1-1.1-1.1,9.1,0S140.2,80,140.2,80s-5.6,14.3-4.5,13.6
	C136.6,92.7,114.7,110.1,108.4,107z"/>
<path class="st3" d="M125.2,84l-1.4-7.6c0,0,9.4-3.8,7.6-8S144.6,77.3,125.2,84z"/>
<path class="st3" d="M123.7,76.2c18.1-14.3-7.6-6.2-7.6-6.2L123.7,76.2z"/>
<path class="st3" d="M112.9,82.6c-27.2,2.7-4.2-14.8-4.2-14.8L112.9,82.6z"/>
<path class="st3" d="M96.6,87.1c0,0,14.5,12.5-6.9,4.5c-21.5-8,3.1-19.6,3.1-19.6L96.6,87.1L96.6,87.1z"/>
<path class="st3" d="M69.4,93.5c0,0,6.7,0.5,11.3,15.1c4.6,14.5,25.6,5.8,25.6,5.8s-17.7-9.8-13.6-13.9S78.5,89.6,69.4,93.5z"/>
<path class="st3" d="M118.5,127.5c0,0-1.8-7.6-9.1-4.5c-7.3,3.1-15.6,8.7-19.8,9.4s7.2,6.9,11.8,5.6
	C106,136.4,118.5,127.5,118.5,127.5C118.5,127.5,118.5,127.5,118.5,127.5z"/>
<path class="st4" d="M122.2,117c0,0,13.6,22.2,38.1,12.6"/>
<path class="st3" d="M129.5,104.8c0,0,2.3-3.4,5.7-3.4s7.2,0.8,13.9-9s12.5-9.1,12.5-9.1s5.6,5.4,2.6,11.2s-13.5,4.8-13.5,4.8
	l-5.8,5.6l-17,2.7L129.5,104.8C129.5,104.8,129.5,104.8,129.5,104.8z"/>
<path class="st3" d="M140.1,67.8c0,0,23.6-3.3,21.6,2.2c-2,5.6-0.4,10.1-12.5,13.9C137.1,87.6,165.4,75.3,140.1,67.8L140.1,67.8z"/>
<path class="st3" d="M118.5,52.7c7.3-4.2,12.9-2.5,18.5,1.8c5.6,4.2,13.9,5.8,13.9,5.8s-8.6,4.2-15.5,4.2s-5.3-8.7-11.6-4.9
	s-17.4,2-17.4,2S118.5,52.7,118.5,52.7z"/>
<path class="st3" d="M135.2,50.3c0,0,7.6-3.1,9.6,0s5.2-0.4,13.2,7.1s3.4,5.7,3.7,7.1s-7.6-7.2-10.9-7.8
	C147.7,56.1,135.2,50.3,135.2,50.3z"/>
<path class="st3" d="M156.7,53c0,0,20.1-5.2,13.9,10.1c-6.2,15.4-5.6,10.5-5.6,10.5S166.5,50.6,156.7,53L156.7,53L156.7,53z"/>
<path class="st3" d="M168.5,97.2c0,0,22.3-18.8,23-23s-4.9-13.3-9.1-15c-4.2-1.8-10.6,12.8-10.6,12.8L168.5,97.2L168.5,97.2z"/>
<path class="st3" d="M182.5,99.1c-2,16.3-5.2,15.1-12.2,25.5c-6.9,10.5-26.4-11.8-26.4-11.8L182.5,99.1z"/>
<path class="st4" d="M179.8,100c-16.2,23.5-31.7,11.3-31.7,11.3"/>
<path class="st3" d="M137.5,123.8c0,0,1.9,3.3,2.7,1.4C140.9,123.3,137.5,123.8,137.5,123.8z"/>
<path class="st3" d="M165,106.7c0,0-3.8,0.1-2.4,1.8S165,106.7,165,106.7z"/>
<g>
	<path d="M53.7,181.3h-7.3l-3.2,5.8h-2.5l12.1-21.3h1.1l3,21.3h-2.3L53.7,181.3z M47.6,179.1h5.9l-0.9-6.4l-0.1-3.2l0,0l-1.4,3.2
		L47.6,179.1L47.6,179.1z"/>
	<path d="M62.6,172.1h1.6l-0.2,2.6h0.1c0.3-0.4,0.6-0.7,0.9-1.1s0.7-0.7,1.2-0.9c0.4-0.3,0.9-0.5,1.4-0.7s1-0.2,1.6-0.2
		c0.5,0,0.9,0.1,1.3,0.2c0.4,0.1,0.8,0.4,1.1,0.8s0.6,0.8,0.8,1.4s0.3,1.3,0.3,2.1c0,1.8-0.2,3.3-0.7,4.7s-1.1,2.6-1.9,3.5
		s-1.7,1.7-2.6,2.2c-1,0.5-1.9,0.8-2.9,0.8c-0.7,0-1.3-0.1-1.8-0.2s-0.9-0.3-1.1-0.4l-1.3,6.2h-2.2L62.6,172.1L62.6,172.1
		L62.6,172.1z M68.4,173.7c-0.5,0-1.1,0.1-1.5,0.4c-0.5,0.3-0.9,0.6-1.3,1s-0.8,0.9-1.1,1.3c-0.3,0.5-0.6,0.9-0.8,1.3l-1.5,7.1
		c0.3,0.3,0.7,0.4,1,0.5s0.8,0.1,1.2,0.1c0.8,0,1.5-0.2,2.2-0.6c0.7-0.4,1.3-1,1.9-1.8s1-1.8,1.3-2.9c0.3-1.1,0.5-2.4,0.5-3.8
		c0-0.8-0.2-1.5-0.5-2C69.6,173.9,69.1,173.7,68.4,173.7L68.4,173.7z"/>
	<path d="M77.9,172.1h1.6l-0.2,2.6h0.1c0.3-0.4,0.6-0.7,0.9-1.1s0.7-0.7,1.2-0.9c0.4-0.3,0.9-0.5,1.4-0.7s1-0.2,1.6-0.2
		c0.5,0,0.9,0.1,1.3,0.2c0.4,0.1,0.8,0.4,1.1,0.8s0.6,0.8,0.8,1.4s0.3,1.3,0.3,2.1c0,1.8-0.2,3.3-0.7,4.7s-1.1,2.6-1.9,3.5
		s-1.7,1.7-2.6,2.2c-1,0.5-1.9,0.8-2.9,0.8c-0.7,0-1.3-0.1-1.8-0.2s-0.9-0.3-1.1-0.4l-1.3,6.2h-2.2L77.9,172.1L77.9,172.1
		L77.9,172.1z M83.7,173.7c-0.5,0-1.1,0.1-1.5,0.4c-0.5,0.3-0.9,0.6-1.3,1s-0.8,0.9-1.1,1.3c-0.3,0.5-0.6,0.9-0.8,1.3l-1.5,7.1
		c0.3,0.3,0.7,0.4,1.1,0.5s0.8,0.1,1.2,0.1c0.8,0,1.5-0.2,2.2-0.6c0.7-0.4,1.3-1,1.9-1.8s1-1.8,1.3-2.9c0.3-1.1,0.5-2.4,0.5-3.8
		c0-0.8-0.2-1.5-0.5-2C84.8,173.9,84.3,173.7,83.7,173.7C83.7,173.7,83.7,173.7,83.7,173.7z"/>
	<path d="M92.8,183.5c-0.1,0.3-0.1,0.6-0.1,0.8c0,0.4,0.1,0.7,0.2,0.8c0.1,0.2,0.3,0.2,0.5,0.2c0.4,0,0.7,0,1-0.1s0.6-0.1,1-0.3v1.7
		c-0.2,0.1-0.4,0.2-0.6,0.2c-0.2,0.1-0.5,0.1-0.7,0.2c-0.2,0-0.5,0.1-0.8,0.1h-0.7c-0.7,0-1.3-0.2-1.7-0.5s-0.6-0.9-0.6-1.8
		c0-0.4,0.1-0.9,0.2-1.5l3.7-17.6h2.2L92.8,183.5L92.8,183.5L92.8,183.5z"/>
	<path d="M108.6,185.6c-0.7,0.6-1.5,1.1-2.5,1.4c-0.9,0.3-1.9,0.5-2.9,0.5c-1.6,0-2.8-0.5-3.6-1.4c-0.8-0.9-1.2-2.2-1.2-3.8
		s0.2-3.1,0.7-4.4s1.1-2.4,1.8-3.3c0.8-0.9,1.6-1.6,2.6-2.1c0.9-0.5,1.9-0.7,2.9-0.7c0.7,0,1.3,0.1,1.9,0.3c0.5,0.2,1,0.5,1.3,0.8
		s0.6,0.7,0.8,1.1s0.2,0.9,0.2,1.4c0,1.4-0.7,2.5-2.1,3.3s-3.4,1.2-6,1.2h-1.6c-0.1,0.4-0.1,0.7-0.2,1.1s-0.1,0.6-0.1,0.9
		c0,1.1,0.2,2,0.8,2.7c0.5,0.7,1.3,1,2.3,1c0.9,0,1.7-0.1,2.4-0.4c0.7-0.3,1.3-0.6,1.7-0.9L108.6,185.6L108.6,185.6L108.6,185.6z
		 M106,173.7c-1.1,0-2.1,0.4-2.9,1.1s-1.4,1.9-1.8,3.4c0.8,0,1.6,0,2.4-0.1s1.6-0.1,2.2-0.3c0.7-0.2,1.2-0.4,1.7-0.8
		c0.4-0.4,0.7-0.9,0.7-1.5c0-0.2,0-0.4-0.1-0.6l-0.3-0.6c-0.2-0.2-0.4-0.3-0.7-0.4S106.5,173.7,106,173.7L106,173.7L106,173.7z"/>
	<path d="M131.2,181.2c-0.2,0.7-0.3,1.5-0.3,2.2s-0.1,1.5-0.1,2.1v0.9c0,0.3,0,0.5,0.1,0.7h-1.6l-0.4-2.6h-0.1
		c-0.2,0.3-0.5,0.7-0.9,1c-0.3,0.4-0.7,0.7-1.2,0.9c-0.4,0.3-0.9,0.5-1.3,0.7c-0.5,0.2-1,0.2-1.5,0.2c-2.4,0-3.6-1.6-3.6-4.6
		c0-1.3,0.2-2.6,0.5-3.9s0.8-2.5,1.5-3.6s1.6-1.9,2.7-2.6c1.1-0.7,2.4-1,3.9-1c0.6,0,1.2,0.1,2.1,0.2c0.8,0.1,1.6,0.3,2.3,0.5
		L131.2,181.2L131.2,181.2L131.2,181.2z M124.4,185.5c0.5,0,0.9-0.1,1.4-0.3c0.4-0.2,0.8-0.5,1.2-0.9c0.4-0.3,0.7-0.7,1-1.1
		c0.3-0.4,0.5-0.8,0.7-1.1l1.7-8.1c-0.6-0.3-1.4-0.4-2.3-0.4s-1.7,0.3-2.4,0.8s-1.3,1.2-1.8,2.1c-0.5,0.9-0.8,1.9-1.1,3
		c-0.2,1.1-0.4,2.2-0.4,3.3c0,0.8,0.2,1.4,0.4,1.9C123.3,185.3,123.8,185.5,124.4,185.5C124.4,185.5,124.4,185.5,124.4,185.5z"/>
	<path d="M143.3,187.1l2-9.5c0.1-0.4,0.1-0.7,0.2-1.1c0.1-0.4,0.1-0.7,0.1-0.9c0-0.6-0.1-1.1-0.4-1.4c-0.3-0.4-0.8-0.5-1.5-0.5
		c-0.5,0-1,0.1-1.5,0.4s-1,0.6-1.4,0.9s-0.8,0.8-1.2,1.2s-0.6,0.9-0.9,1.3l-2,9.6h-2.2l3.2-15h1.6l-0.1,2.6h0.1
		c0.3-0.3,0.6-0.6,0.9-1s0.8-0.7,1.2-0.9c0.4-0.3,1-0.5,1.5-0.7c0.6-0.2,1.2-0.3,1.9-0.3c1,0,1.8,0.2,2.4,0.7s0.9,1.3,0.9,2.5
		c0,0.6-0.1,1.3-0.3,2.2l-2.1,10L143.3,187.1L143.3,187.1z"/>
	<path d="M161.6,181.9c-0.2,0.8-0.3,1.5-0.4,2.2c-0.1,0.7-0.1,1.3-0.1,1.9v1.1h-1.5l-0.4-2.6h-0.1c-0.2,0.3-0.5,0.7-0.9,1
		c-0.4,0.4-0.8,0.7-1.2,0.9s-0.9,0.5-1.4,0.7s-1,0.2-1.5,0.2c-1.1,0-2-0.4-2.6-1.2s-1-2.1-1-3.9c0-1.2,0.2-2.4,0.5-3.6
		s0.8-2.4,1.5-3.4s1.5-1.9,2.5-2.5c1-0.7,2.1-1,3.4-1h0.9c0.2,0,0.5,0.1,0.7,0.1s0.4,0.1,0.6,0.2c0.2,0.1,0.4,0.1,0.6,0.2l1.3-6.2
		h2.2L161.6,181.9L161.6,181.9L161.6,181.9z M155,185.5c0.4,0,0.9-0.1,1.3-0.3c0.4-0.2,0.9-0.5,1.2-0.9c0.4-0.3,0.7-0.7,1.1-1.1
		s0.6-0.8,0.7-1.1l1.7-7.8c-0.3-0.2-0.7-0.4-1.2-0.5c-0.4-0.1-1-0.1-1.7-0.1c-0.8,0-1.5,0.2-2.2,0.7c-0.6,0.5-1.2,1.1-1.6,2
		c-0.4,0.8-0.8,1.8-1,2.8c-0.2,1.1-0.4,2.1-0.4,3.3c0,0.8,0.2,1.5,0.5,2.1S154.3,185.5,155,185.5L155,185.5L155,185.5z"/>
	<path d="M177.9,166.3c0.8-0.2,1.6-0.3,2.4-0.3s1.6-0.1,2.3-0.1s1.5,0.1,2.2,0.3s1.4,0.5,1.9,0.9c0.6,0.4,1,0.9,1.3,1.6
		c0.3,0.7,0.5,1.5,0.5,2.4c0,1.8-0.5,3.2-1.5,4.4s-2.5,1.9-4.5,2.3l1.1,1.1l3.2,8.3h-2.6l-3.6-9.1l-2.8-0.4l-2,9.5h-2.4L177.9,166.3
		L177.9,166.3L177.9,166.3z M182.6,168h-1.4c-0.5,0-0.9,0.1-1.2,0.1l-1.6,7.7h2.1c0.7,0,1.4-0.1,2.1-0.2c0.7-0.1,1.3-0.4,1.9-0.8
		s1-0.9,1.3-1.5s0.5-1.4,0.5-2.3c0-0.4-0.1-0.7-0.2-1.1s-0.4-0.7-0.6-1s-0.6-0.6-1.1-0.8S183.2,168,182.6,168L182.6,168L182.6,168z"
		/>
	<path d="M189.6,182.4c0-1.6,0.2-3,0.6-4.3c0.4-1.3,1-2.4,1.7-3.4c0.7-0.9,1.6-1.7,2.5-2.2s2-0.8,3-0.8c0.8,0,1.6,0.1,2.1,0.4
		s1.1,0.6,1.4,1.1s0.6,1,0.8,1.6s0.2,1.2,0.2,1.9c0,1.5-0.2,2.9-0.6,4.2s-0.9,2.4-1.6,3.4s-1.5,1.7-2.4,2.3s-1.9,0.8-3,0.8
		c-0.9,0-1.7-0.1-2.3-0.4c-0.6-0.3-1.1-0.7-1.5-1.1s-0.7-1-0.8-1.6S189.6,183,189.6,182.4L189.6,182.4L189.6,182.4z M192,181.9
		c0,1.2,0.2,2.1,0.7,2.7s1.1,0.9,2.1,0.9c0.7,0,1.3-0.2,1.9-0.7c0.6-0.5,1.1-1.1,1.6-1.9c0.4-0.8,0.8-1.7,1.1-2.8
		c0.3-1,0.4-2.1,0.4-3.2c0-1-0.2-1.8-0.6-2.4c-0.4-0.6-1.1-0.9-2.1-0.9c-0.7,0-1.3,0.2-1.9,0.7c-0.6,0.4-1.1,1.1-1.6,1.8
		c-0.5,0.8-0.8,1.6-1.1,2.6C192.1,179.7,192,180.8,192,181.9L192,181.9L192,181.9z"/>
	<path d="M210.8,182.9c0-0.5-0.1-1-0.4-1.3c-0.3-0.4-0.6-0.7-1-1s-0.8-0.6-1.3-0.9c-0.5-0.3-0.9-0.6-1.3-0.9s-0.7-0.8-1-1.2
		c-0.3-0.5-0.4-1.1-0.4-1.8c0-0.6,0.1-1.1,0.4-1.6s0.6-0.9,1.1-1.3s1-0.7,1.7-0.9c0.6-0.2,1.4-0.3,2.1-0.3c1.1,0,1.9,0.1,2.5,0.2
		s1.1,0.3,1.6,0.6l-0.8,1.8c-0.8-0.5-1.9-0.7-3.3-0.7c-0.8,0-1.5,0.2-2.1,0.5c-0.6,0.4-0.8,0.9-0.8,1.6c0,0.4,0.1,0.8,0.4,1.1
		s0.6,0.6,1,0.9c0.4,0.3,0.8,0.6,1.3,0.9c0.5,0.3,0.9,0.6,1.3,1c0.4,0.4,0.7,0.8,1,1.3s0.4,1.1,0.4,1.8c0,1.6-0.5,2.8-1.6,3.6
		s-2.5,1.2-4.2,1.2c-0.9,0-1.7-0.1-2.5-0.3s-1.4-0.4-1.8-0.7l0.8-1.9c0.4,0.3,0.9,0.5,1.6,0.7c0.6,0.2,1.3,0.3,2,0.3
		c1,0,1.8-0.2,2.4-0.6C210.5,184.4,210.8,183.7,210.8,182.9L210.8,182.9L210.8,182.9z"/>
	<path d="M226.6,185.6c-0.7,0.6-1.5,1.1-2.5,1.4c-0.9,0.3-1.9,0.5-2.9,0.5c-1.6,0-2.8-0.5-3.6-1.4s-1.2-2.2-1.2-3.8s0.2-3.1,0.7-4.4
		s1.1-2.4,1.8-3.3c0.8-0.9,1.6-1.6,2.6-2.1s1.9-0.7,2.9-0.7c0.7,0,1.3,0.1,1.9,0.3c0.5,0.2,1,0.5,1.3,0.8s0.6,0.7,0.8,1.1
		s0.2,0.9,0.2,1.4c0,1.4-0.7,2.5-2.1,3.3s-3.4,1.2-6,1.2h-1.6c-0.1,0.4-0.1,0.7-0.2,1.1s-0.1,0.6-0.1,0.9c0,1.1,0.2,2,0.8,2.7
		c0.5,0.7,1.3,1,2.3,1c0.9,0,1.7-0.1,2.4-0.4c0.7-0.3,1.3-0.6,1.7-0.9L226.6,185.6L226.6,185.6L226.6,185.6z M224.1,173.7
		c-1.1,0-2.1,0.4-2.9,1.1c-0.8,0.8-1.4,1.9-1.8,3.4c0.8,0,1.6,0,2.4-0.1c0.8,0,1.6-0.1,2.2-0.3s1.2-0.4,1.7-0.8s0.7-0.9,0.7-1.5
		c0-0.2,0-0.4-0.1-0.6c-0.1-0.2-0.2-0.4-0.4-0.6s-0.4-0.3-0.7-0.4S224.5,173.7,224.1,173.7L224.1,173.7L224.1,173.7z"/>
	<path d="M69.9,217.7c0-0.7-0.2-1.3-0.6-1.8s-0.8-1-1.4-1.4s-1.2-0.8-1.8-1.2c-0.7-0.4-1.3-0.8-1.8-1.3c-0.6-0.5-1-1.1-1.4-1.8
		s-0.6-1.5-0.6-2.5c0-1.1,0.2-2,0.6-2.7c0.4-0.8,0.9-1.4,1.6-1.9s1.5-0.8,2.4-1.1s1.9-0.3,2.9-0.3c1.2,0,2.2,0.1,3.1,0.3
		s1.6,0.4,2.2,0.7l-1.2,2.1c-0.4-0.2-1-0.4-1.8-0.6c-0.8-0.2-1.7-0.3-2.8-0.3c-1.3,0-2.4,0.3-3.2,0.9c-0.8,0.6-1.2,1.5-1.2,2.6
		c0,0.7,0.2,1.4,0.6,1.9s0.8,1,1.4,1.4s1.2,0.8,1.8,1.2c0.7,0.4,1.2,0.8,1.8,1.3c0.6,0.5,1,1.1,1.4,1.8s0.6,1.5,0.6,2.5
		c0,1.9-0.7,3.4-2.1,4.5s-3.4,1.6-6,1.6c-1.3,0-2.5-0.1-3.4-0.4c-0.9-0.2-1.6-0.5-2.1-0.8l1.2-2.2c0.5,0.3,1.1,0.5,1.9,0.8
		c0.8,0.2,1.7,0.4,2.8,0.4c0.6,0,1.2-0.1,1.9-0.2c0.6-0.1,1.2-0.3,1.7-0.6s0.9-0.6,1.2-1.1S69.9,218.4,69.9,217.7L69.9,217.7
		L69.9,217.7z"/>
	<path d="M86.2,208.1l1.4,8.8l0.1,2.9l0,0l1.2-2.9l4.4-8.7h2.2l-8.1,15.3h-1.1l-1.6-9.9v-2.5h-0.1l-1.1,2.5l-5.7,9.9h-1.1L75,208.2
		h2.2l0.9,8.7l-0.1,2.9h0.1l1.2-3l4.9-8.7C84.2,208.1,86.2,208.1,86.2,208.1z"/>
	<path d="M105.6,221.6c-0.7,0.6-1.5,1.1-2.5,1.4c-0.9,0.3-1.9,0.5-2.9,0.5c-1.6,0-2.8-0.5-3.6-1.4s-1.2-2.2-1.2-3.8s0.2-3.1,0.7-4.4
		s1.1-2.4,1.8-3.3c0.8-0.9,1.6-1.6,2.6-2.1c0.9-0.5,1.9-0.7,2.9-0.7c0.7,0,1.3,0.1,1.9,0.3c0.5,0.2,1,0.5,1.3,0.8s0.6,0.7,0.8,1.1
		s0.2,0.9,0.2,1.4c0,1.4-0.7,2.5-2.1,3.3s-3.4,1.2-6,1.2h-1.6c-0.1,0.4-0.1,0.7-0.2,1.1s-0.1,0.6-0.1,0.9c0,1.1,0.2,2,0.8,2.7
		c0.5,0.7,1.3,1,2.3,1c0.9,0,1.7-0.1,2.4-0.4c0.7-0.3,1.3-0.6,1.7-0.9L105.6,221.6L105.6,221.6L105.6,221.6z M103,209.7
		c-1.1,0-2.1,0.4-2.9,1.1s-1.4,1.9-1.8,3.4c0.8,0,1.6,0,2.4-0.1s1.6-0.1,2.2-0.3c0.7-0.2,1.2-0.4,1.7-0.8c0.4-0.4,0.7-0.9,0.7-1.5
		c0-0.2,0-0.4-0.1-0.6l-0.3-0.6c-0.2-0.2-0.4-0.3-0.7-0.4S103.5,209.7,103,209.7L103,209.7L103,209.7z"/>
	<path d="M119.5,221.6c-0.7,0.6-1.5,1.1-2.5,1.4c-0.9,0.3-1.9,0.5-2.9,0.5c-1.6,0-2.8-0.5-3.6-1.4s-1.2-2.2-1.2-3.8s0.2-3.1,0.7-4.4
		s1.1-2.4,1.8-3.3c0.8-0.9,1.6-1.6,2.6-2.1c0.9-0.5,1.9-0.7,2.9-0.7c0.7,0,1.3,0.1,1.9,0.3s1,0.5,1.3,0.8s0.6,0.7,0.8,1.1
		s0.2,0.9,0.2,1.4c0,1.4-0.7,2.5-2.1,3.3s-3.4,1.2-6,1.2h-1.6c-0.1,0.4-0.1,0.7-0.2,1.1s-0.1,0.6-0.1,0.9c0,1.1,0.2,2,0.8,2.7
		c0.5,0.7,1.3,1,2.3,1c0.9,0,1.7-0.1,2.4-0.4c0.7-0.3,1.3-0.6,1.7-0.9L119.5,221.6L119.5,221.6L119.5,221.6z M116.9,209.7
		c-1.1,0-2.1,0.4-2.9,1.1s-1.4,1.9-1.8,3.4c0.8,0,1.6,0,2.4-0.1s1.6-0.1,2.2-0.3c0.7-0.2,1.2-0.4,1.7-0.8s0.7-0.9,0.7-1.5
		c0-0.2,0-0.4-0.1-0.6l-0.3-0.6c-0.1-0.2-0.4-0.3-0.7-0.4C117.7,209.7,117.4,209.7,116.9,209.7L116.9,209.7L116.9,209.7z"/>
	<path d="M123.8,208.1h2.2l0.6-3l2.4-0.7l-0.8,3.7h3.9l-0.4,1.9h-3.9l-1.9,9.1c0,0.2-0.1,0.5-0.1,0.7v0.5c0,0.5,0.1,0.8,0.3,1
		s0.6,0.3,1,0.3c0.5,0,0.9-0.1,1.3-0.2s0.8-0.3,1.2-0.5v1.8c-0.4,0.2-1,0.4-1.6,0.6c-0.7,0.1-1.3,0.2-1.9,0.2
		c-1.8,0-2.7-0.8-2.7-2.5c0-0.3,0.1-0.8,0.2-1.3l2-9.7h-2.2L123.8,208.1L123.8,208.1L123.8,208.1z"/>
	<path d="M138.9,218.9c0-0.5-0.1-1-0.4-1.3c-0.3-0.4-0.6-0.7-1-1s-0.8-0.6-1.3-0.9c-0.5-0.3-0.9-0.6-1.3-0.9s-0.7-0.8-1-1.2
		c-0.3-0.5-0.4-1.1-0.4-1.8c0-0.6,0.1-1.1,0.4-1.6s0.6-0.9,1.1-1.3s1-0.7,1.7-0.9c0.6-0.2,1.4-0.3,2.1-0.3c1.1,0,1.9,0.1,2.5,0.2
		s1.1,0.3,1.6,0.6l-0.8,1.8c-0.8-0.5-1.9-0.7-3.3-0.7c-0.8,0-1.5,0.2-2.1,0.5c-0.6,0.4-0.8,0.9-0.8,1.6c0,0.4,0.1,0.8,0.4,1.1
		s0.6,0.6,1,0.9c0.4,0.3,0.8,0.6,1.3,0.9c0.5,0.3,0.9,0.6,1.3,1c0.4,0.4,0.7,0.8,1,1.3s0.4,1.1,0.4,1.8c0,1.6-0.5,2.8-1.6,3.6
		s-2.5,1.2-4.2,1.2c-0.9,0-1.7-0.1-2.5-0.3s-1.4-0.4-1.8-0.7l0.8-1.9c0.4,0.3,0.9,0.5,1.6,0.7c0.6,0.2,1.3,0.3,2,0.3
		c1,0,1.8-0.2,2.4-0.6S138.9,219.7,138.9,218.9L138.9,218.9L138.9,218.9z"/>
	<path d="M162.7,217.7c0-0.7-0.2-1.3-0.6-1.8c-0.4-0.5-0.8-1-1.4-1.4c-0.6-0.4-1.2-0.8-1.8-1.2s-1.2-0.8-1.8-1.3s-1-1.1-1.4-1.8
		s-0.6-1.5-0.6-2.5c0-1.1,0.2-2,0.6-2.7s0.9-1.4,1.6-1.9s1.5-0.8,2.4-1.1c0.9-0.2,1.9-0.3,2.9-0.3c1.2,0,2.2,0.1,3.1,0.3
		c0.9,0.2,1.6,0.4,2.2,0.7l-1.2,2.1c-0.4-0.2-1-0.4-1.8-0.6c-0.8-0.2-1.7-0.3-2.8-0.3c-1.3,0-2.4,0.3-3.2,0.9
		c-0.8,0.6-1.2,1.5-1.2,2.6c0,0.7,0.2,1.4,0.6,1.9c0.4,0.5,0.8,1,1.4,1.4c0.6,0.4,1.2,0.8,1.8,1.2s1.2,0.8,1.8,1.3s1,1.1,1.4,1.8
		s0.6,1.5,0.6,2.5c0,1.9-0.7,3.4-2.1,4.5c-1.4,1.1-3.4,1.6-6,1.6c-1.3,0-2.5-0.1-3.4-0.4c-0.9-0.2-1.6-0.5-2.1-0.8l1.2-2.2
		c0.5,0.3,1.1,0.5,1.9,0.8c0.8,0.2,1.7,0.4,2.8,0.4c0.6,0,1.2-0.1,1.9-0.2c0.6-0.1,1.2-0.3,1.7-0.6s0.9-0.6,1.2-1.1
		C162.5,219,162.6,218.4,162.7,217.7L162.7,217.7L162.7,217.7z"/>
	<path d="M176.4,223.1l1.8-8.6c0.1-0.6,0.2-1.1,0.3-1.6s0.1-0.9,0.1-1.2c0-0.7-0.1-1.3-0.4-1.6c-0.3-0.3-0.8-0.5-1.4-0.5
		c-0.5,0-1.1,0.1-1.6,0.4s-1.1,0.6-1.6,1s-0.9,0.9-1.3,1.4c-0.4,0.5-0.7,1-0.9,1.5l-1.9,9.1h-2.2l4.4-21h2.2l-1.9,8.6h0.1
		c0.3-0.3,0.6-0.6,0.9-1c0.4-0.3,0.8-0.6,1.3-0.9c0.5-0.3,1-0.5,1.6-0.7s1.2-0.3,1.8-0.3c1,0,1.8,0.2,2.3,0.7s0.8,1.3,0.8,2.6
		c0,0.8-0.1,1.9-0.4,3l-1.9,9.1H176.4L176.4,223.1z"/>
	<path d="M183.6,218.4c0-1.6,0.2-3,0.6-4.3c0.4-1.3,1-2.4,1.7-3.4c0.7-0.9,1.6-1.7,2.5-2.2s2-0.8,3-0.8c0.8,0,1.6,0.1,2.1,0.4
		s1.1,0.6,1.4,1.1s0.6,1,0.8,1.6s0.2,1.2,0.2,1.9c0,1.5-0.2,2.9-0.6,4.2s-0.9,2.4-1.6,3.4s-1.5,1.7-2.4,2.3s-1.9,0.8-3,0.8
		c-0.9,0-1.7-0.1-2.3-0.4c-0.6-0.3-1.1-0.7-1.5-1.2s-0.7-1-0.8-1.6S183.5,219,183.6,218.4L183.6,218.4L183.6,218.4z M186,217.9
		c0,1.2,0.2,2.1,0.7,2.7s1.1,0.9,2.1,0.9c0.7,0,1.3-0.2,1.9-0.7c0.6-0.5,1.1-1.1,1.6-1.9c0.4-0.8,0.8-1.7,1.1-2.8
		c0.3-1,0.4-2.1,0.4-3.2c0-1-0.2-1.8-0.6-2.4c-0.4-0.6-1.1-0.9-2.1-0.9c-0.7,0-1.3,0.2-1.9,0.7c-0.6,0.4-1.1,1.1-1.6,1.8
		c-0.5,0.8-0.8,1.6-1.1,2.6C186.1,215.8,186,216.8,186,217.9L186,217.9L186,217.9z"/>
	<path d="M201.3,208.1h1.6l-0.1,2.6h0.1c0.3-0.4,0.6-0.7,0.9-1.1c0.4-0.4,0.7-0.7,1.2-0.9s0.9-0.5,1.4-0.7s1-0.2,1.6-0.2
		c0.5,0,0.9,0.1,1.4,0.2c0.4,0.1,0.8,0.4,1.1,0.8s0.6,0.8,0.8,1.4c0.2,0.6,0.3,1.3,0.3,2.1c0,1.8-0.2,3.3-0.7,4.7s-1.1,2.6-1.9,3.5
		s-1.6,1.7-2.6,2.2s-1.9,0.8-2.9,0.8c-0.7,0-1.3-0.1-1.8-0.2c-0.5-0.1-0.9-0.3-1.1-0.4l-1.3,6.2h-2.2L201.3,208.1L201.3,208.1
		L201.3,208.1z M207.1,209.7c-0.5,0-1.1,0.1-1.5,0.4c-0.5,0.3-0.9,0.6-1.4,1c-0.4,0.4-0.8,0.9-1.1,1.3c-0.3,0.5-0.6,0.9-0.8,1.3
		l-1.5,7.1c0.3,0.3,0.7,0.4,1.1,0.5c0.4,0.1,0.8,0.1,1.2,0.1c0.8,0,1.5-0.2,2.2-0.6c0.7-0.4,1.3-1,1.9-1.8c0.6-0.8,1-1.8,1.3-2.9
		c0.3-1.1,0.5-2.4,0.5-3.8c0-0.8-0.2-1.5-0.5-2C208.3,209.9,207.8,209.7,207.1,209.7L207.1,209.7z"/>
</g>
<g>
	<defs>
		<circle id="SVGID_1_" cx="129.5" cy="315.8" r="69.3"/>
	</defs>
	<clipPath id="SVGID_00000040550841960832585590000006189650586245538437_">
		<use xlink:href="#SVGID_1_"  style="overflow:visible;"/>
	</clipPath>
	<g style="clip-path:url(#SVGID_00000040550841960832585590000006189650586245538437_);">
		
			<image style="overflow:visible;enable-background:new    ;" width="4032" height="3024" xlink:href="24D06F49EE85E148.jpeg"  transform="matrix(-7.000000e-02 0 0 -7.000000e-02 270.03 422.46)">
		</image>
	</g>
</g>
<text transform="matrix(1 0 0 1 85.2502 427.5861)" class="st6 st7">Rosemary </text>
</svg>
